<?xml version="1.0" encoding="utf-8"?>
<!-- Generator: Adobe Illustrator 15.1.0, SVG Export Plug-In . SVG Version: 6.00 Build 0)  -->
<!DOCTYPE svg PUBLIC "-//W3C//DTD SVG 1.1//EN" "http://www.w3.org/Graphics/SVG/1.1/DTD/svg11.dtd">
<svg version="1.1" id="Layer_1" xmlns="http://www.w3.org/2000/svg" xmlns:xlink="http://www.w3.org/1999/xlink" x="0px" y="0px"
	 width="273px" height="280px" viewBox="0 0 270 459" enable-background="new 0 0 273 359" xml:space="preserve">

<g>
	<g>

			<linearGradient id="SVGID_1_" gradientUnits="userSpaceOnUse" x1="408.7686" y1="341.7698" x2="408.7684" y2="67.0246" gradientTransform="matrix(1 0 0 -1 -270.9902 434.4009)">
			<stop  offset="0" style="stop-color:#05E6AA"/>
			<stop  offset="1" style="stop-color:#1CC1E4"/>
		</linearGradient>
		<path fill="url(#SVGID_1_)" d="M172.521,102.476l-8.007,41.156c40.212,12.745,67.697,51.928,63.873,95.637
			c-4.428,50.608-49.109,88.039-99.801,83.604c-42.247-3.695-75.237-35.336-82.523-75.063l-40.869,7.795
			c10.662,57.646,58.504,103.521,119.748,108.879c73.59,6.438,138.465-47.998,144.904-121.588
			C275.551,177.676,233.4,119.394,172.521,102.476z"/>
	</g>
</g>
<g>
	<g>
			<linearGradient id="SVGID_2_" gradientUnits="userSpaceOnUse" x1="338.5781" y1="341.4387" x2="338.5781" y2="219.5836" gradientTransform="matrix(1 0 0 -1 -270.9902 434.4009)">
			<stop  offset="0" style="stop-color:#05E6AA"/>
			<stop  offset="1" style="stop-color:#05E6AA"/>
		</linearGradient>
		<path fill="url(#SVGID_2_)" d="M121.335,97.327C63.618,103.817,15.842,147.47,5,205.557l40.772,8.206
			c7.524-41.575,42.642-72.414,84.405-75.197L121.335,97.327z"/>
	</g>
</g>
</svg>
