<?xml version="1.0" encoding="utf-8"?>
<!-- Generator: Adobe Illustrator 22.1.0, SVG Export Plug-In . SVG Version: 6.00 Build 0)  -->
<svg version="1.1" id="Layer_1" xmlns="http://www.w3.org/2000/svg" xmlns:xlink="http://www.w3.org/1999/xlink" x="0px" y="0px"
	 viewBox="0 0 451 614.2" style="enable-background:new 0 0 451 614.2;" xml:space="preserve">
<style type="text/css">
	.st0{fill:#ECECEC;}
	.st1{fill:url(#SVGID_1_);}
	.st2{fill:url(#SVGID_2_);}
	.st3{fill:none;}
	.st4{fill:url(#SVGID_3_);}
	.st5{fill:url(#SVGID_4_);}
	.st6{fill:url(#SVGID_5_);}
	.st7{display:none;}
	.st8{enable-background:new    ;}
	.st9{fill:url(#SVGID_6_);}
	.st10{fill:url(#SVGID_7_);}
	.st11{fill:url(#SVGID_8_);}
	.st12{fill:url(#SVGID_9_);}
	.st13{fill:url(#SVGID_10_);}
	.st14{fill:#FFFFFF;}
	.st15{fill:#5EE6FF;}
	.st16{opacity:0.3;enable-background:new    ;}
	.st17{fill:#D1D1D1;}
	.st18{fill:#FFB400;}
	.st19{fill:url(#SVGID_11_);}
	.st20{fill:url(#SVGID_12_);}
	.st21{fill:#1BC1E3;}
	.st22{fill:#06E5AB;}
	.st23{fill-rule:evenodd;clip-rule:evenodd;fill:#06E5AB;}
</style>
<path class="st0" d="M341.9,322.9L341.9,322.9l0.9,7v2.3l0,0c-0.6,0-2.7-2.5,0,0c1,0.9-1.5-4-0.9-4h-0.1c0,0,0,0,0.1,0v7.6
	c0,1.8-1-3.6,0.9-3.6l0,0l0,0c0,0.9,0.1,3.6-0.9,3.6l-0.6-6c-1,0-21.6,0.7-21.6-0.2v1.3l19-1c0.6,0,0,0.5,0,0s0.6,0,0,0l-19-0.3
	l-0.3-20.9c0-0.5,0.9-1,0.4-1c-0.6,0-1,0.4-1,0.9l-3.2,4.1c0-0.3,1.1,0.5,0.9,0.3l-7-6.5c-0.1-0.1-0.1-0.2,0-0.2l10.8-10h6.1
	c0.9,0,1.7,0.5,2.1,1.3c1.7,3.6,5.5,5.9,9.7,5.9s8.1-2.3,9.7-5.9c0.4-0.8,1.2-1.3,2.1-1.3h6.1l10.8,10l0.1,0.1c0,0,0,0.1-0.1,0.1
	l-9.4,8.7v-6.6c0-0.5-0.5-0.9-1-0.9c-0.6,0-1,0.4-1,0.9v9.9h-6.3c-0.2-0.3-0.5-0.6-0.9-0.6s-0.8,0.2-0.9,0.6h-2
	c-1.4,0-2.7,0.8-3.3,2.1v0.3l-0.3-1.8l2.3-2.1"/>
<path class="st0" d="M278.1,319.5L278.1,319.5 M278.1,298.6c2.5,4.6,2.8,10.9-1.5,15.9c-1-1.4-3.2-3.6-6.6-4.4
	c1.2-1.2,1.9-2.8,1.9-4.6v-2.3v-1.1v-0.2c0-3.6-3-6.6-6.6-6.6s-6.6,3-6.6,6.6v0.2v1.1v2.3c0,1.8,0.7,3.4,1.9,4.6
	c-3.4,0.8-6.3,3.2-7.8,6.4c-5.5-6.4-5.1-14.4,0.9-20.4c5.3-5.3,13.4-6.3,19.8-2.6C274.2,293.8,275.8,294.7,278.1,298.6z"/>
<linearGradient id="SVGID_1_" gradientUnits="userSpaceOnUse" x1="349.5387" y1="1085.85" x2="356.5394" y2="1085.85" gradientTransform="matrix(1 0 0 1 0 -758)">
	<stop  offset="0" style="stop-color:#05E6AA"/>
	<stop  offset="1" style="stop-color:#1CC1E4"/>
</linearGradient>
<path class="st1" d="M350.1,327.5L350.1,327.5h0.9c0,0,0,0,0.1,0l0,0l-0.1,4.2c0,0.4,0.1,0.8,0.4,1.1c0.2,0.3,0.5,0.4,0.9,0.5
	c0,0,0.1,0,0.5,0c0.2,0,0.6,0,1.2,0c0.3,0,0.7-0.2,0.9-0.5c0.2-0.3,0.4-0.7,0.4-1.1l-0.1-4.2l0,0c0,0,0,0,0.1,0l0,0h0.8
	c0.2,0,0.4-0.2,0.5-0.4c0-0.1,0-0.2,0-0.2c0-0.2,0-0.4-0.1-0.6l-1.5-1.9l-1.4-1.8c-0.1-0.1-0.3-0.2-0.4-0.2l0,0l0,0
	c-0.2,0-0.3,0.1-0.4,0.2l-1.4,1.8l-1.5,1.9c-0.1,0.2-0.2,0.4-0.1,0.6c0,0.1,0,0.2,0,0.2C349.7,327.4,349.9,327.5,350.1,327.5z"/>
<linearGradient id="SVGID_2_" gradientUnits="userSpaceOnUse" x1="333.5385" y1="1074.1383" x2="342.017" y2="1074.1383" gradientTransform="matrix(1 0 0 1 0 -758)">
	<stop  offset="0" style="stop-color:#05E6AA"/>
	<stop  offset="1" style="stop-color:#1CC1E4"/>
</linearGradient>
<path class="st2" d="M340.5,318.5l-0.2-1.2l1.5-1.5c0.2-0.2,0.3-0.5,0.2-0.7c-0.1-0.3-0.3-0.4-0.6-0.5l-2.1-0.3l-0.9-2
	c-0.1-0.2-0.4-0.4-0.6-0.4c-0.3,0-0.5,0.2-0.6,0.4l-0.9,2l-2.1,0.3c-0.3,0-0.5,0.2-0.6,0.5s0,0.5,0.2,0.7l1.5,1.5l-0.4,2.2
	c0,0.3,0.1,0.5,0.3,0.7c0.2,0.2,0.5,0.2,0.7,0.1l1.9-1l1.9,1c0.5,0.3,1.1-0.4,0.7-0.1c0,0,0.2,0,0.2-0.4c0.1-0.5,0-1.4,0-1.4"/>
<g>
	<path class="st3" d="M-542.6-1099c0.1-0.3,0.1-0.7,0-1c-1.6-3.3-2.4-6.8-2.4-10.5c0-6.5,2.5-12.7,7.2-17.3s10.8-7.2,17.3-7.2
		c6.6,0,12.8,2.6,17.4,7.2l-1.3-0.4c-0.3-0.1-0.7-0.1-0.9,0.1c-0.3,0.1-0.5,0.4-0.6,0.7c-0.1,0.3-0.1,0.7,0.1,0.9
		c0.1,0.3,0.4,0.5,0.7,0.6l5.5,1.8c0.4,0.1,0.9,0,1.2-0.2c0.3-0.3,0.5-0.7,0.4-1.1l-0.9-6.4c-0.1-0.7-0.7-1.2-1.4-1.1
		c-0.7,0.1-1.2,0.7-1.1,1.4l0.3,2.1c-5.1-5.2-12-8.1-19.3-8.1c-7.2,0-14,2.8-19.1,7.9s-7.9,11.9-7.9,19.1c0,4,0.9,7.9,2.6,11.6
		c0.2,0.4,0.6,0.7,1.1,0.7c0.2,0,0.4,0,0.5-0.1C-542.9-1098.5-542.7-1098.7-542.6-1099z M-531.8-1098.3c-0.3,0-0.6,0.2-0.8,0.4
		c-0.4,0.5-0.3,1.2,0.1,1.6c3.3,2.8,7.6,4.4,12,4.4c0.3,0,0.5,0,0.8,0c4.7-0.2,9.1-2.1,12.4-5.4s5.3-7.7,5.4-12.4
		c0.2-4.7-1.4-9.2-4.3-12.7c-0.2-0.2-0.5-0.4-0.8-0.4s-0.6,0.1-0.8,0.3c-0.2,0.2-0.4,0.5-0.4,0.8s0.1,0.6,0.3,0.8
		c1.6,1.9,2.8,4.2,3.4,6.7c-0.4-0.2-0.8-0.2-1.2-0.2c-0.7,0.1-1.3,0.5-1.7,1.1l0,0c-0.2,0-0.4,0.1-0.6,0.2l-0.7-0.8
		c-0.2-0.2-0.5-0.4-0.8-0.4s-0.6,0.1-0.8,0.3c-0.2,0.2-0.4,0.5-0.4,0.8s0.1,0.6,0.3,0.8l1.4,1.7c0.2,0.2,0.5,0.4,0.8,0.4
		s0.6-0.1,0.8-0.3l0.1-0.1l-1.8,3.5l-2.8-3.4c-0.2-0.2-0.5-0.4-0.8-0.4c-0.1,0-0.2,0-0.3,0c0.1-0.1,0.2-0.2,0.2-0.3
		c0.4-0.5,0.6-1.2,0.4-1.9l-0.1-0.4c-0.2-0.9-1-1.5-1.9-1.4l-0.9,0.1l1.5-1.4c0.4-0.4,0.4-1.2,0-1.6s-1.2-0.4-1.6,0l-2.3,2.3
		l-0.5,0.2l-2-1.6c-0.3-0.2-0.7-0.3-1-0.2l-1.1,0.3l-0.3-0.2l0.2,0.3l-1.5,0.5l2.3-1.7l2.4-0.4c0.5-0.1,0.9-0.5,1-1l0.3-2
		c0-0.3,0-0.5-0.2-0.8c0.1,0,0.2,0,0.4,0c0.4,0,0.8-0.3,1-0.7l1-2.3c0.1-0.3,0.2-0.5,0.1-0.8c2,0.6,3.9,1.7,5.5,3.1
		c0.5,0.4,1.2,0.3,1.6-0.1c0.2-0.2,0.3-0.5,0.3-0.8s-0.2-0.6-0.4-0.8c-3.6-3-8.1-4.5-12.7-4.3c-4.7,0.2-9.1,2.1-12.4,5.4
		c-3.3,3.3-5.3,7.7-5.4,12.4c-0.2,4.7,1.4,9.2,4.3,12.7c0.4,0.5,1.1,0.5,1.6,0.1c0.2-0.2,0.4-0.5,0.4-0.8s-0.1-0.6-0.3-0.8
		c-2.6-3.1-4-7.1-3.8-11.2s1.9-8,4.8-10.9c2.8-2.8,6.6-4.5,10.6-4.8c-0.3,0.1-0.6,0.3-0.8,0.6l-1.6,3.1c-0.3,0.5-0.3,1.2,0,1.7
		s0.8,0.9,1.5,0.9l0.8,0.1l-0.5,0.1c-0.2,0-0.4,0.1-0.5,0.2l-1.4,1c0.1-0.1,0.1-0.3,0.1-0.4v-1.6c0-0.6-0.5-1.1-1.2-1.1
		c-0.6,0-1.1,0.5-1.1,1.2v1.1l-0.4,0.4c-0.5,0.4-0.5,1.2,0,1.6c0.2,0.2,0.5,0.4,0.8,0.4c0,0,0,0,0.1,0c-0.1,0.1-0.1,0.2-0.1,0.3
		l-0.2,0.9l-0.6-0.1c-0.8-0.1-1.6,0.4-1.8,1.1l-0.6,1.6c-0.2,0.5-0.1,1,0.1,1.4c0.1,0.2,0.2,0.4,0.4,0.5c-0.5,0.4-0.7,1-0.8,1.6v0.2
		l-1.9,2.2c-0.4,0.4-0.6,1-0.6,1.5v2.6c0,0.8,0.3,1.6,0.9,2.1l1.9,1.8c0.5,0.5,1.1,0.8,1.8,0.8l5.2,0.4c0,0.7,0.3,1.5,0.9,1.9
		l0.8,0.6c-0.2,0.7-0.1,1.4,0.3,2c-4,0.1-7.9-1.3-10.9-3.8C-531.3-1098.2-531.5-1098.3-531.8-1098.3z M-520.3-1120.7L-520.3-1120.7
		L-520.3-1120.7L-520.3-1120.7z M-520.6-1124.6h0.9l0.4,0.7c-0.2-0.2-0.5-0.3-0.8-0.3c-0.4,0-0.7,0.2-0.9,0.5l-0.4,0.6
		L-520.6-1124.6z M-505.7-1106c0.2-0.4,0.1-0.8-0.1-1.1c-0.2-0.2-0.4-0.4-0.6-0.4l1.5-2.9c0.2-0.4,0.2-0.8,0.1-1.2l0.7,0.7
		c0,0.4,0,0.7,0,1.1c-0.2,4-1.7,7.7-4.5,10.6L-505.7-1106z M-514.1-1113L-514.1-1113L-514.1-1113L-514.1-1113z M-519.1-1112.3
		l0.2-0.5c0.1-0.2,0.1-0.3,0.1-0.5c0.3,0.2,0.7,0.2,1,0.1l0.6-0.3l0.4,0.4c0.2,0.3,0.6,0.4,0.9,0.4l-1.7,0.1c-0.5,0-1,0.3-1.3,0.7
		c-0.1,0.1-0.2,0.3-0.2,0.5l-0.6-0.2C-519.4-1111.8-519.2-1112-519.1-1112.3z M-523.5-1114.2l1.3-0.4l1.1,1.3l-0.1,0.3l0,0
		c-0.3-0.2-0.8-0.4-1.2-0.4l0,0h-1.5L-523.5-1114.2l-0.4-0.1L-523.5-1114.2z M-526.5-1114.3l0.5,0.1l-0.3,0.7l-0.4-0.1
		L-526.5-1114.3z M-520.8-1100.8l-6.3-0.5c-0.2,0-0.3-0.1-0.4-0.2l-1.9-1.8c-0.1-0.1-0.2-0.3-0.2-0.5v-2.7l2.2-2.5
		c0.2-0.2,0.3-0.4,0.3-0.7l0.1-0.7l1.6-0.7l2.9-0.1c0.2,0.6,0.7,1.1,1.3,1.3l2.3,0.8c0.6,0.2,1.3,0.1,1.7-0.4c0.3-0.3,0.4-0.6,0.5-1
		l2.5-0.2c0.3,0,0.5-0.1,0.7-0.2c-0.3,0.4-0.3,1,0.1,1.4l2.8,3.4c0.5,0.6,1.2,0.9,2,0.9h0.2l-2.5,5.8c-0.2,0.4-0.4,0.8-0.7,1.2
		l-2.2,2.6c-1,0.4-2,0.8-3.1,1l-1.1-1l0.2-0.7c0.1-0.5,0-1-0.4-1.2l-1.4-1.1l0.1-0.9c0-0.3-0.1-0.6-0.2-0.9
		C-520.2-1100.6-520.5-1100.7-520.8-1100.8z M-496.1-1122.1L-496.1-1122.1c-0.3-0.6-1-0.9-1.7-0.6c-0.6,0.3-0.9,1-0.6,1.7
		c1.6,3.3,2.4,6.8,2.4,10.5c0,6.5-2.6,12.7-7.2,17.3c-4.6,4.6-10.8,7.2-17.3,7.2c-3.9,0-7.6-0.9-11-2.6c-2.3-1.2-4.5-2.7-6.3-4.6
		l1.3,0.4c0.7,0.2,1.4-0.1,1.6-0.8c0.2-0.6-0.1-1.4-0.8-1.6l-5.5-1.8c-0.4-0.1-0.9-0.1-1.2,0.2c-0.3,0.3-0.5,0.7-0.4,1.1l0.9,6.4
		c0.1,0.6,0.6,1.1,1.2,1.1c0.1,0,0.1,0,0.2,0c0.7-0.1,1.2-0.7,1.1-1.4l-0.3-2.1c2.1,2.1,4.5,3.9,7.2,5.2c3.8,1.9,7.9,2.9,12.2,2.9
		c7.2,0,14-2.8,19.1-7.9s7.9-11.9,7.9-19.1C-493.5-1114.5-494.4-1118.4-496.1-1122.1z"/>
</g>
<g>
	
		<linearGradient id="SVGID_3_" gradientUnits="userSpaceOnUse" x1="389.0427" y1="1099.6" x2="403.7894" y2="1099.6" gradientTransform="matrix(1 0 0 1 0 -758)">
		<stop  offset="0" style="stop-color:#05E6AA"/>
		<stop  offset="1" style="stop-color:#1CC1E4"/>
	</linearGradient>
	<path class="st4" d="M401.8,339.4h-10.7c-0.9,0-1.7,0.7-1.9,1.7c-0.1,0.1-0.2,0.3-0.2,0.6c0,1.2,0.9,2.1,1.9,2.1h10.7
		c0.9,0,1.7-0.7,1.9-1.7c0.1-0.1,0.2-0.3,0.2-0.6C403.8,340.4,402.9,339.4,401.8,339.4z"/>
	
		<linearGradient id="SVGID_4_" gradientUnits="userSpaceOnUse" x1="394.212" y1="1092.9" x2="408.799" y2="1092.9" gradientTransform="matrix(1 0 0 1 0 -758)">
		<stop  offset="0" style="stop-color:#05E6AA"/>
		<stop  offset="1" style="stop-color:#1CC1E4"/>
	</linearGradient>
	<path class="st5" d="M408.8,334.5c0-1.2-0.9-2.1-1.9-2.1h-10.7c-1.1,0-1.9,1-1.9,2.1c0,0.1,0,0.3,0,0.4s0,0.2,0,0.4
		c0,1.2,0.9,2.1,1.9,2.1h10.7c1.1,0,1.9-1,1.9-2.1c0-0.1,0-0.3,0-0.4C408.8,334.7,408.8,334.6,408.8,334.5z"/>
	
		<linearGradient id="SVGID_5_" gradientUnits="userSpaceOnUse" x1="387.9733" y1="1086.8" x2="402.72" y2="1086.8" gradientTransform="matrix(1 0 0 1 0 -758)">
		<stop  offset="0" style="stop-color:#05E6AA"/>
		<stop  offset="1" style="stop-color:#1CC1E4"/>
	</linearGradient>
	<path class="st6" d="M402.5,329.3c0.1-0.1,0.2-0.3,0.2-0.6c0-1.2-0.9-2.1-1.9-2.1h-10.7c-0.9,0-1.7,0.7-1.9,1.7
		c-0.1,0.1-0.2,0.3-0.2,0.6c0,1.2,0.9,2.1,1.9,2.1h10.7C401.6,331,402.3,330.2,402.5,329.3z"/>
</g>
<g id="Layer_4" class="st7">
</g>
<g id="Shape_14_copy_2_1_" class="st8">
</g>
<g id="Layer_5">
	<rect x="76" y="284" class="st3" width="74" height="71"/>
	<rect x="151" y="284" class="st3" width="74" height="71"/>
	<rect x="226" y="284" class="st3" width="74" height="71"/>
	<rect x="301" y="284" class="st3" width="74" height="71"/>
	<rect x="376" y="284" class="st3" width="74" height="71"/>
	<g>
		<g>
			
				<linearGradient id="SVGID_6_" gradientUnits="userSpaceOnUse" x1="94.3467" y1="1078.8881" x2="135.0133" y2="1079.0548" gradientTransform="matrix(1 0 0 1 0 -758)">
				<stop  offset="0" style="stop-color:#05E6AA"/>
				<stop  offset="1" style="stop-color:#1CC1E4"/>
			</linearGradient>
			<path class="st9" d="M103.6,319.7l-2.9-0.5c-0.3,0-0.5-0.2-0.7-0.5l-1.3-2.9l-1.3,2.9c-0.1,0.3-0.4,0.5-0.7,0.5l-2.9,0.5L96,322
				c0.2,0.2,0.3,0.5,0.3,0.9l-0.5,3.1l2.6-1.5c0.1-0.1,0.3-0.1,0.4-0.1s0.3,0,0.4,0.1l2.6,1.5l-0.5-3.1c0-0.3,0-0.6,0.3-0.9
				L103.6,319.7z"/>
		</g>
		<g>
			
				<linearGradient id="SVGID_7_" gradientUnits="userSpaceOnUse" x1="94.3462" y1="1079.115" x2="135.0129" y2="1079.2816" gradientTransform="matrix(1 0 0 1 0 -758)">
				<stop  offset="0" style="stop-color:#05E6AA"/>
				<stop  offset="1" style="stop-color:#1CC1E4"/>
			</linearGradient>
			<path class="st10" d="M133.7,320.1l-2.9-0.5c-0.3,0-0.5-0.2-0.7-0.5l-1.3-2.9l-1.3,2.9c-0.1,0.3-0.4,0.5-0.7,0.5l-2.9,0.5
				l2.1,2.2c0.2,0.2,0.3,0.5,0.3,0.9l-0.5,3.1l2.6-1.5c0.1-0.1,0.3-0.1,0.4-0.1c0.1,0,0.3,0,0.4,0.1l2.6,1.5l-0.5-3.1
				c0-0.3,0-0.6,0.3-0.9L133.7,320.1z"/>
		</g>
		<g>
			
				<linearGradient id="SVGID_8_" gradientUnits="userSpaceOnUse" x1="94.3474" y1="1078.6785" x2="135.014" y2="1078.8452" gradientTransform="matrix(1 0 0 1 0 -758)">
				<stop  offset="0" style="stop-color:#05E6AA"/>
				<stop  offset="1" style="stop-color:#1CC1E4"/>
			</linearGradient>
			<path class="st11" d="M118.2,319.6l-2.9-0.5c-0.3,0-0.5-0.2-0.7-0.5l-1.3-2.9l-1.3,2.9c-0.1,0.3-0.4,0.5-0.7,0.5l-2.9,0.5
				l2.1,2.2c0.2,0.2,0.3,0.5,0.3,0.9l-0.5,3.1l2.6-1.5c0.1-0.1,0.3-0.1,0.4-0.1s0.3,0,0.4,0.1l2.6,1.5l-0.5-3.1c0-0.3,0-0.6,0.3-0.9
				L118.2,319.6z"/>
		</g>
		<g>
			<path class="st0" d="M140.2,310.6l-45.5-0.1v-7.3c0-2.2,1.8-4,4-4h37.2c2.2,0,4,1.8,4,4"/>
		</g>
		<g>
			<g>
				<polygon class="st3" points="123.8,334.2 124.8,333.4 119.1,331.1 120.6,337 121.6,336.2 121.6,336.2 				"/>
				<g>
					<polygon class="st3" points="123.8,334.2 124.8,333.4 119.1,331.1 120.6,337 121.6,336.2 121.6,336.2 					"/>
					<g>
						<polygon class="st3" points="123.8,334.2 124.8,333.4 119.1,331.1 120.6,337 121.6,336.2 121.6,336.2 						"/>
						<path d="M129,338.6l-3.1-3.5l1.5-1.3c0.3-0.2,0.4-0.6,0.3-0.9c-0.1-0.4-0.3-0.6-0.6-0.8l-4.9-2l-1.9-0.8l-2.2-0.9
							c-0.4-0.1-0.8-0.1-1.1,0.2s-0.4,0.6-0.3,1l0.7,2.6l0.5,2.1l1.2,4.7c0.1,0.3,0.3,0.6,0.7,0.7c0.1,0,0.2,0,0.3,0
							c0.2,0,0.5-0.1,0.7-0.3l1.5-1.3l3.1,3.5c0.2,0.2,0.4,0.3,0.7,0.3c0,0,0,0,0.1,0c0.2,0,0.5-0.1,0.7-0.2l2.2-1.9
							C129.3,339.7,129.3,339,129,338.6z M121.6,336.2L121.6,336.2l-1,0.8l-1.5-5.9l5.6,2.3l-1,0.8l0,0L121.6,336.2z M126.1,339.8
							l-2.4-2.7l0.7-0.6l2.4,2.7L126.1,339.8z"/>
					</g>
				</g>
			</g>
			<path d="M105.1,318.7l-3.9-0.6l-1.7-3.5c-0.1-0.3-0.4-0.5-0.7-0.5s-0.6,0.2-0.7,0.5l-1.7,3.5l-3.9,0.6c-0.3,0-0.6,0.3-0.7,0.6
				c-0.1,0.3,0,0.6,0.2,0.8l2.8,2.7l-0.7,3.9c-0.1,0.3,0.1,0.6,0.3,0.8c0.3,0.2,0.6,0.2,0.9,0.1l3.5-1.8l3.5,1.8
				c0.1,0.1,0.3,0.1,0.4,0.1c0.2,0,0.3-0.1,0.5-0.2c0.3-0.2,0.4-0.5,0.3-0.8l-0.7-3.9l2.8-2.7c0.2-0.2,0.3-0.5,0.2-0.8
				C105.7,319,105.4,318.7,105.1,318.7z M101.3,321.9c-0.2,0.2-0.3,0.5-0.2,0.7l0.5,2.6l-2.4-1.2c-0.2-0.1-0.5-0.1-0.8,0l-2.4,1.2
				l0.5-2.6c0-0.3,0-0.5-0.2-0.7l-1.9-1.9l2.7-0.4c0.3,0,0.5-0.2,0.6-0.4l1.2-2.4l1.2,2.4c0.1,0.2,0.4,0.4,0.6,0.4l2.7,0.4
				L101.3,321.9z"/>
			<path d="M117.2,327.6c0.2,0,0.3-0.1,0.5-0.2c0.3-0.2,0.4-0.5,0.3-0.8l-0.7-3.9l2.8-2.7c0.2-0.2,0.3-0.5,0.2-0.8
				c-0.1-0.3-0.4-0.5-0.7-0.6l-3.9-0.6l-1.7-3.5c-0.1-0.3-0.4-0.5-0.7-0.5s-0.6,0.2-0.7,0.5l-1.7,3.5l-3.9,0.6
				c-0.3,0-0.6,0.3-0.7,0.6c-0.1,0.3,0,0.6,0.2,0.8l2.8,2.7l-0.7,3.9c-0.1,0.3,0.1,0.6,0.3,0.8c0.3,0.2,0.6,0.2,0.9,0.1l3.5-1.8
				l3.5,1.8C117,327.6,117.1,327.6,117.2,327.6z M113.7,324.1c-0.1-0.1-0.3-0.1-0.4-0.1s-0.3,0-0.4,0.1l-2.4,1.2l0.5-2.6
				c0-0.3,0-0.5-0.2-0.7l-1.9-1.9l2.7-0.4c0.3,0,0.5-0.2,0.6-0.4l1.2-2.4l1.2,2.4c0.1,0.2,0.4,0.4,0.6,0.4l2.7,0.4L116,322
				c-0.2,0.2-0.3,0.5-0.2,0.7l0.5,2.6L113.7,324.1z"/>
			<path d="M135.3,318.7l-3.9-0.6l-1.7-3.5c-0.1-0.3-0.4-0.5-0.7-0.5s-0.6,0.2-0.7,0.5l-1.7,3.5l-3.9,0.6c-0.3,0-0.6,0.3-0.7,0.6
				c-0.1,0.3,0,0.6,0.2,0.8l2.8,2.7l-0.7,3.9c-0.1,0.3,0.1,0.6,0.3,0.8c0.1,0.1,0.3,0.2,0.5,0.2c0.1,0,0.3,0,0.4-0.1l3.5-1.8
				l3.5,1.8c0.3,0.1,0.6,0.1,0.9-0.1c0.3-0.2,0.4-0.5,0.3-0.8l-0.7-3.9l2.8-2.7c0.2-0.2,0.3-0.5,0.2-0.8
				C135.8,319,135.6,318.7,135.3,318.7z M131.5,321.9c-0.2,0.2-0.3,0.5-0.2,0.7l0.5,2.6l-2.4-1.2c-0.1-0.1-0.2-0.1-0.4-0.1
				c-0.1,0-0.3,0-0.4,0.1l-2.4,1.2l0.5-2.6c0-0.3,0-0.5-0.2-0.7l-1.9-1.9l2.7-0.4c0.3,0,0.5-0.2,0.6-0.4l1.2-2.4l1.2,2.4
				c0.1,0.2,0.4,0.4,0.6,0.4l2.7,0.4L131.5,321.9z"/>
			<polygon points="86.3,330.8 83.9,330.8 83.9,333.9 86.3,333.9 			"/>
			<path d="M89.3,297.2C89.4,297.1,89.4,297.1,89.3,297.2L89.3,297.2z"/>
			<path d="M136.2,295.2H93.9c-0.2,0-0.5,0-0.7,0H90c-3.3,0-6.1,2.7-6.1,6v26.1h2.4L86,301.2c0.2-2.7,2.9-3.8,3.2-3.8
				c0-0.1,0.1-0.1,0.1-0.1c0.1-0.1,0.1-0.1,0,0c-0.3,0.4-1.4,2-1.4,4V340c0,1.4,0.5,2.7,1.3,3.7c-0.1,0-0.2-0.1-0.3-0.1
				c-1.1-0.3-2.6-1.4-2.5-3.9v-3H84v3.4c0,3.3,2.7,6,6.1,6h4.8c-0.2,0,41.4,0,41.4,0c3.3,0,6.1-2.7,6.1-6v-38.7
				C142.3,297.9,139.5,295.2,136.2,295.2z M140.2,339.9c0,2.2-1.8,4-4,4H93.9c-2.2,0-4-1.8-4-4v-29.4H137v-2H89.9v-7.3
				c0-2.2,1.8-4,4-4h42.3c2.2,0,4,1.8,4,4V339.9L140.2,339.9z"/>
			<path d="M98.3,299.2c-1.7,0-3.1,1.4-3.1,3.1s1.4,3.1,3.1,3.1s3.1-1.4,3.1-3.1S100,299.2,98.3,299.2z M98.3,303.8
				c-0.9,0-1.6-0.7-1.6-1.5s0.7-1.5,1.6-1.5s1.6,0.7,1.6,1.5C99.8,303.2,99.1,303.8,98.3,303.8z"/>
			<path d="M107.4,299.2c-1.7,0-3.1,1.4-3.1,3.1s1.4,3.1,3.1,3.1s3.1-1.4,3.1-3.1S109.1,299.2,107.4,299.2z M107.4,303.8
				c-0.9,0-1.6-0.7-1.6-1.5s0.7-1.5,1.6-1.5s1.6,0.7,1.6,1.5C108.9,303.2,108.2,303.8,107.4,303.8z"/>
			<path d="M116.5,299.2c-1.7,0-3.1,1.4-3.1,3.1s1.4,3.1,3.1,3.1s3.1-1.4,3.1-3.1S118.2,299.2,116.5,299.2z M116.5,303.8
				c-0.9,0-1.6-0.7-1.6-1.5s0.7-1.5,1.6-1.5s1.6,0.7,1.6,1.5C118.1,303.2,117.4,303.8,116.5,303.8z"/>
			<path d="M80.2,343.4c-0.4-0.4-1-0.5-1.4-0.1s-0.5,1-0.1,1.4l5.1,5.8c0.2,0.2,0.5,0.3,0.8,0.3c0.2,0,0.5-0.1,0.7-0.2
				c0.4-0.4,0.5-1,0.1-1.4L80.2,343.4z"/>
			<path d="M145.5,341.5c-0.4-0.4-1-0.5-1.4-0.1s-0.5,1-0.1,1.4l2.7,3.1c0.2,0.2,0.5,0.3,0.8,0.3c0.2,0,0.5-0.1,0.7-0.2
				c0.4-0.4,0.5-1,0.1-1.4L145.5,341.5z"/>
			<path d="M146.7,301.5c0.2,0.2,0.5,0.3,0.7,0.3c0.3,0,0.5-0.1,0.7-0.3c0.4-0.4,0.4-1,0-1.4L143,295c-0.4-0.4-1-0.4-1.4,0
				s-0.4,1,0,1.4L146.7,301.5z"/>
			<path d="M139.4,294.3c0.2,0.2,0.4,0.3,0.7,0.3s0.6-0.1,0.8-0.3c0.4-0.4,0.3-1-0.1-1.4l-0.8-0.7c-0.4-0.4-1.1-0.3-1.4,0.1
				c-0.4,0.4-0.3,1,0.1,1.4L139.4,294.3z"/>
			<path d="M144.3,345.7c-0.4-0.4-1-0.4-1.4-0.1s-0.4,1-0.1,1.4l1.1,1.2c0.2,0.2,0.5,0.3,0.7,0.3s0.5-0.1,0.7-0.3
				c0.4-0.4,0.4-1,0.1-1.4L144.3,345.7z"/>
		</g>
	</g>
	<g>
		<g>
			<path class="st0" d="M213.9,310.6l-44.9-0.1v-7.3c0-2.2,1.8-4,4-4h36.7c2.2,0,4,1.8,4,4"/>
		</g>
		<g>
			<polygon points="160.8,330.8 158.4,330.8 158.4,333.9 160.8,333.9 			"/>
			<path d="M163.7,297.2C163.8,297.1,163.8,297.1,163.7,297.2L163.7,297.2z"/>
			<path d="M209.9,295.2h-41.6c-0.2,0-0.5,0-0.7,0h-3.2c-3.3,0-6,2.7-6,6v26.1h2.3l-0.2-26.2c0.2-2.7,2.9-3.8,3.1-3.8
				c0-0.1,0.1-0.1,0.1-0.1c0.1-0.1,0.1-0.1,0,0c-0.3,0.4-1.4,2-1.4,4v38.7c0,1.4,0.5,2.7,1.3,3.7c-0.1,0-0.2-0.1-0.3-0.1
				c-1.1-0.3-2.6-1.4-2.4-3.9v-3h-2.4v3.4c0,3.3,2.7,6,6,6h4.7c-0.2,0,40.8,0,40.8,0c3.3,0,6-2.7,6-6v-38.7
				C215.9,297.9,213.2,295.2,209.9,295.2z M213.9,339.9c0,2.2-1.8,4-4,4h-41.6c-2.2,0-4-1.8-4-4v-29.4h46.4v-2h-46.4v-7.3
				c0-2.2,1.8-4,4-4h41.6c2.2,0,4,1.8,4,4V339.9z"/>
			<path d="M172.6,299.2c-1.7,0-3,1.4-3,3.1s1.4,3.1,3,3.1c1.7,0,3-1.4,3-3.1S174.3,299.2,172.6,299.2z M172.6,303.8
				c-0.8,0-1.5-0.7-1.5-1.5s0.7-1.5,1.5-1.5s1.5,0.7,1.5,1.5C174.1,303.2,173.4,303.8,172.6,303.8z"/>
			<path d="M181.6,299.2c-1.7,0-3,1.4-3,3.1s1.4,3.1,3,3.1c1.7,0,3-1.4,3-3.1S183.2,299.2,181.6,299.2z M181.6,303.8
				c-0.8,0-1.5-0.7-1.5-1.5s0.7-1.5,1.5-1.5s1.5,0.7,1.5,1.5C183.1,303.2,182.4,303.8,181.6,303.8z"/>
			<path d="M190.5,299.2c-1.7,0-3,1.4-3,3.1s1.4,3.1,3,3.1c1.7,0,3-1.4,3-3.1C193.6,300.6,192.2,299.2,190.5,299.2z M190.5,303.8
				c-0.8,0-1.5-0.7-1.5-1.5s0.7-1.5,1.5-1.5s1.5,0.7,1.5,1.5C192.1,303.2,191.4,303.8,190.5,303.8z"/>
			<path d="M154.8,343.4c-0.4-0.4-1-0.5-1.4-0.1s-0.5,1-0.1,1.4l5,5.8c0.2,0.2,0.5,0.3,0.8,0.3c0.2,0,0.5-0.1,0.7-0.2
				c0.4-0.4,0.5-1,0.1-1.4L154.8,343.4z"/>
			<path d="M219.1,341.5c-0.4-0.4-1-0.5-1.4-0.1s-0.5,1-0.1,1.4l2.7,3.1c0.2,0.2,0.5,0.3,0.8,0.3c0.2,0,0.5-0.1,0.7-0.2
				c0.4-0.4,0.5-1,0.1-1.4L219.1,341.5z"/>
			<path d="M220.3,301.5c0.2,0.2,0.5,0.3,0.7,0.3c0.3,0,0.5-0.1,0.7-0.3c0.4-0.4,0.4-1,0-1.4l-5-5.1c-0.4-0.4-1-0.4-1.4,0
				s-0.4,1,0,1.4L220.3,301.5z"/>
			<path d="M213.1,294.3c0.2,0.2,0.4,0.3,0.7,0.3s0.5-0.1,0.7-0.3c0.4-0.4,0.3-1-0.1-1.4l-0.7-0.7c-0.4-0.4-1-0.3-1.4,0.1
				s-0.3,1,0.1,1.4L213.1,294.3z"/>
			<path d="M217.9,345.7c-0.4-0.4-1-0.4-1.4-0.1c-0.4,0.4-0.4,1-0.1,1.4l1.1,1.2c0.2,0.2,0.5,0.3,0.7,0.3s0.5-0.1,0.7-0.3
				c0.4-0.4,0.4-1,0.1-1.4L217.9,345.7z"/>
		</g>
	</g>
	<g>
		<g>
			<path d="M252.1,342.5c-0.4-0.4-1-0.4-1.4,0s-0.4,1,0,1.4l4.1,4.1c0.2,0.2,0.4,0.3,0.7,0.3s0.5-0.1,0.7-0.3c0.4-0.4,0.4-1,0-1.4
				L252.1,342.5z"/>
			<path d="M283.8,293.4c0.2,0.2,0.4,0.3,0.7,0.3s0.5-0.1,0.7-0.3c0.4-0.4,0.4-1,0-1.4l-4.7-4.7c-0.4-0.4-1-0.4-1.4,0s-0.4,1,0,1.4
				L283.8,293.4z"/>
			<path d="M244.5,313.1c0.3,0,0.5-0.1,0.7-0.3c0.4-0.4,0.4-1,0-1.4l-6.1-6.1c-0.4-0.4-1-0.4-1.4,0s-0.4,1,0,1.4l6.1,6.1
				C244,313,244.2,313.1,244.5,313.1z"/>
			<path d="M291.5,335.7c0.3,0,0.5-0.1,0.7-0.3c0.4-0.4,0.4-1,0-1.4l-3-3c-0.4-0.4-1-0.4-1.4,0s-0.4,1,0,1.4l3,3
				C291,335.6,291.3,335.7,291.5,335.7z"/>
			<path d="M249.5,339.8c-0.4-0.3-1-0.3-1.4,0.1c-0.3,0.4-0.3,1,0.1,1.4c0.4,0.4,0.6,0.5,0.7,0.5c0.1,0.1,0.3,0.1,0.4,0.1
				c0.3,0,0.6-0.2,0.8-0.5c0.3-0.4,0.2-1-0.2-1.3L249.5,339.8z"/>
		</g>
	</g>
	<rect x="1" y="1" class="st3" width="17" height="15"/>
	<rect x="19" y="1" class="st3" width="17" height="15"/>
	<rect x="1" y="18" class="st3" width="25" height="24"/>
	<rect x="1" y="284" class="st3" width="74" height="71"/>
	<rect x="1" y="356" class="st3" width="24" height="24"/>
	<rect x="1" y="381" class="st3" width="16" height="16"/>
	<rect x="1" y="398" class="st3" width="16" height="16"/>
	<rect x="1" y="415" class="st3" width="16" height="16"/>
	<rect x="26" y="356" class="st3" width="24" height="24"/>
	<rect x="51" y="356" class="st3" width="24" height="24"/>
	<rect x="76" y="356" class="st3" width="24" height="24"/>
	<rect x="101" y="356" class="st3" width="24" height="24"/>
	<rect x="126" y="356" class="st3" width="24" height="24"/>
	<rect x="151" y="356" class="st3" width="24" height="24"/>
	<rect x="176" y="356" class="st3" width="24" height="24"/>
	<rect x="201" y="356" class="st3" width="24" height="24"/>
	<rect x="1" y="43" class="st3" width="81" height="24"/>
	<rect x="1" y="93" class="st3" width="42" height="4"/>
	<rect x="27" y="18" class="st3" width="25" height="24"/>
	<rect x="37" y="1" class="st3" width="17" height="15"/>
	<rect x="55" y="1" class="st3" width="17" height="15"/>
	<g>
		<g>
			<path d="M7.9,4.5v2H5.7v2.7H8V16h2.7V9.2H13l0.3-2.7h-2.6V4.8c0-0.8,0.2-1.3,1.3-1.3h1.4V1.1c-0.2,0-1.1-0.1-2-0.1
				C9.3,1,7.9,2.2,7.9,4.5z M34.1,2.9c-0.6,0.3-1.2,0.6-1.8,0.7C31.8,3,31,2.7,30.2,2.7c-1.6,0-2.9,1.3-2.9,2.9c0,0.2,0,0.5,0.1,0.7
				c-2.4-0.1-4.5-1.3-5.9-3c-0.2,0.4-0.4,0.9-0.4,1.5c0,1,0.5,1.9,1.3,2.4c-0.5,0-0.9-0.2-1.3-0.4l0,0c0,1.4,1,2.6,2.3,2.9
				c-0.2,0.1-0.5,0.1-0.8,0.1c-0.2,0-0.4,0-0.5,0c0.4,1.2,1.4,2,2.7,2c-1,0.8-2.2,1.2-3.6,1.2c-0.2,0-0.5,0-0.7,0
				c1.3,0.8,2.8,1.3,4.4,1.3c5.3,0,8.2-4.4,8.2-8.3c0-0.1,0-0.3,0-0.4c0.6-0.4,1.1-0.9,1.4-1.5c-0.5,0.2-1.1,0.4-1.7,0.5
				C33.5,4.2,33.9,3.6,34.1,2.9z M54,4.7c0,0-0.1-0.4-0.9-0.3h-2.5c-0.2,0-0.3,0.1-0.3,0.1S50,4.6,50,4.8c-0.4,1.1-1,2.1-1,2.1
				c-1.1,2-1.6,2.1-1.8,2c-0.4-0.3-0.3-1.2-0.3-1.8c0-1.9,0.3-2.7-0.6-2.9C46.1,4.1,45.9,4,45.2,4c-0.9,0-1.7,0-2.1,0.2
				c-0.3,0.1-0.5,0.5-0.4,0.5c0.2,0,0.5,0.1,0.8,0.4c0,0,0.2,0.4,0.3,1.2c0.1,2.3-0.4,2.6-0.4,2.6c-0.3,0.2-0.9-0.1-1.8-2
				c0,0-0.5-0.9-0.9-2c-0.1-0.2-0.2-0.3-0.2-0.3S40.2,4.5,40,4.4h-2.4c-0.4,0-0.5,0.2-0.5,0.2S37,4.7,37.1,5
				c1.9,4.6,4.1,6.9,4.1,6.9s2,2.1,4.2,2h1c0.3,0,0.5-0.2,0.5-0.2s0.1-0.2,0.1-0.5c0-1.4,0.6-1.6,0.6-1.6c0.6-0.2,1.4,1.4,2.3,2
				c0,0,0.6,0.5,1.1,0.4h2.3c1.2,0,0.6-1,0.6-1c0-0.1-0.3-0.7-1.7-2c-1.4-1.4-1.2-1.1,0.5-3.5C53.7,6,54.1,5.1,54,4.7z M68.3,2h-9.7
				C57.8,2,57,2.8,57,3.7v9.7c0,0.9,0.8,1.7,1.7,1.7h9.7c0.9,0,1.7-0.8,1.7-1.7V3.7C70,2.8,69.2,2,68.3,2z M63.5,5.9
				c1.4,0,2.6,1.1,2.6,2.5S65,11,63.5,11c-1.4,0-2.6-1.1-2.6-2.5S62.1,5.9,63.5,5.9z M68.5,13c0,0.3-0.2,0.5-0.5,0.5h-9
				c-0.3,0-0.5-0.2-0.5-0.5V7.5h1.2c-0.1,0.3-0.2,0.7-0.2,1.1c0,2.2,1.8,3.9,4,3.9c2.2,0,4-1.8,4-3.9c0-0.4-0.1-0.8-0.2-1.1h1.1
				L68.5,13L68.5,13z M68.5,5.4c0,0.3-0.3,0.6-0.6,0.6h-1.5c-0.3,0-0.6-0.3-0.6-0.6V4c0-0.3,0.3-0.6,0.6-0.6h1.5
				c0.3,0,0.6,0.3,0.6,0.6V5.4L68.5,5.4z"/>
		</g>
	</g>
	<g>
		<g>
			
				<linearGradient id="SVGID_9_" gradientUnits="userSpaceOnUse" x1="425.9902" y1="-397.5986" x2="439.9662" y2="-397.5986" gradientTransform="matrix(1 0 0 -1 -422.9902 -367.5986)">
				<stop  offset="0" style="stop-color:#05E6AA"/>
				<stop  offset="1" style="stop-color:#1CC1E4"/>
			</linearGradient>
			<path class="st12" d="M16.3,19H3.6C3.3,19,3,19.3,3,19.6v20.8C3,40.7,3.3,41,3.6,41h12.7c0.4,0,0.6-0.3,0.6-0.6V19.6
				C17,19.3,16.7,19,16.3,19z M15.8,39.9h-12v-4h12V39.9z M15.8,34.9h-12v-15h12V34.9z M10,38.3c0.3,0,0.6-0.3,0.6-0.6
				s-0.3-0.6-0.6-0.6s-0.6,0.3-0.6,0.6S9.6,38.3,10,38.3z"/>
		</g>
	</g>
	<g>
		<g>
			
				<linearGradient id="SVGID_10_" gradientUnits="userSpaceOnUse" x1="450.9902" y1="-393.4986" x2="473.9902" y2="-393.4986" gradientTransform="matrix(1 0 0 -1 -422.9902 -367.5986)">
				<stop  offset="0" style="stop-color:#05E6AA"/>
				<stop  offset="1" style="stop-color:#1CC1E4"/>
			</linearGradient>
			<path class="st13" d="M51,20.4c0-0.1,0-0.3-0.1-0.4c-0.2-0.7-0.7-1.1-1.7-1.1H30.5c-0.9,0-1.8,0.3-2.2,0.9c0,0-0.1,0-0.1,0.1
				C28,20.1,28,20.3,28,20.4v0.1v10.2c0,1.1,1.3,2.2,2.5,2.2h18.7c1.2,0,1.8-1.2,1.8-2.2V20.6C51,20.5,51,20.5,51,20.4z M30.1,20.1
				h19.1v0.2l0,0l-9.7,6.9l-10-7.1C29.7,20.1,30,20.1,30.1,20.1z M49.6,32H30.1c-0.4,0-1.1-0.6-1.1-1v-9.7l10,7.1
				c0.1,0.1,0.3,0.2,0.5,0.2s0.3-0.1,0.5-0.2l10-7.1V31C50,31.4,50,32,49.6,32z"/>
		</g>
	</g>
	<path class="st14" d="M81,56H2v-2h1.1l16.2-9l1,1.7L7.1,54H81V56z"/>
	<rect x="83" y="43" class="st3" width="81" height="24"/>
	<path class="st15" d="M163,56H84v-2h1.1l16.2-9l1,1.7L89.1,54H163V56z"/>
	<rect x="1" y="68" class="st3" width="81" height="24"/>
	<rect x="1" y="98" class="st14" width="60" height="55"/>
	<rect x="62" y="98" class="st3" width="60" height="55"/>
	<rect x="123" y="98" class="st3" width="60" height="55"/>
	<rect x="184" y="98" class="st3" width="60" height="55"/>
	<rect x="245" y="98" class="st3" width="60" height="55"/>
	<rect x="306" y="98" class="st3" width="60" height="55"/>
	<path class="st15" d="M2,79h79v2h-1.1l-16.2,9l-1-1.7L75.9,81H2V79z"/>
	<rect x="83" y="68" class="st3" width="81" height="24"/>
	<path class="st14" d="M84,79h79v2h-1.1l-16.2,9l-1-1.7l13.1-7.3H84V79z"/>
	<rect x="165" y="43" class="st3" width="81" height="24"/>
	<path class="st16" d="M245,56h-79v-2h1.1l16.2-9l1,1.7L171.1,54H245V56z"/>
	<rect x="165" y="68" class="st3" width="81" height="24"/>
	<path class="st16" d="M166,79h79v2h-1.1l-16.2,9l-1-1.7l13.1-7.3H166V79z"/>
	<path class="st3" d="M3.1,94h37.8c0.6,0,1.1,0.4,1.1,1s-0.5,1-1.1,1H3.1C2.5,96,2,95.6,2,95S2.5,94,3.1,94z"/>
	<rect x="44" y="93" class="st3" width="42" height="4"/>
	<path class="st15" d="M46.1,94h37.8c0.6,0,1.1,0.4,1.1,1s-0.5,1-1.1,1H46.1c-0.6,0-1.1-0.4-1.1-1S45.5,94,46.1,94z"/>
	<rect x="87" y="93" class="st3" width="42" height="4"/>
	<path class="st16" d="M89.1,94h37.8c0.6,0,1.1,0.4,1.1,1s-0.5,1-1.1,1H89.1c-0.6,0-1.1-0.4-1.1-1S88.5,94,89.1,94z"/>
	<path class="st14" d="M12.6,125.4c-3.3,0-6,2.8-5.9,6.1c0,3.3,2.8,6,6.1,5.9c3.3,0,5.9-2.7,5.9-6C18.6,128.1,15.9,125.4,12.6,125.4
		z M12.6,134.5c-1.7,0-3-1.4-3-3.1c0-1.7,1.4-3,3.1-3c1.6,0,3,1.4,3,3C15.7,133.1,14.3,134.5,12.6,134.5L12.6,134.5z M24.8,131.4
		c0,3.4,2.6,6.1,6,6.1s6.1-2.6,6.1-6s-2.6-6.1-6-6.1h-0.1C27.6,125.4,24.9,128.1,24.8,131.4L24.8,131.4L24.8,131.4z M30.9,128.4
		c1.7,0,3,1.4,3,3.1c0,1.7-1.4,3-3.1,3c-1.6,0-3-1.4-3-3C27.8,129.7,29.2,128.4,30.9,128.4z M41.5,143.6v6.7c0,0.8-0.7,1.5-1.5,1.5
		s-1.5-0.7-1.5-1.5v-6.7c0-1.4-1.2-2.5-2.6-2.5H35l-2.8,2.7c-0.8,0.8-2.1,0.8-2.9,0l-2.8-2.7h-0.9c-1.4,0-2.5,1.1-2.6,2.5v6.7
		c0,0.8-0.7,1.5-1.5,1.5s-1.5-0.7-1.5-1.5v-6.7c0-3,2.5-5.5,5.5-5.4H27c0.4,0,0.8,0.2,1,0.4l2.6,2.6l2.6-2.6c0.3-0.3,0.6-0.4,1-0.4
		H36C39,138.1,41.5,140.5,41.5,143.6z M49.2,137.4c3.3,0,6-2.8,5.9-6.1c0-3.3-2.8-6-6.1-5.9c-3.3,0-5.9,2.7-5.9,6
		C43.1,134.7,45.9,137.4,49.2,137.4z M49.2,128.4c1.7,0,3,1.4,3,3.1c0,1.7-1.4,3-3.1,3c-1.7,0-3-1.4-3-3
		C46.1,129.7,47.5,128.4,49.2,128.4z M27.8,118.3c0-3.4-2.6-6.1-6-6.2s-6.1,2.6-6.2,6c0,3.4,2.6,6.1,6,6.1h0.1
		C25.1,124.3,27.8,121.6,27.8,118.3z M18.6,118.3c0-1.7,1.3-3.2,3-3.2s3.2,1.3,3.2,3s-1.3,3.2-3,3.2h-0.1
		C20.1,121.3,18.7,120,18.6,118.3z M46.1,118.3c0-3.4-2.6-6.1-6-6.2s-6.1,2.6-6.2,6c0,3.4,2.6,6.1,6,6.1H40
		C43.4,124.3,46.1,121.6,46.1,118.3z M40,121.3c-1.7,0-3-1.4-3-3.1s1.4-3,3.1-3c1.7,0,3,1.4,3,3C43.1,120,41.7,121.3,40,121.3z
		 M37,105.1c0-3.4-2.6-6.1-6-6.1s-6.1,2.6-6.1,6s2.6,6.1,6,6.1H31C34.2,111.2,36.9,108.5,37,105.1z M30.9,108.2c-1.7,0-3-1.4-3-3.1
		s1.4-3,3.1-3c1.6,0,3,1.4,3,3C34,106.8,32.6,108.2,30.9,108.2z M59.8,143.6v5.6c0,0.8-0.7,1.5-1.5,1.5s-1.5-0.7-1.5-1.5v-5.6
		c0-1.4-1.2-2.5-2.6-2.5h-0.9l-2.8,2.7c-0.8,0.8-2.1,0.8-2.9,0l-2.8-2.7h-0.9c-0.8,0-1.5-0.7-1.5-1.5s0.7-1.5,1.5-1.5h1.5
		c0.4,0,0.8,0.2,1,0.4l2.6,2.6l2.6-2.6c0.3-0.3,0.6-0.4,1-0.4h1.5C57.3,138.1,59.8,140.5,59.8,143.6L59.8,143.6z M2,149.2v-5.6
		c0-3,2.5-5.5,5.5-5.4H9c0.4,0,0.8,0.2,1,0.4l2.6,2.6l2.6-2.6c0.3-0.3,0.6-0.4,1-0.4h1.5c0.8,0,1.5,0.7,1.5,1.5s-0.7,1.5-1.5,1.5
		h-0.8l-2.8,2.7c-0.8,0.8-2.1,0.8-2.9,0l-2.8-2.7H7.5c-1.4,0-2.5,1.1-2.6,2.5v5.6c0,0.8-0.7,1.5-1.5,1.5C2.7,150.7,2,150,2,149.2z"
		/>
	<path class="st14" d="M68.6,101.8h2.9c1.1,0,2,0.8,2.3,1.8l6.5,30c0.5,2.3,2.5,4,4.9,4h26.5c0.8,0,1.4-0.6,1.4-1.4
		c0-0.8-0.6-1.4-1.4-1.4H85.2c-1.1,0-2.1-0.8-2.3-1.9l-0.9-4h27.8c2.1,0,3.9-1.5,4.2-3.6l2.9-16.5c0.1-0.7-0.4-1.5-1.1-1.6
		c-0.1,0-0.2,0-0.2,0H77.4l-0.9-4.3c-0.5-2.3-2.6-4-4.9-4h-2.9c-0.8,0-1.4,0.6-1.4,1.4C67.2,101.1,67.8,101.7,68.6,101.8L68.6,101.8
		L68.6,101.8z M80,119.5h6.4l0.9,6.7h-5.8L80,119.5z M97.7,126.2v-6.7h5.8l-0.9,6.7H97.7z M97.7,116.7V110h7l-0.9,6.7H97.7z
		 M94.9,116.7h-6.1l-0.9-6.7h7V116.7z M94.9,119.5v6.7H90l-0.9-6.7H94.9z M109.9,126.2h-4.5l0.9-6.7h6.1l-0.9,5.4
		C111.3,125.6,110.6,126.2,109.9,126.2z M112.8,116.7h-6.3l0.9-6.7h6.6L112.8,116.7z M85.2,110l0.9,6.7h-6.7L78,110H85.2z
		 M83.9,147.1c0,2.8,2.3,5.1,5.1,5.1s5.1-2.3,5.1-5.1S91.8,142,89,142S83.9,144.3,83.9,147.1z M91.4,147.1c0,1.3-1.1,2.4-2.4,2.4
		s-2.4-1.1-2.4-2.4s1.1-2.4,2.4-2.4C90.3,144.8,91.3,145.8,91.4,147.1L91.4,147.1z M104.4,142c-2.8,0-5.1,2.3-5.1,5.1
		s2.3,5.1,5.1,5.1c2.8,0,5.1-2.3,5.1-5.1S107.2,142,104.4,142L104.4,142L104.4,142z M104.4,149.5c-1.3,0-2.4-1.1-2.4-2.4
		s1.1-2.4,2.4-2.4s2.4,1.1,2.4,2.4S105.7,149.5,104.4,149.5L104.4,149.5L104.4,149.5z"/>
	<path class="st14" d="M211.8,121.2l-6,5.5c0.9,2.4,1,5.1,0.3,7.6c-0.2,0.7-0.9,1.2-1.7,1c-0.7-0.2-1.2-0.9-1-1.7v-0.1
		c0.6-2.2,0.4-4.5-0.6-6.6c-0.3-0.5-0.1-1.2,0.3-1.6l6.7-6.1c0.8-0.7,0.8-1.9,0.1-2.7l0,0c-0.7-0.7-1.8-0.8-2.6-0.1l-10.5,8.8
		c-0.5,0.5-1.4,0.6-1.9,0c-0.6-0.5-0.6-1.4,0-1.9c0.1-0.1,0.1-0.1,0.2-0.2l10.5-8.8c1.9-1.6,4.6-1.4,6.3,0.3
		C213.8,116.4,213.7,119.3,211.8,121.2C211.9,121.1,211.8,121.2,211.8,121.2z M207.5,146.2c-0.8,0-1.4,0.6-1.4,1.4
		c0,0.8,0.6,1.4,1.4,1.4s1.4-0.6,1.4-1.4S208.3,146.2,207.5,146.2z M202.5,113c0.1,0,0.2,0,0.3,0c3.3-0.8,5.9-3.3,6.6-6.6
		c0.2-0.7-0.3-1.5-1-1.6c-0.7-0.2-1.5,0.3-1.7,1c-0.5,2.3-2.3,4-4.6,4.5c-0.7,0.2-1.1,1-0.9,1.7C201.4,112.6,201.9,113,202.5,113z
		 M233.7,116.7c-2.9,1-5.1,3.4-5.8,6.4c-0.2,0.7,0.3,1.5,1,1.6c0.7,0.2,1.5-0.3,1.6-1c0.5-2.1,2-3.7,4-4.4c0.7-0.2,1.1-1,0.9-1.7
		C235.2,116.8,234.4,116.5,233.7,116.7L233.7,116.7z M234.6,110.1c-2-0.7-3.5-2.3-4-4.4c-0.2-0.7-0.9-1.2-1.6-1
		c-0.7,0.2-1.2,0.9-1,1.6c0.7,3,2.9,5.4,5.8,6.4c0.7,0.2,1.5-0.2,1.7-0.9C235.7,111.2,235.3,110.4,234.6,110.1L234.6,110.1
		L234.6,110.1z M237.4,100.1h-37.6c-1.9,0-3.4,1.5-3.4,3.4v6.5l-4,4c-2.1,2-3.2,4.8-3.2,7.7v19.7h-1c-0.8,0-1.4,0.6-1.4,1.4l0,0v8.1
		c0,0.8,0.6,1.4,1.4,1.4c0.8,0,1.4-0.6,1.4-1.4V144h22.8v6.7c0,0.8,0.6,1.4,1.4,1.4c0.8,0,1.4-0.6,1.4-1.4v-8.1
		c0-0.8-0.6-1.4-1.4-1.4h-2V140c2.5-1.8,4.1-4.5,4.5-7.5c0.1-0.8-0.4-1.4-1.2-1.5s-1.5,0.4-1.6,1.2c-0.3,2.5-1.7,4.7-3.9,6
		c-0.4,0.3-0.6,0.7-0.6,1.1v2h-17v-19.7c0-2.2,0.9-4.2,2.4-5.8l2.1-2v2.7c0,0.8,0.6,1.4,1.4,1.4c0.8,0,1.4-0.6,1.4-1.4v-13
		c0-0.4,0.3-0.7,0.7-0.7l0,0h37.6c0.4,0,0.7,0.3,0.7,0.7V126c0,0.4-0.3,0.7-0.7,0.7h-26.9c-0.8,0-1.4,0.6-1.4,1.4
		c0,0.8,0.6,1.4,1.4,1.4h26.9c1.9,0,3.4-1.5,3.4-3.4v-22.5C240.9,101.6,239.3,100.1,237.4,100.1L237.4,100.1z M235.8,131.6
		c-0.7-0.3-1.5,0.1-1.8,0.8l0,0l-0.9,2.4c-0.1,0.3-0.5,0.5-0.9,0.4l-11.6-4.2c-0.7-0.3-1.5,0.1-1.8,0.8s0.1,1.5,0.8,1.8l11.7,4.2
		c1.8,0.7,3.7-0.2,4.4-2l0,0l0.9-2.4C236.9,132.6,236.5,131.8,235.8,131.6L235.8,131.6z M228.7,140.3l-1.8,1.8
		c-0.1,0.1-0.3,0.2-0.5,0.2s-0.3-0.1-0.5-0.2l-6.8-6.4c-0.6-0.5-1.4-0.5-1.9,0.1c-0.5,0.5-0.5,1.4,0.1,1.9l6.8,6.4
		c0.6,0.6,1.5,0.9,2.4,0.9h0.1c0.9,0,1.8-0.4,2.4-1.1l1.8-1.8c0.5-0.5,0.5-1.4-0.1-1.9C230.1,139.7,229.2,139.7,228.7,140.3
		L228.7,140.3L228.7,140.3z M217.5,118.2c-0.7-0.2-1.5,0.1-1.8,0.8c-0.2,0.7,0.1,1.4,0.8,1.7c3.4,1.3,7.2-0.4,8.4-3.7
		c1.3-3.3-0.4-7.1-3.8-8.4c-2.7-1-5.8-0.2-7.5,2.1c-0.5,0.6-0.3,1.5,0.3,1.9c0.6,0.5,1.5,0.3,1.9-0.3c1.3-1.6,3.6-2,5.3-0.7
		s2,3.6,0.7,5.3C220.8,118.3,219,118.8,217.5,118.2L217.5,118.2z M226.7,114.7c0,0.8,0.6,1.4,1.4,1.4h2c0.8,0,1.4-0.6,1.4-1.4
		s-0.6-1.4-1.4-1.4h-2C227.3,113.4,226.7,114,226.7,114.7L226.7,114.7z"/>
	<path class="st14" d="M250.4,133.3l4.7-1.2l4,16.2l-4.7,1.2c-0.7,0.2-1.2,0.9-1,1.6c0.2,0.7,0.9,1.2,1.6,1c0,0,0,0,0.1,0l6-1.5
		c0.7-0.2,1.1-0.9,1-1.6l-0.3-1.1l0.1-0.1l2.2-2.2h15.6c2.6,0,5-1,6.9-2.8l12.6-12.6c1.9-1.7,2.1-4.6,0.5-6.5s-4.6-2.2-6.5-0.5
		c-0.2,0.2-0.3,0.3-0.5,0.5l-7,7c-0.7-1.7-2.4-2.9-4.2-2.9H266c-3.1,0-6,1.2-8.2,3.4l-0.1,0.1l-0.3-1.2c-0.2-0.7-0.9-1.2-1.6-1
		l-6,1.5c-0.7,0.1-1.2,0.9-1,1.6C248.9,132.9,249.7,133.4,250.4,133.3C250.3,133.3,250.4,133.3,250.4,133.3z M259.7,133.1
		c1.7-1.7,3.9-2.6,6.3-2.6h15.3c1,0,1.9,0.8,1.9,1.9c0,1-0.8,1.9-1.9,1.9l0,0h-9.6c-0.7,0-1.4,0.6-1.4,1.4c0,0.7,0.6,1.4,1.4,1.4
		h9.6c1.3,0,2.6-0.6,3.4-1.6l0,0l9.7-9.9c0.7-0.7,2-0.7,2.7,0s0.7,2,0,2.7l-12.6,12.6c-1.3,1.3-3.1,2.1-4.9,2h-16.1
		c-0.4,0-0.7,0.1-1,0.4l-1.5,1.5l-2.6-10.4L259.7,133.1z M253.5,145.7c-0.2-0.7,0.3-1.5,1-1.6c0.7-0.2,1.5,0.3,1.6,1
		c0.2,0.7-0.3,1.5-1,1.6l0,0c-0.1,0-0.2,0-0.3,0C254.2,146.7,253.7,146.3,253.5,145.7z M257.9,118.5c-0.5-0.6-0.4-1.4,0.1-1.9l0,0
		l10.9-9.7c0.4-0.4,1.1-0.4,1.5-0.1l6.3,3.5l8.4-8.4H283c-0.7,0-1.4-0.6-1.4-1.4s0.6-1.4,1.4-1.4h5.3c0.7,0,1.3,0.6,1.3,1.4v5.3
		c0,0.7-0.6,1.4-1.3,1.4l0,0c-0.7,0-1.4-0.6-1.4-1.4v-2l-9.1,9.1c-0.4,0.4-1.1,0.5-1.6,0.2l-6.3-3.6l-10.2,9.1
		C259.2,119.1,258.4,119.1,257.9,118.5L257.9,118.5L257.9,118.5z M287.1,111.5v12.1c0,0.7-0.6,1.4-1.4,1.4c-0.7,0-1.3-0.6-1.3-1.4
		v-12.1c0-0.7,0.6-1.4,1.3-1.4C286.5,110.2,287.1,110.8,287.1,111.5L287.1,111.5z M278.1,115.8c0.7,0,1.4,0.6,1.4,1.4v6.5
		c0,0.7-0.6,1.4-1.4,1.4c-0.7,0-1.3-0.6-1.3-1.4v-6.5C276.8,116.4,277.4,115.8,278.1,115.8z M270.5,114.1c0.7,0,1.4,0.6,1.4,1.4v8.3
		c0,0.7-0.6,1.4-1.4,1.4c-0.7,0-1.4-0.6-1.4-1.4v-8.3C269.1,114.6,269.7,114.1,270.5,114.1z M262.9,120.2c0.7,0,1.4,0.6,1.4,1.4v2.2
		c0,0.7-0.6,1.4-1.4,1.4c-0.7,0-1.3-0.6-1.3-1.4v-2.2C261.5,120.8,262.1,120.2,262.9,120.2z"/>
	<path class="st14" d="M330.4,123.3c0,2.8,1.5,5.4,3.9,7c-0.9,1.5-2.2,2.8-3.8,3.7l-0.1-0.1c-1.6-1.3-4-1.2-5.4,0.3
		c-0.7,0.7-1,1.7-1,2.7l0,0c0.1,1.9,1.8,3.4,3.8,3.4h0.2c2.1-0.1,3.7-1.9,3.6-3.9l0,0c2.2-1.2,3.9-2.9,5.1-5
		c4.7,1.3,9.7-1.2,11.1-5.8c1.1-3.7-0.4-7.6-3.8-9.7c0-4.9-0.4-9.7-0.9-14.5c-0.1-0.6-0.5-1-1.1-1.1c-0.9-0.2-1.8-0.3-2.7-0.4
		c-1.4-0.1-2.7,0-4.1,0.1c-0.8,0.1-1.3,0.8-1.2,1.5c0.6,4.7,1,9.4,1,14.1C332.2,117.3,330.4,120.2,330.4,123.3z M327.9,137.7
		c-0.6,0-1.1-0.4-1.1-0.9s0.4-1,1-1s1,0.4,1.1,0.9C328.9,137.2,328.5,137.7,327.9,137.7L327.9,137.7z M337.1,102.7
		c0.7,0,1.4,0,2.1,0c0.4,0,0.9,0.1,1.3,0.1c0.4,3.5,0.7,8.2,0.8,12.1c-1.1-0.2-2.3-0.3-3.4-0.1C337.8,111.1,337.5,106.3,337.1,102.7
		z M339.3,117.4c3.4,0,6.2,2.6,6.2,5.9s-2.8,5.9-6.2,5.9s-6.2-2.6-6.2-5.9C333.1,120.1,335.9,117.4,339.3,117.4z"/>
	<g>
		<path class="st14" d="M1,154v129h129V154H1z M120.8,236.2l-38,38.2c-9.6,9.6-25,9.6-34.6,0l-38-38.2c-9.6-9.6-9.6-25.1,0-34.7
			l38-38.2c9.5-9.6,25-9.6,34.6,0l38,38.2C130.4,211,130.4,226.6,120.8,236.2z"/>
	</g>
	<g>
		<g>
			<path d="M2.6,361.2h2.7c0.3,1.2,1.3,2,2.5,2s2.3-0.9,2.5-2h13c0.3,0,0.6-0.3,0.6-0.7s-0.3-0.7-0.6-0.7h-13
				c-0.3-1-1.3-1.8-2.5-1.8s-2.1,0.8-2.5,1.9H2.6c-0.3,0-0.6,0.3-0.6,0.7C2,360.9,2.3,361.2,2.6,361.2z M7.8,359.3
				c0.7,0,1.3,0.6,1.3,1.3c0,0.7-0.6,1.3-1.3,1.3s-1.3-0.6-1.3-1.3S7.1,359.3,7.8,359.3z M23.4,367.3H22c-0.3-1.1-1.3-1.9-2.5-1.9
				s-2.2,0.8-2.5,1.9H2.6c-0.3,0-0.6,0.3-0.6,0.7c0,0.4,0.3,0.7,0.6,0.7H17c0.3,1.1,1.3,2,2.5,2s2.2-0.8,2.5-2h1.4
				c0.3,0,0.6-0.3,0.6-0.7C24,367.6,23.7,367.3,23.4,367.3z M19.5,369.3c-0.7,0-1.3-0.6-1.3-1.3c0-0.7,0.6-1.3,1.3-1.3
				c0.7,0,1.3,0.6,1.3,1.3C20.8,368.7,20.2,369.3,19.5,369.3z M23.4,374.7h-9.6c-0.3-1.1-1.3-1.9-2.5-1.9s-2.2,0.8-2.5,1.9H2.6
				c-0.3,0-0.6,0.3-0.6,0.7s0.3,0.7,0.6,0.7h6.1c0.3,1.1,1.3,2,2.5,2s2.2-0.9,2.5-2h9.6c0.3,0,0.6-0.3,0.6-0.7
				S23.7,374.7,23.4,374.7z M11.2,376.7c-0.7,0-1.3-0.6-1.3-1.3c0-0.7,0.6-1.3,1.3-1.3s1.3,0.6,1.3,1.3S12,376.7,11.2,376.7z"/>
		</g>
	</g>
	<path d="M38,358c-0.4,0-0.7,0.3-0.7,0.7l0,0v13.4l-3.4-3.2c-0.3-0.3-0.7-0.3-1,0s-0.3,0.7,0,1c0,0,0,0,0.1,0.1l4.5,4.3
		c0.3,0.2,0.7,0.2,0.9,0l4.5-4.3c0.3-0.3,0.3-0.7,0-1c-0.1-0.2-0.4-0.2-0.6-0.2c-0.2,0-0.3,0.1-0.4,0.2l-3.4,3.2v-13.4
		C38.7,358.3,38.4,358,38,358L38,358L38,358z M28.7,369.4c-0.4,0-0.7,0.3-0.7,0.7l0,0v5.2c0,1.5,1.4,2.7,3,2.7h14c1.6,0,3-1.2,3-2.7
		v-1.1c0-0.4-0.3-0.7-0.7-0.7s-0.7,0.3-0.7,0.7l0,0v1.1c0,0.7-0.7,1.4-1.6,1.4H31c-0.9,0-1.6-0.7-1.6-1.4v-5.2
		C29.4,369.7,29.1,369.4,28.7,369.4L28.7,369.4L28.7,369.4z M47.3,369.4c-0.4,0-0.7,0.3-0.7,0.7l0,0v1.8c0,0.4,0.3,0.7,0.7,0.7
		s0.7-0.3,0.7-0.7l0,0V370C48,369.7,47.7,369.4,47.3,369.4L47.3,369.4z"/>
	<path d="M71,375.3l-4.3-4.3c0.9-1.1,1.5-2.4,1.5-4c0-3.4-2.7-6.1-6.1-6.1S56,363.6,56,367s2.7,6.1,6.1,6.1c1.5,0,2.9-0.6,4-1.5
		l4.3,4.3L71,375.3z M56.9,367.1c0-2.8,2.3-5.2,5.2-5.2c2.9,0,5.2,2.3,5.2,5.2s-2.3,5.2-5.2,5.2C59.3,372.2,56.9,369.9,56.9,367.1z"
		/>
	<path d="M95,368c0,1.9-0.7,3.6-2.1,4.9c-1.4,1.4-3,2.1-4.9,2.1s-3.6-0.7-4.9-2.1c-1.4-1.4-2.1-3-2.1-4.9s0.7-3.6,2.1-4.9
		c1.4-1.4,3-2.1,4.9-2.1s3.6,0.7,4.9,2.1C94.3,364.4,95,366.1,95,368z M94.1,368c0-1.7-0.6-3.1-1.8-4.3c-1.2-1.2-2.6-1.8-4.3-1.8
		s-3.1,0.6-4.3,1.8c-1.2,1.2-1.8,2.6-1.8,4.3c0,1.7,0.6,3.1,1.8,4.3c1.2,1.2,2.6,1.8,4.3,1.8s3.1-0.6,4.3-1.8S94.1,369.7,94.1,368
		L94.1,368z M90.5,366.1l-1.9,1.9l1.9,1.9c0.2,0.2,0.2,0.4,0,0.6s-0.4,0.2-0.6,0l-1.9-1.9l-1.9,1.9c-0.2,0.2-0.4,0.2-0.6,0
		s-0.2-0.4,0-0.6l1.9-1.9l-1.9-1.9c-0.2-0.2-0.2-0.4,0-0.6s0.4-0.2,0.6,0l1.9,1.9l1.9-1.9c0.2-0.2,0.4-0.2,0.6,0
		S90.7,365.9,90.5,366.1L90.5,366.1z"/>
	<path d="M120,368c0,1.9-0.7,3.6-2.1,4.9c-1.4,1.4-3,2.1-4.9,2.1s-3.6-0.7-4.9-2.1c-1.4-1.4-2.1-3-2.1-4.9s0.7-3.6,2.1-4.9
		c1.4-1.4,3-2.1,4.9-2.1s3.6,0.7,4.9,2.1C119.3,364.4,120,366.1,120,368z M119.1,368c0-1.7-0.6-3.1-1.8-4.3
		c-1.2-1.2-2.6-1.8-4.3-1.8s-3.1,0.6-4.3,1.8c-1.2,1.2-1.8,2.6-1.8,4.3c0,1.7,0.6,3.1,1.8,4.3c1.2,1.2,2.6,1.8,4.3,1.8
		s3.1-0.6,4.3-1.8S119.1,369.7,119.1,368L119.1,368z M116.1,368.4h-2.6v2.6c0,0.3-0.1,0.4-0.4,0.4s-0.4-0.1-0.4-0.4v-2.6h-2.6
		c-0.3,0-0.4-0.1-0.4-0.4s0.1-0.4,0.4-0.4h2.6V365c0-0.3,0.1-0.4,0.4-0.4s0.4,0.1,0.4,0.4v2.6h2.6c0.3,0,0.4,0.1,0.4,0.4
		S116.4,368.4,116.1,368.4L116.1,368.4z"/>
	<g>
		<g>
			<path d="M131.5,366.6c0.6-2.7,3.1-4.7,6-4.7c1.9,0,3.7,0.9,4.9,2.4v0.1h1.1l-0.1-0.2c-1.3-2-3.5-3.2-5.9-3.2
				c-3.4,0-6.3,2.4-6.9,5.6H129l1.9,2.2l1.9-2.2L131.5,366.6L131.5,366.6z M144.1,366.5l-1.9,2.2h1.4c-0.4,3-3,5.3-6.1,5.3
				c-2.2,0-4.2-1.2-5.3-3v-0.1h-1l0.1,0.2c1.2,2.3,3.6,3.8,6.3,3.8c3.6,0,6.6-2.7,7-6.2h1.5L144.1,366.5z"/>
		</g>
	</g>
	<path d="M165.3,372.4c3.2-0.2,6.1-1.3,8.8-2.5c-1.9,1.2-11.2,5.9-11.3,2.7c0-0.4,0.2-0.8,0.5-1.3s0.7-0.9,1.1-1.4
		c0.6-0.8,2.2-2.5,2.8-3.6c0.1-0.2,0.2-0.4,0.2-0.6c0.1-1-1.2-1.4-3-1.9L164,364l0.7,0.6c-3.1,0.5-4.9,1.1-7.2,1.9l0.3,0.8l-1.1,1.1
		c0.2,0,2.2,0.7,4.2-0.7l0,0l0,0c-0.1-0.1-0.2-0.2-0.4-0.4c0.6,0,1,0.6,0.9,1.1h-0.3c0-0.2,0-0.4-0.1-0.5c-1.6,1.2-3.4,1.3-5,0.8
		v1.4c-0.8,0.3-2.1,1.1-2.1,1.9c0.1,0.4,0.2,0.5,0.4,0.6c1.7,1,6.4-0.4,6.4-0.4c-1.7,0.9-3.3,1.6-5.8,1.7c-3.3-0.1-3.7-2.2-2.2-4.5
		s3.7-4.3,7.4-5.6c1.1-0.4,2.6-0.8,4.1-0.8c2.2,0,4.3,0.6,4.1,2.8c-0.1,1.6-2.4,3.8-3.6,5.5C164.5,371.9,164.4,372.4,165.3,372.4
		L165.3,372.4L165.3,372.4z M167.3,365c0.1,0.2,0.1,0.4,0.1,0.6C167.4,365.4,167.4,365.2,167.3,365L167.3,365z"/>
	<g>
		<g>
			<path d="M8.8,385L6,387.9h6L8.8,385z M8.8,393l3.2-2.9H6L8.8,393z"/>
		</g>
	</g>
	<path class="st17" d="M9.5,401l1.8,3.1l3.7,0.7l-2.6,2.6l0.5,3.6l-3.4-1.5L6.1,411l0.5-3.6L4,404.8l3.7-0.7L9.5,401"/>
	<rect x="18" y="398" class="st3" width="16" height="16"/>
	<path class="st18" d="M26.5,401l1.8,3.1l3.7,0.7l-2.6,2.6l0.5,3.6l-3.4-1.5l-3.4,1.5l0.5-3.6l-2.6-2.6l3.7-0.7L26.5,401"/>
	<rect x="18" y="415" class="st3" width="16" height="16"/>
	<rect x="35" y="415" class="st3" width="16" height="16"/>
	<path d="M12.1,439.1l6.5-6.6c0.3-0.3,0.3-0.8,0-1.1c-0.3-0.3-0.8-0.3-1.1,0L11,438l-6.7-6.6c-0.3-0.3-0.8-0.3-1.1,0s-0.3,0.8,0,1.1
		l6.7,6.6l-6.7,6.6c-0.3,0.3-0.3,0.8,0,1.1c0.1,0.2,0.3,0.2,0.5,0.2s0.4-0.1,0.5-0.2l6.7-6.6l6.4,6.6c0.1,0.2,0.3,0.2,0.5,0.2
		s0.4-0.1,0.5-0.2c0.3-0.3,0.3-0.8,0-1.1L12.1,439.1z"/>
</g>
<g id="Shape_14_1_" class="st8">
</g>
<g id="Shape_14_copy_1_" class="st8">
	<g>
		<g>
			<path d="M369.4,352.7c-0.3,0-0.5-0.1-0.7-0.3l-6.4-6.2c-0.4-0.4-0.4-1,0-1.3c0.4-0.4,1-0.4,1.4,0l6.4,6.2c0.4,0.4,0.4,1,0,1.3
				C369.9,352.6,369.7,352.7,369.4,352.7z"/>
		</g>
		<g>
			<path d="M315.1,342.3c-0.3,0-0.5-0.1-0.7-0.3l-6.4-6.2c-0.4-0.4-0.4-1,0-1.3c0.4-0.4,1-0.4,1.4,0l6.4,6.2c0.4,0.4,0.4,1,0,1.3
				C315.6,342.2,315.3,342.3,315.1,342.3z"/>
		</g>
		<g>
			<path d="M318.7,309c-0.3,0-0.5-0.1-0.7-0.3l-3.6-3.5c-0.4-0.4-0.4-1,0-1.3c0.4-0.4,1-0.4,1.4,0l3.6,3.5c0.4,0.4,0.4,1,0,1.3
				C319.2,308.9,319,309,318.7,309z"/>
		</g>
		<g>
			<path d="M366.3,319.3c-0.3,0-0.5-0.1-0.7-0.3l-1.1-1.1c-0.4-0.4-0.4-1,0-1.3c0.4-0.4,1-0.4,1.4,0l1.1,1.1c0.4,0.4,0.4,1,0,1.3
				C366.8,319.2,366.6,319.3,366.3,319.3z"/>
		</g>
		<g>
			<path d="M306.5,333.7c-0.3,0-0.5-0.1-0.7-0.3l-1.1-1.1c-0.4-0.4-0.4-1,0-1.3c0.4-0.4,1-0.4,1.4,0l1.1,1.1c0.4,0.4,0.4,1,0,1.3
				C307,333.6,306.8,333.7,306.5,333.7z"/>
		</g>
	</g>
</g>
<g id="Layer_6">
	<g>
		<g>
			<g>
				<path class="st0" d="M408.2,332.7l-2.3-1.3c0.1-0.3,0.2-0.6,0.2-1v-2.5c0-1.5-1.2-2.7-2.7-2.7v0.7l-0.1-0.3l0.1,2.9v3.2l0,0
					L408.2,332.7l-0.1,4.6l-4.1,1.4v7.2l0.6,0.2c1,0,1.9-0.6,2.4-1.5c0.2-0.4,0.3-0.8,0.3-1.2v-2.5c0-0.6-0.2-1.1-0.4-1.5h2.7
					c1.5,0,2.7-1.2,2.7-2.7v-2.5C412.2,332.6,409.7,332.7,408.2,332.7z"/>
			</g>
			<g>
				<path class="st0" d="M433.1,309.8l-19-17.1c-1-0.9-2.6-0.8-3.4,0.2l-12.2,11.7l-0.8,1c-0.2,0.2-0.3,0.4-0.4,0.7
					c-0.2,0.6,0,1.4,0.5,1.9l3.4,3.2l0.3,0.3h0.4l31.3,0.1v-0.3c0,0,1,0,1.3,0.1V311L433.1,309.8z"/>
			</g>
		</g>
		<g>
			<g>
				<path class="st3" d="M408.3,336.2v-2.5c0-0.7-0.5-1.2-1.2-1.2h-5c-0.3,0.2-0.7,0.2-1.1,0.2h-10.7c-0.3,0.2-0.5,0.6-0.5,1v2.5
					c0,0.7,0.5,1.2,1.2,1.2h16C407.8,337.4,408.3,336.9,408.3,336.2z"/>
			</g>
			<g>
				<path class="st3" d="M403.4,342.9v-2.5c0-0.7-0.5-1.2-1.2-1.2h-12.6h-1.5h-2c-0.7,0-1.2,0.6-1.2,1.2v2.5c0,0.7,0.5,1.2,1.2,1.2
					h2h1.5h12.6C402.8,344.1,403.4,343.6,403.4,342.9z"/>
			</g>
			<g>
				<path class="st3" d="M393.3,307.9c-0.6-0.5-0.8-1.3-0.6-2c0.1-0.3,0.2-0.5,0.4-0.8l1.1-1.3l0.9-1h-0.3h-1.3
					c-2.3,0-4.1,1.9-4.1,4.2v4.4h7.6L393.3,307.9z"/>
			</g>
			<g>
				<path class="st3" d="M397.7,302l-0.6,0.8l-1.5,1.7l-1.4,1.6v0.1c-0.1,0.2-0.1,0.4,0.1,0.6l4.8,4.4h8.4h25.8l-9.9-9.4h0.1
					l-0.6-0.5l-12.3-11.5c-0.5-0.4-1.3-0.4-1.7,0.1l-10.7,11.4L397.7,302L397.7,302z"/>
			</g>
			<g>
				<path class="st3" d="M434,309.7L434,309.7V307c0-2.3-1.9-4.2-4.1-4.2h-3.2h-0.1L434,309.7z"/>
			</g>
			<g>
				<path class="st3" d="M389.9,331.2c0.3-0.2,0.7-0.2,1.1-0.2h10.7c0.3-0.2,0.5-0.6,0.5-1v-2.5c0-0.7-0.5-1.2-1.2-1.2h-11.4h-1.5
					H385c-0.7,0-1.2,0.6-1.2,1.2v2.5c0,0.7,0.5,1.2,1.2,1.2h3.2h1.5H389.9z"/>
			</g>
			<g>
				<path class="st3" d="M435.2,313h-0.1c-0.3-0.1-0.4-0.1,0.1-0.1h-44.7l-0.6,0.2l-0.4,0.1v11.6H401c1.5,0,2.7,1.2,2.7,2.7v2.5
					c0,0.4-0.1,0.7-0.2,1h3.6c1.5,0,2.7,1.2,2.7,2.7v2.5c0,1.5-1.2,2.7-2.7,2.7h-2.7c0.3,0.4,0.4,0.9,0.4,1.5v2.5
					c0,0.4-0.1,0.9-0.3,1.2h29.7c2.3,0,4.1-1.9,4.1-4.2v-22.8C438.4,315.1,437,313.4,435.2,313z M398.6,319H394
					c-0.4,0-0.7-0.3-0.7-0.7s0.3-0.7,0.7-0.7h4.5c0.4,0,0.7,0.3,0.7,0.7S399,319,398.6,319z M408,318.8h-4.5c-0.4,0-0.7-0.3-0.7-0.7
					c0-0.4,0.3-0.7,0.7-0.7h4.5c0.4,0,0.7,0.3,0.7,0.7S408.4,318.8,408,318.8z M417.1,318.8h-4.5c-0.4,0-0.7-0.3-0.7-0.7
					c0-0.4,0.3-0.7,0.7-0.7h4.5c0.4,0,0.7,0.3,0.7,0.7C417.8,318.5,417.5,318.8,417.1,318.8z M425.8,318.8h-4.5
					c-0.4,0-0.7-0.3-0.7-0.7c0-0.4,0.3-0.7,0.7-0.7h4.5c0.4,0,0.7,0.3,0.7,0.7S426.2,318.8,425.8,318.8z M435.1,318.8h-4.5
					c-0.4,0-0.7-0.3-0.7-0.7c0-0.4,0.3-0.7,0.7-0.7h4.5c0.4,0,0.7,0.3,0.7,0.7C435.8,318.5,435.5,318.8,435.1,318.8z"/>
			</g>
			<g>
				<g>
					<path d="M436.2,311.7l-0.2-0.2c0,0,0,0-0.1-0.1l-0.5-0.5v-4c0-3.1-2.5-5.7-5.6-5.7H425l-13.4-12.6c-1.1-1-2.8-0.9-3.8,0.2
						l-11.6,12.4h-2.7c-3.1,0-5.6,2.6-5.6,5.7v5.5c0,0.2,0.1,0.3,0.2,0.4v11.9H385c-1.5,0-2.7,1.2-2.7,2.7v2.5
						c0,1.5,1.2,2.7,2.7,2.7h3.2h0.4c-0.1,0.3-0.2,0.6-0.2,1v2.5c0,0.6,0.2,1.1,0.4,1.5h-0.7h-2c-1.5,0-2.7,1.2-2.7,2.7v2.5
						c0,1.5,1.2,2.7,2.7,2.7h2h14h32.1c3.1,0,5.6-2.6,5.6-5.7V317C439.8,314.6,438.3,312.6,436.2,311.7z M429.9,302.8
						c2.3,0,4.1,1.9,4.1,4.2v2.7l0,0l-7.5-6.9h0.1L429.9,302.8L429.9,302.8z M408.9,289.9c0.4-0.5,1.2-0.5,1.7-0.1l12.3,11.5
						l0.6,0.5h-0.1l9.9,9.4h-25.8h-8.4l-4.8-4.4c-0.2-0.2-0.2-0.4-0.1-0.6v-0.1l1.4-1.6l1.5-1.7l0.6-0.8l-0.1-0.1l0.6-0.6
						L408.9,289.9z M389.4,307c0-2.3,1.9-4.2,4.1-4.2h1.3h0.3l-0.9,1l-1.1,1.3c-0.2,0.2-0.3,0.5-0.4,0.8c-0.2,0.7,0,1.5,0.6,2
						l3.7,3.5h-7.6V307L389.4,307z M388.1,331.2H385c-0.7,0-1.2-0.6-1.2-1.2v-2.5c0-0.7,0.5-1.2,1.2-1.2h3.2h1.5H401
						c0.7,0,1.2,0.6,1.2,1.2v2.5c0,0.4-0.2,0.8-0.5,1H391c-0.4,0-0.8,0.1-1.1,0.2h-0.4H388.1z M391,337.4c-0.7,0-1.2-0.6-1.2-1.2
						v-2.5c0-0.4,0.2-0.8,0.5-1H401c0.4,0,0.8-0.1,1.1-0.2h5c0.7,0,1.2,0.6,1.2,1.2v2.5c0,0.7-0.5,1.2-1.2,1.2H391z M389.6,344.1
						h-1.5h-2c-0.7,0-1.2-0.6-1.2-1.2v-2.5c0-0.7,0.5-1.2,1.2-1.2h2h1.5h12.6c0.7,0,1.2,0.6,1.2,1.2v2.5c0,0.7-0.5,1.2-1.2,1.2
						H389.6z M438.4,339.9c0,2.3-1.9,4.2-4.1,4.2h-29.7c0.2-0.4,0.3-0.8,0.3-1.2v-2.5c0-0.6-0.2-1.1-0.4-1.5h2.7
						c1.5,0,2.7-1.2,2.7-2.7v-2.5c0-1.5-1.2-2.7-2.7-2.7h-3.6c0.1-0.3,0.2-0.6,0.2-1v-2.5c0-1.5-1.2-2.7-2.7-2.7h-11.4v-11.6
						l0.4-0.1l0.6-0.2h44.7c-0.6,0-0.4,0-0.1,0.1h0.1c1.8,0.4,3.2,2.1,3.2,4.1L438.4,339.9L438.4,339.9z"/>
				</g>
				<g>
					<path d="M434.2,345.9h-48.1c-1.6,0-2.9-1.3-2.9-3v-2.5c0-1.6,1.3-3,2.9-3h2.3c-0.2-0.4-0.3-0.8-0.3-1.2v-2.5
						c0-0.2,0-0.5,0.1-0.7H385c-1.6,0-2.9-1.3-2.9-3v-2.5c0-1.6,1.3-3,2.9-3h2.9V313c-0.1-0.2-0.2-0.3-0.2-0.5V307
						c0-3.3,2.6-6,5.8-6h2.6l11.6-12.3c0.5-0.5,1.2-0.9,2-0.9c0.8-0.1,1.6,0.2,2.1,0.7l13.4,12.5h4.7c3.2,0,5.8,2.7,5.8,6v3.9
						l0.7,0.6c2.2,0.9,3.7,3.1,3.7,5.5v22.8C440.1,343.2,437.5,345.9,434.2,345.9z M386.1,337.9c-1.3,0-2.4,1.1-2.4,2.5v2.5
						c0,1.4,1.1,2.5,2.4,2.5h48.1c2.9,0,5.3-2.4,5.3-5.5v-22.8c0-2.2-1.4-4.3-3.4-5.1H436l-0.9-0.8V307c0-3-2.4-5.5-5.3-5.5H425
						l-0.1-0.1l-13.4-12.6c-0.4-0.4-1.1-0.6-1.7-0.6c-0.7,0-1.3,0.3-1.7,0.8l-11.7,12.5h-2.8c-2.9,0-5.3,2.4-5.3,5.5v5.5
						c0,0.1,0,0.2,0.1,0.3l0.1,0.1V325H385c-1.3,0-2.4,1.1-2.4,2.5v2.5c0,1.4,1.1,2.5,2.4,2.5h4l-0.1,0.3c-0.1,0.3-0.2,0.6-0.2,0.9
						v2.5c0,0.5,0.1,0.9,0.4,1.4l0.2,0.4L386.1,337.9L386.1,337.9z M434.2,344.4h-30.1l0.2-0.4c0.2-0.4,0.3-0.8,0.3-1.1v-2.5
						c0-0.5-0.1-0.9-0.4-1.4l-0.2-0.4h3.2c1.3,0,2.4-1.1,2.4-2.5v-2.5c0-1.4-1.1-2.5-2.4-2.5h-4l0.1-0.3c0.1-0.3,0.2-0.6,0.2-0.9
						v-2.5c0-1.4-1.1-2.5-2.4-2.5h-11.7v-12l1.2-0.4h44.7v0.1l0,0c2,0.5,3.4,2.3,3.4,4.3v22.8C438.6,342.4,436.7,344.4,434.2,344.4z
						 M404.9,343.9h29.3c2.1,0,3.9-1.8,3.9-4v-22.8c0-1.8-1.2-3.4-3-3.9H435c-0.1,0-0.2,0-0.3-0.1h-44.1l-0.8,0.3v11.2H401
						c1.6,0,2.9,1.3,2.9,3v2.5c0,0.2,0,0.5-0.1,0.7h3.3c1.6,0,2.9,1.3,2.9,3v2.5c0,1.6-1.3,3-2.9,3h-2.3c0.2,0.4,0.3,0.8,0.3,1.2
						v2.5C405.1,343.2,405,343.6,404.9,343.9z M402.2,344.4h-16c-0.8,0-1.5-0.7-1.5-1.5v-2.5c0-0.8,0.7-1.5,1.5-1.5h16
						c0.8,0,1.5,0.7,1.5,1.5v2.5C403.6,343.7,403,344.4,402.2,344.4z M386.1,339.4c-0.5,0-1,0.4-1,1v2.5c0,0.5,0.4,1,1,1h16
						c0.5,0,1-0.4,1-1v-2.5c0-0.5-0.4-1-1-1H386.1z M407.1,337.7h-16c-0.8,0-1.5-0.7-1.5-1.5v-2.5c0-0.5,0.2-0.9,0.6-1.2h0.1H401
						c0.3,0,0.7-0.1,1-0.2h0.1h5c0.8,0,1.5,0.7,1.5,1.5v2.5C408.6,337,407.9,337.7,407.1,337.7z M390.4,333
						c-0.2,0.2-0.4,0.5-0.4,0.7v2.5c0,0.5,0.4,1,1,1h16c0.5,0,1-0.4,1-1v-2.5c0-0.5-0.4-1-1-1h-4.9c-0.4,0.2-0.8,0.2-1.2,0.2
						L390.4,333L390.4,333z M390,331.5h-5c-0.8,0-1.5-0.7-1.5-1.5v-2.5c0-0.8,0.7-1.5,1.5-1.5h16c0.8,0,1.5,0.7,1.5,1.5v2.5
						c0,0.5-0.2,0.9-0.6,1.2h-0.1H391C390.7,331.2,390.4,331.3,390,331.5L390,331.5z M385,326.5c-0.5,0-1,0.4-1,1v2.5
						c0,0.5,0.4,1,1,1h4.9c0.4-0.2,0.8-0.2,1.2-0.2h10.6c0.2-0.2,0.4-0.5,0.4-0.7v-2.5c0-0.5-0.4-1-1-1L385,326.5L385,326.5z
						 M397.7,311.6h-8.5V307c0-2.5,2-4.5,4.4-4.5h2.2l-2.4,2.8c-0.2,0.2-0.3,0.4-0.4,0.7c-0.2,0.6,0,1.3,0.5,1.8L397.7,311.6z
						 M389.7,311.1h6.7l-3.3-3c-0.6-0.6-0.9-1.5-0.6-2.3c0.1-0.3,0.2-0.6,0.5-0.9l1.7-1.9h-1.1c-2.1,0-3.9,1.8-3.9,4L389.7,311.1
						L389.7,311.1z M399,311.5l-4.9-4.5c-0.2-0.2-0.3-0.6-0.2-0.9c0,0,0-0.1,0.1-0.2l3.3-4l-0.1-0.1l11.4-12.2
						c0.3-0.3,0.6-0.5,1-0.5s0.8,0.1,1,0.4l13.3,12.4h-0.1l9.9,9.4L399,311.5z M398,301.9L398,301.9l-3.5,4.3c-0.1,0.1,0,0.2,0,0.3
						l4.7,4.4l33.5-0.1l-9.9-9.3h0.1l-0.1-0.1L410.5,290c-0.2-0.2-0.4-0.2-0.7-0.2c-0.3,0-0.5,0.1-0.7,0.3l0,0L398,301.9z
						 M434.3,310.2l-0.4-0.4l-7.9-7.4h4c2.4,0,4.4,2,4.4,4.5v3.3H434.3z M427.2,303l6.6,6.1V307c0-2.2-1.7-4-3.9-4H427.2z"/>
				</g>
			</g>
			<g>
				<path d="M398.6,317.5H394c-0.4,0-0.7,0.3-0.7,0.7s0.3,0.7,0.7,0.7h4.5c0.4,0,0.7-0.3,0.7-0.7S399,317.5,398.6,317.5z"/>
			</g>
			<g>
				<path d="M408,317.3h-4.5c-0.4,0-0.7,0.3-0.7,0.7c0,0.4,0.3,0.7,0.7,0.7h4.5c0.4,0,0.7-0.3,0.7-0.7
					C408.7,317.7,408.4,317.3,408,317.3z"/>
			</g>
			<g>
				<path d="M417.1,317.3h-4.5c-0.4,0-0.7,0.3-0.7,0.7c0,0.4,0.3,0.7,0.7,0.7h4.5c0.4,0,0.7-0.3,0.7-0.7
					C417.8,317.7,417.5,317.3,417.1,317.3z"/>
			</g>
			<g>
				<path d="M425.8,317.3h-4.5c-0.4,0-0.7,0.3-0.7,0.7c0,0.4,0.3,0.7,0.7,0.7h4.5c0.4,0,0.7-0.3,0.7-0.7
					C426.5,317.7,426.2,317.3,425.8,317.3z"/>
			</g>
			<g>
				<path d="M435.1,317.3h-4.5c-0.4,0-0.7,0.3-0.7,0.7c0,0.4,0.3,0.7,0.7,0.7h4.5c0.4,0,0.7-0.3,0.7-0.7
					C435.8,317.7,435.5,317.3,435.1,317.3z"/>
			</g>
			<g>
				<path d="M441.2,305.9c0.2,0.2,0.4,0.3,0.7,0.3s0.5-0.1,0.7-0.3c0.4-0.4,0.4-1,0-1.4l-9.4-9.6c-0.4-0.4-1-0.4-1.4,0s-0.4,1,0,1.4
					L441.2,305.9z"/>
			</g>
			<g>
				<path d="M448.7,342.9l-6.3-6.5c-0.4-0.4-1-0.4-1.4,0s-0.4,1,0,1.4l6.3,6.5c0.2,0.2,0.4,0.3,0.7,0.3c0.2,0,0.5-0.1,0.7-0.3
					C449.1,343.9,449.1,343.2,448.7,342.9z"/>
			</g>
			<g>
				<path d="M382.4,343.9c-0.4-0.4-1-0.4-1.4,0s-0.4,1,0,1.4l6.3,6.5c0.2,0.2,0.4,0.3,0.7,0.3s0.5-0.1,0.7-0.3c0.4-0.4,0.4-1,0-1.4
					L382.4,343.9z"/>
			</g>
			<g>
				<path d="M439.2,307.3c-0.4-0.4-1-0.4-1.4,0s-0.4,1,0,1.4l6.3,6.5c0.2,0.2,0.4,0.3,0.7,0.3s0.5-0.1,0.7-0.3c0.4-0.4,0.4-1,0-1.4
					L439.2,307.3z"/>
			</g>
			<g>
				<path d="M393.5,299.4c0.2,0.2,0.4,0.3,0.7,0.3s0.5-0.1,0.7-0.3c0.4-0.4,0.4-1,0-1.4l-5.8-6c-0.4-0.4-1-0.4-1.4,0s-0.4,1,0,1.4
					L393.5,299.4z"/>
			</g>
			<g>
				<path d="M443.1,308.2l1.1,1.2c0.2,0.2,0.4,0.3,0.7,0.3s0.5-0.1,0.7-0.3c0.4-0.4,0.4-1,0-1.4l-1.1-1.2c-0.4-0.4-1-0.4-1.4,0
					C442.7,307.2,442.7,307.8,443.1,308.2z"/>
			</g>
			<g>
				<path d="M380.8,341.2l-1.1-1.2c-0.4-0.4-1-0.4-1.4,0s-0.4,1,0,1.4l1.1,1.2c0.2,0.2,0.4,0.3,0.7,0.3s0.5-0.1,0.7-0.3
					C381.2,342.2,381.2,341.6,380.8,341.2z"/>
			</g>
		</g>
	</g>
	<g>
		<g>
			<path class="st0" d="M32.2,311.6c-0.2-0.1-0.3-0.2-0.5-0.2h-6.3c0.5-1.2,1.1-2.4,2-3.4c2.1-2.4,5.1-3.8,8.2-3.8
				c0.4,0,0.7,0,1.1,0.1v8.4c0,0.5,0.4,0.8,0.8,0.8"/>
		</g>
		<g>
			
				<linearGradient id="SVGID_11_" gradientUnits="userSpaceOnUse" x1="8.4" y1="1082.3273" x2="65.9" y2="1082.3273" gradientTransform="matrix(1 0 0 1 0 -758)">
				<stop  offset="0" style="stop-color:#05E6AA"/>
				<stop  offset="1" style="stop-color:#1CC1E4"/>
			</linearGradient>
			<path class="st19" d="M65.6,342.4l-9.1-7.9c-0.3-0.3-0.7-0.4-1.1-0.4c-0.5,0-0.9,0.2-1.3,0.6l-0.9,1c0,0-0.1,1.6,0.6,2.2l9.1,7.9
				c0.4,0.4,1.1,0.3,1.4-0.1l1.3-1.9C66,343.4,66,342.8,65.6,342.4z M16.5,324.4c-0.1-0.1-0.1-0.4-0.1-0.5c0.7-0.3-1.3-2.9-1.4-3.2
				h-3.1c-0.6,0-0.6,0.6-0.6,0s0,0,0.6,0H15v-0.1c-0.1-0.2-0.1-0.5-0.1-0.7c0-0.1,0-0.3-0.1-0.4c0-0.2-0.1-0.5-0.1-0.7
				c0-0.1,0-0.3,0-0.4c0-0.2,0-0.4-0.1-0.7l0,0c0-0.1,0-0.1,0-0.2c0-0.4,0.1-0.7,0.1-1.1l-6.3-0.1v8.8l8.1,0.1
				c0-0.1-0.1-0.2-0.1-0.3C16.2,324.5,16.6,324.7,16.5,324.4z M53.7,309.5c0.1,0.2,0.2,0.5,0.2,0.7c0.1,0.3,0.2,0.6,0.3,0.9
				c0.1,0.2,0.1,0.5,0.2,0.7c0,0.2,0.1,0.3,0.1,0.5h4.4l4.6-4l-1.9-2.2c-0.2-0.8-3.4,1-4.1,0.7l1.5-3.7h-9c0.1,0.2,0.3,0.3,0.4,0.5
				c0.1,0.2,0.3,0.3,0.4,0.5c0.2,0.3,0.4,0.6,0.6,0.9c0.1,0.2,0.3,0.4,0.4,0.6c0.2,0.3,0.4,0.6,0.5,0.9c0.1,0.2,0.2,0.4,0.3,0.6
				c0.2,0.3,0.3,0.6,0.4,0.9c0.1,0.2,0.2,0.5,0.3,0.7C53.5,308.9,53.6,309.2,53.7,309.5z M49.4,303.1h0.5c-0.1-0.2-0.3-0.3-0.4-0.5
				C49.5,302.6,49.4,302.8,49.4,303.1z"/>
		</g>
		<g>
			<path class="st3" d="M58.6,331c-0.3-0.3-0.7-0.4-1.2-0.4s-1,0.2-1.3,0.6l-2.7,3.1c-0.6,0.7-0.6,1.9,0.2,2.5l9.1,7.9
				c0.2,0.2,0.5,0.3,0.7,0.3c0.3,0,0.6-0.1,0.8-0.4l3.6-4.1c0.2-0.2,0.3-0.5,0.3-0.8s-0.2-0.6-0.4-0.8L58.6,331z M67.7,340.3
				l-3.6,4.1c-0.2,0.2-0.4,0.3-0.7,0.3c-0.2,0-0.4-0.1-0.6-0.2l-9.1-7.9c-0.7-0.6-0.7-1.6-0.2-2.2l2.7-3.1c0.3-0.3,0.7-0.5,1.2-0.5
				c0.4,0,0.7,0.1,1,0.4l9.1,7.9c0.2,0.2,0.3,0.4,0.3,0.6C67.9,339.9,67.8,340.1,67.7,340.3z"/>
		</g>
		<g>
			<circle class="st3" cx="29.5" cy="318.3" r="0.4"/>
		</g>
		<g>
			<path class="st3" d="M30.4,310.8l7.7,6.6c0.2,0.2,0.4,0.5,0.4,0.9c0,0.3-0.1,0.6-0.4,0.9l-7.7,6.6c-0.2,0.2-0.5,0.3-0.7,0.3h-2.9
				c2.3,1.6,4.9,2.5,7.7,2.5c3.4,0,6.6-1.3,9-3.6c0.3-0.3,0.7-0.7,1-1c0.3-0.4,0.6-0.8,0.9-1.1c1.9-2.7,2.7-6.1,2.2-9.4H36.8
				c-0.6,0-1.1-0.5-1.1-1.1V302c-0.5,0-0.9-0.1-1.2-0.1c-3.8,0-7.5,1.7-10,4.6c-1,1.2-1.8,2.5-2.4,4h7.6
				C30,310.5,30.2,310.6,30.4,310.8z"/>
		</g>
		<g>
			<path class="st3" d="M21.2,316.2c0,0.2,0,0.4,0.1,0.6v0.1c0,0.1,0,0.2,0,0.3c0,0.2,0.1,0.4,0.1,0.6v0.1c0,0.1,0,0.2,0.1,0.3
				c0,0.2,0.1,0.4,0.2,0.6v0.1c0,0.1,0,0.1,0.1,0.2c0,0.1,0,0.1,0.1,0.2c0,0,0,0,0,0.1H22c0.6,0,1.1,0.5,1.1,1.1
				c0,0.3-0.1,0.6-0.4,0.8l0,0l0.1,0.1c0.1,0.2,0.2,0.5,0.4,0.7c0.1,0.1,0.1,0.2,0.2,0.2l0.1,0.1c0.1,0.2,0.3,0.4,0.4,0.6
				c0.1,0.1,0.2,0.2,0.2,0.3l0.1,0.1c0.1,0.1,0.2,0.2,0.3,0.3h4.9l6.4-5.5l-6.4-5.5h-7.9c0,0,0,0,0,0.1s0,0.2,0,0.3v0.1
				c0,0.2-0.1,0.4-0.1,0.6c0,0.1,0,0.2,0,0.3v0.1c0,0.2,0,0.4,0,0.6c0,0.1,0,0.3,0,0.4c0,0.2,0,0.4,0,0.6
				C21.2,315.9,21.2,316.1,21.2,316.2z M29.5,315.6c1.5,0,2.7,1.2,2.7,2.7S31,321,29.5,321s-2.7-1.2-2.7-2.7S28,315.6,29.5,315.6z"
				/>
		</g>
		<g>
			<path class="st3" d="M52.3,312.4c-0.7-4.2-2.8-8.1-6-10.8c-0.7-0.6-1.5-1.2-2.2-1.7c-2.9-1.8-6.2-2.8-9.6-2.8
				c-5.2,0-10.2,2.3-13.6,6.3c-2.1,2.4-3.5,5.4-4.1,8.5c-0.5,2.4-0.4,4.9,0.1,7.3c0.1,0.4,0.2,0.7,0.3,1c0.4,1.5,1,2.9,1.8,4.1
				c1,1.7,2.2,3.2,3.7,4.5c3.3,2.8,7.5,4.4,11.8,4.4c4.6,0,8.9-1.7,12.3-4.8c0.5-0.4,0.9-0.9,1.4-1.4c0.4-0.5,0.8-1,1.2-1.6
				C52,321.6,53,317,52.3,312.4z M47.3,324c-0.3,0.5-0.7,0.9-1,1.4c-0.4,0.4-0.8,0.8-1.2,1.2c-2.9,2.7-6.6,4.2-10.6,4.2
				c-3.7,0-7.4-1.4-10.2-3.8c-0.5-0.4-0.9-0.8-1.3-1.3l0,0c-1.3-1.4-2.3-3-2.9-4.7l0.1-0.1h-0.1c-1.2-3-1.4-6.4-0.6-9.6
				c0.6-2.4,1.7-4.5,3.3-6.3c3-3.4,7.2-5.4,11.7-5.4c0.8,0,1.7,0.1,2.5,0.2l0,0c1.4,0.2,2.8,0.6,4.1,1.3l0,0c0.7,0.3,1.3,0.7,1.8,1
				c0.6,0.4,1.2,0.8,1.7,1.3c1.3,1.1,2.3,2.4,3.2,3.8c0.7,1.1,1.2,2.3,1.5,3.5c0.1,0.4,0.2,0.8,0.3,1.2
				C50.6,316.2,49.7,320.6,47.3,324z"/>
		</g>
		<g>
			<path class="st3" d="M46.7,310L46.7,310c-0.1-0.2-0.1-0.3-0.2-0.3c-0.1-0.2-0.2-0.4-0.3-0.6V309H41c-0.6,0-1.1-0.5-1.1-1.1
				s0.5-1.1,1.1-1.1h3.7c-0.5-0.6-1-1.1-1.5-1.6c-0.3-0.3-0.7-0.6-1.1-0.9l-0.1-0.1l-0.1-0.1c-0.4-0.2-0.8-0.5-1.1-0.7l-0.1-0.1
				h-0.1c-0.5-0.2-0.9-0.4-1.2-0.6l0,0c-0.4-0.1-0.8-0.3-1.3-0.4l0,0v8.8h9.2l0,0C47,310.7,46.9,310.3,46.7,310z"/>
		</g>
		<g>
			<path class="st3" d="M50.4,327.7c-0.2,0.3-0.4,0.5-0.6,0.7c-0.2,0.2-0.4,0.5-0.6,0.7l3.4,2.9l1.3-1.5L50.4,327.7z"/>
		</g>
		<g>
			<path class="st3" d="M49.2,301.3l0.1,0.1c0.3,0.3,0.6,0.6,0.8,1c0.1,0.1,0.2,0.2,0.2,0.3c0,0.1,0.1,0.1,0.1,0.2l0.1,0.1
				c0.2,0.2,0.4,0.5,0.6,0.8c0.1,0.1,0.2,0.3,0.3,0.4l0.2,0.3c0.2,0.2,0.3,0.5,0.5,0.8c0.1,0.2,0.2,0.3,0.3,0.5l0.1,0.2
				c0.1,0.3,0.3,0.6,0.4,0.9c0.1,0.2,0.2,0.4,0.3,0.6v0.1c0.2,0.4,0.3,0.6,0.4,0.9c0.1,0.2,0.2,0.5,0.2,0.7c0.1,0.3,0.2,0.6,0.3,0.9
				c0.1,0.2,0.1,0.5,0.2,0.8c0,0.1,0,0.1,0,0.2s0,0.1,0,0.2h4.3l6.4-5.5l-6.4-5.5H48c0.4,0.3,0.7,0.6,1,1
				C49.1,301.1,49.2,301.2,49.2,301.3z M58.8,302.9c1.5,0,2.7,1.2,2.7,2.7s-1.2,2.7-2.7,2.7s-2.7-1.2-2.7-2.7S57.3,302.9,58.8,302.9
				z"/>
		</g>
		<g>
			<path class="st3" d="M16.1,323.7c-0.1-0.3-0.3-0.7-0.4-1v-0.1c0-0.1-0.1-0.2-0.1-0.3c-0.1-0.2-0.1-0.4-0.2-0.6h-3.6
				c-0.6,0-1.1-0.5-1.1-1.1s0.5-1.1,1.1-1.1h2.9l0,0c-0.1-0.2-0.1-0.5-0.1-0.7c0-0.1,0-0.2,0-0.3v-0.1c0-0.2-0.1-0.5-0.1-0.7
				c0-0.1,0-0.2,0-0.4v-0.1c0-0.2,0-0.4-0.1-0.7c0-0.1,0-0.3,0-0.4c0-0.2,0-0.5,0-0.7v-0.1c0-0.1,0-0.2,0-0.3c0-0.3,0-0.5,0-0.8
				v-0.1c0-0.1,0-0.1,0-0.2c0-0.3,0.1-0.7,0.1-1H8.6v11h7.5l0,0C16.1,323.7,16.1,323.7,16.1,323.7z"/>
		</g>
		<g>
			<circle class="st3" cx="58.8" cy="305.6" r="0.4"/>
		</g>
		<g>
			<path class="st3" d="M58.5,331.1c-0.3-0.2-0.7-0.4-1-0.4c-0.5,0-0.9,0.2-1.2,0.5l-2.7,3.1c-0.6,0.7-0.5,1.7,0.2,2.2l9.1,7.9
				c0.2,0.1,0.4,0.2,0.6,0.2c0.3,0,0.5-0.1,0.7-0.3l3.6-4.1c0.2-0.2,0.2-0.4,0.2-0.7c0-0.2-0.1-0.5-0.3-0.6L58.5,331.1z M65.1,340.1
				c-0.2,0.2-0.5,0.4-0.9,0.4c-0.3,0-0.5-0.1-0.7-0.3l-5.8-5c-0.2-0.2-0.4-0.5-0.4-0.8s0.1-0.6,0.3-0.8c0.2-0.2,0.5-0.4,0.9-0.4
				c0.3,0,0.5,0.1,0.7,0.3l5.8,5c0.2,0.2,0.4,0.5,0.4,0.8C65.4,339.5,65.3,339.8,65.1,340.1z"/>
		</g>
		<g>
			<path d="M29.5,320.8c1.4,0,2.5-1.1,2.5-2.5s-1.1-2.5-2.5-2.5s-2.5,1.1-2.5,2.5C27,319.6,28.1,320.8,29.5,320.8z M29.5,317.6
				c0.4,0,0.6,0.3,0.6,0.6c0,0.4-0.3,0.6-0.6,0.6c-0.4,0-0.6-0.3-0.6-0.6C28.8,317.9,29.1,317.6,29.5,317.6z"/>
		</g>
		<g>
			<path d="M68.9,337.5l-9.1-7.9c-0.7-0.6-1.5-0.9-2.3-0.9c-0.7,0-1.4,0.2-2,0.6h-0.1h-0.1l-3.9-3.4v-0.1c2.4-3.8,3.4-8.1,3-12.6
				v-0.1H59c0.2,0,0.4-0.1,0.6-0.2l7.7-6.6c0.2-0.2,0.3-0.4,0.3-0.7s-0.1-0.5-0.3-0.7l-7.7-6.6c-0.2-0.1-0.4-0.2-0.6-0.2H44.9l0,0
				c-3.2-1.9-6.8-2.9-10.4-2.9c-5.8,0-11.3,2.5-15.1,7c-2.1,2.5-3.6,5.4-4.4,8.6v0.1H7.5c-0.5,0-0.9,0.4-0.9,0.9v13.3
				c0,0.5,0.4,0.9,0.9,0.9h10l0,0c1,1.7,2.3,3.2,3.8,4.5c3.7,3.2,8.3,4.9,13.2,4.9c4.7,0,9.3-1.7,13-4.8l0.1-0.1l0.1,0.1l3.9,3.4
				v0.1c-0.7,1.5-0.3,3.2,0.9,4.2l9.1,7.9c0.5,0.5,1.2,0.7,1.9,0.7c0.9,0,1.7-0.4,2.2-1l3.6-4.1C70.3,340.4,70.1,338.5,68.9,337.5z
				 M58.7,299.9L58.7,299.9l6.7,5.7l-0.1,0.1l-6.6,5.6h-4.5v-0.1c0-0.1,0-0.2-0.1-0.3c0-0.1,0-0.1-0.1-0.2c-0.1-0.2-0.1-0.5-0.2-0.7
				c-0.1-0.3-0.2-0.6-0.3-0.9c-0.1-0.2-0.2-0.5-0.2-0.7c-0.1-0.3-0.2-0.5-0.4-0.9v-0.1c-0.1-0.2-0.2-0.4-0.3-0.6
				c-0.1-0.3-0.3-0.6-0.4-0.9l-0.1-0.2c-0.1-0.2-0.2-0.3-0.3-0.5c-0.1-0.3-0.3-0.5-0.5-0.7l-0.2-0.3c-0.1-0.1-0.2-0.3-0.3-0.4
				c-0.2-0.3-0.4-0.5-0.6-0.8l-0.1-0.1c0-0.1-0.1-0.1-0.1-0.2c-0.1-0.1-0.2-0.2-0.2-0.3c-0.3-0.3-0.5-0.6-0.8-0.9
				c0-0.1-0.1-0.1-0.1-0.2c-0.1-0.1-0.1-0.1-0.2-0.2c-0.4-0.4-0.8-0.8-1.2-1.2l-0.2-0.2L58.7,299.9L58.7,299.9z M8.4,324v-11.4h6.2
				v0.1c0,0.3-0.1,0.7-0.1,1.1c0,0.1,0,0.1,0,0.2s0,0.1,0,0.2c0,0.3,0,0.5,0,0.8c0,0.1,0,0.2,0,0.3v0.1c0,0.2,0,0.5,0,0.7
				c0,0.1,0,0.3,0,0.4c0,0.2,0,0.4,0.1,0.7v0.1c0,0.1,0,0.2,0,0.4c0,0.2,0.1,0.4,0.1,0.7v0.1c0,0.1,0,0.2,0,0.3
				c0,0.2,0.1,0.5,0.1,0.7c0,0,0,0,0,0.1c0,0,0,0,0,0.1v0.1h-3.2c-0.5,0-0.9,0.4-0.9,0.9s0.4,0.9,0.9,0.9h3.7v0.1
				c0.1,0.2,0.1,0.4,0.2,0.6c0,0.1,0.1,0.2,0.1,0.3v0.1c0.1,0.4,0.3,0.7,0.4,1c0,0,0,0.1,0.1,0.1c0,0,0,0.1,0.1,0.1l0.1,0.1L8.4,324
				L8.4,324z M46.9,328.6c-3.4,3.1-7.8,4.9-12.4,4.9c-4.4,0-8.6-1.6-11.9-4.5c-1.5-1.3-2.8-2.9-3.8-4.5c-0.8-1.3-1.4-2.7-1.8-4.2
				c-0.1-0.3-0.2-0.7-0.3-1c-0.5-2.4-0.6-5-0.1-7.4c0.6-3.1,2-6.1,4.1-8.5c3.5-4,8.5-6.3,13.8-6.3c3.4,0,6.8,1,9.7,2.8
				c0.8,0.5,1.5,1,2.3,1.7c3.3,2.8,5.4,6.7,6.1,11c0.7,4.7-0.3,9.3-3,13.2c-0.4,0.6-0.8,1.1-1.2,1.6
				C47.8,327.6,47.4,328.1,46.9,328.6z M48.9,329.2L48.9,329.2c0.3-0.3,0.5-0.6,0.8-0.9c0.2-0.2,0.4-0.5,0.7-0.8l0.1-0.1l0.1,0.1
				l3.6,3.1l-1.5,1.8L48.9,329.2z M67.8,340.4l-3.6,4.1c-0.2,0.2-0.5,0.4-0.8,0.4s-0.5-0.1-0.7-0.3l-9.1-7.9
				c-0.7-0.6-0.8-1.8-0.2-2.5l2.7-3.1c0.3-0.4,0.8-0.6,1.3-0.6c0.4,0,0.8,0.2,1.2,0.4l9.1,7.9c0.2,0.2,0.4,0.5,0.4,0.8
				C68.1,339.9,68,340.2,67.8,340.4z"/>
		</g>
		<g>
			<path d="M58.8,308.1c1.4,0,2.5-1.1,2.5-2.5s-1.1-2.5-2.5-2.5s-2.5,1.1-2.5,2.5S57.4,308.1,58.8,308.1z M58.8,305
				c0.4,0,0.6,0.3,0.6,0.6s-0.3,0.6-0.6,0.6s-0.6-0.3-0.6-0.6C58.2,305.2,58.5,305,58.8,305z"/>
		</g>
		<g>
			<path class="st3" d="M35.3,318.3l-6.1-5.2h-7.5v0.1v0.1c0,0.2-0.1,0.4-0.1,0.6v0.3c0,0.3,0,0.5,0,0.6s0,0.3,0,0.4
				c0,0.2,0,0.4,0,0.6c0,0.1,0,0.3,0,0.4c0,0.2,0,0.4,0.1,0.6l0.1,0.4c0,0.2,0.1,0.4,0.1,0.6v0.1c0,0.1,0,0.2,0.1,0.3
				c0,0.2,0.1,0.4,0.2,0.6l0.1,0.3c0.7,0.1,1.3,0.7,1.3,1.4c0,0.3-0.1,0.6-0.3,0.9c0.1,0.2,0.2,0.4,0.3,0.6c0,0.1,0.1,0.1,0.1,0.2
				l0.1,0.1c0.1,0.2,0.3,0.4,0.4,0.6c0.1,0.1,0.1,0.2,0.2,0.2l-0.3,0.4l0.4-0.3c0.1,0.1,0.1,0.1,0.2,0.2h4.7L35.3,318.3z"/>
			<path class="st3" d="M46.4,310.1l-0.1-0.3c-0.1-0.2-0.2-0.3-0.3-0.5h-5c-0.8,0-1.4-0.6-1.4-1.4s0.6-1.4,1.4-1.4h3
				c-0.3-0.4-0.7-0.7-1.1-1c-0.3-0.3-0.7-0.5-1.1-0.8l-0.1-0.1L42,304l-0.3,0.4c-0.4-0.2-0.7-0.5-1.1-0.7l-0.2-0.1
				c-0.5-0.2-0.8-0.4-1.2-0.6c-0.3-0.1-0.6-0.2-0.9-0.3v8.1h8.5C46.6,310.6,46.5,310.3,46.4,310.1z"/>
			<path class="st3" d="M36.8,313.7c-0.8,0-1.4-0.6-1.4-1.4v-10c-0.4,0-0.6,0-0.9,0c-3.8,0-7.3,1.6-9.8,4.5
				c-0.9,1.1-1.6,2.2-2.2,3.5h7.2c0.3,0,0.7,0.1,0.9,0.3l7.7,6.6c0.3,0.3,0.5,0.7,0.5,1.1s-0.2,0.8-0.5,1.1l-7.7,6.6
				c-0.3,0.2-0.6,0.3-0.9,0.3h-1.9c2,1.2,4.3,1.9,6.7,1.9c3.3,0,6.4-1.2,8.8-3.5c0.3-0.3,0.7-0.6,1-1s0.6-0.7,0.9-1.1
				c1.8-2.6,2.6-5.8,2.2-8.9H36.8z"/>
			<path d="M50,311.9c-0.1-0.4-0.2-0.9-0.3-1.3c-0.4-1.3-0.9-2.5-1.6-3.6c-0.9-1.5-2-2.8-3.3-3.9c-0.6-0.5-1.1-0.9-1.8-1.3
				c-0.6-0.4-1.2-0.7-1.9-1.1c-1.3-0.6-2.7-1.1-4.2-1.3c-0.8-0.1-1.7-0.2-2.5-0.2c-4.6,0-8.9,2-11.9,5.5c-1.6,1.9-2.8,4.1-3.4,6.5
				c-0.8,3.2-0.6,6.7,0.6,9.8c0.7,1.8,1.7,3.4,3,4.8c0.4,0.4,0.8,0.9,1.3,1.3c2.9,2.5,6.6,3.9,10.4,3.9c4,0,7.8-1.5,10.8-4.2
				c0.4-0.4,0.8-0.8,1.2-1.2c0.4-0.4,0.7-0.9,1.1-1.4C50,320.7,50.9,316.2,50,311.9z M24.3,323.3l-0.1-0.1l0,0
				c-0.1-0.1-0.1-0.2-0.2-0.2c-0.1-0.2-0.3-0.4-0.4-0.6l-0.1-0.1c-0.1-0.1-0.1-0.1-0.1-0.2c-0.1-0.2-0.2-0.4-0.3-0.6
				c0.2-0.2,0.3-0.6,0.3-0.9c0-0.7-0.6-1.4-1.3-1.4l-0.1-0.3c-0.1-0.2-0.1-0.4-0.2-0.6c0-0.1,0-0.2-0.1-0.3v-0.1
				c0-0.2-0.1-0.4-0.1-0.6l-0.1-0.4c0-0.2,0-0.4-0.1-0.6c0-0.1,0-0.3,0-0.4c0-0.2,0-0.4,0-0.6c0-0.1,0-0.3,0-0.4c0-0.2,0-0.4,0-0.6
				V314c0-0.2,0-0.4,0.1-0.6v-0.1v-0.1H29l6.1,5.2l-6.1,5.2h-4.7C24.4,323.4,24.4,323.3,24.3,323.3z"/>
		</g>
		<g>
			<path d="M59.1,333.7c-0.2-0.1-0.4-0.2-0.6-0.2c-0.3,0-0.5,0.1-0.7,0.3c-0.2,0.2-0.2,0.4-0.2,0.7c0,0.2,0.1,0.5,0.3,0.6l5.8,5
				c0.2,0.1,0.4,0.2,0.6,0.2c0.3,0,0.5-0.1,0.7-0.3c0.2-0.2,0.2-0.4,0.2-0.7c0-0.2-0.1-0.5-0.3-0.6L59.1,333.7z"/>
		</g>
		<g>
			<path class="st14" d="M29.5,318.8c0.3,0,0.5-0.2,0.5-0.5s-0.2-0.5-0.5-0.5S29,318,29,318.3C28.9,318.6,29.2,318.8,29.5,318.8z
				 M29.5,317.8c0.2,0,0.4,0.2,0.4,0.4c0,0.2-0.2,0.4-0.4,0.4s-0.4-0.2-0.4-0.4C29,318,29.2,317.8,29.5,317.8z"/>
		</g>
		<g>
			<path class="st14" d="M30.4,310.9l7.7,6.6c0.2,0.2,0.4,0.5,0.4,0.8s-0.1,0.6-0.4,0.8l-7.7,6.6c-0.2,0.2-0.4,0.2-0.7,0.2h-3.2
				c5.1,3.8,12.3,3.5,17.1-0.9c0.3-0.3,0.7-0.7,1-1c0.3-0.4,0.6-0.8,0.9-1.2l0,0c1.9-2.8,2.7-6.2,2.2-9.5H36.8c-0.6,0-1-0.5-1-1
				v-10.4c-0.4,0-0.9-0.1-1.3-0.1c-3.9,0-7.5,1.6-10.1,4.6c-1.1,1.3-1.9,2.7-2.5,4.2h7.8C29.9,310.6,30.2,310.7,30.4,310.9z"/>
		</g>
		<g>
			<path class="st14" d="M46.8,309.9c-0.1-0.1-0.1-0.2-0.2-0.3c-0.1-0.3-0.3-0.5-0.4-0.7H41c-0.6,0-1-0.5-1-1c0-0.6,0.5-1,1-1h3.9
				c-0.5-0.6-1.1-1.2-1.7-1.7c-0.4-0.3-0.7-0.6-1.1-0.9c-0.1,0-0.1-0.1-0.2-0.1c-0.4-0.2-0.8-0.5-1.1-0.7c-0.1,0-0.2-0.1-0.2-0.1
				c-0.4-0.2-0.8-0.4-1.3-0.6l0,0c-0.4-0.2-0.9-0.3-1.3-0.4h-0.1v9h9.4c0-0.1,0-0.1-0.1-0.2C47.1,310.7,47,310.3,46.8,309.9z"/>
		</g>
		<g>
			<path class="st3" d="M58.8,308.3c1.5,0,2.7-1.2,2.7-2.7s-1.2-2.7-2.7-2.7s-2.7,1.2-2.7,2.7C56.1,307.1,57.3,308.3,58.8,308.3z
				 M58.8,303c1.4,0,2.6,1.2,2.6,2.6s-1.2,2.6-2.6,2.6s-2.6-1.2-2.6-2.6S57.4,303,58.8,303z"/>
		</g>
		<g>
			<path class="st3" d="M58.8,306.1c0.3,0,0.5-0.2,0.5-0.5s-0.2-0.5-0.5-0.5s-0.5,0.2-0.5,0.5S58.5,306.1,58.8,306.1z M59.3,305.6
				c0,0.2-0.2,0.4-0.4,0.4s-0.4-0.2-0.4-0.4s0.2-0.4,0.4-0.4"/>
		</g>
		<g>
			<path class="st3" d="M49.3,301.5c0.3,0.3,0.6,0.6,0.8,0.9c0.1,0.2,0.3,0.3,0.4,0.5c0.2,0.3,0.4,0.6,0.6,0.9
				c0.1,0.2,0.3,0.4,0.4,0.6c0.2,0.3,0.4,0.6,0.5,0.9c0.1,0.2,0.2,0.4,0.3,0.6c0.2,0.3,0.3,0.6,0.4,0.9c0.1,0.2,0.2,0.5,0.3,0.7
				c0.1,0.3,0.2,0.6,0.4,0.9c0.1,0.2,0.2,0.5,0.2,0.7c0.1,0.3,0.2,0.6,0.3,0.9c0.1,0.2,0.1,0.5,0.2,0.7c0,0.2,0.1,0.3,0.1,0.5h4.4
				l6.5-5.6l-6.5-5.6H47.8c0.4,0.4,0.8,0.8,1.2,1.2C49.1,301.2,49.2,301.4,49.3,301.5z M58.6,300.1l6.4,5.5l-6.4,5.5h-4.3
				c0-0.1,0-0.1,0-0.2s0-0.1,0-0.2c-0.1-0.3-0.1-0.5-0.2-0.8c-0.1-0.3-0.2-0.6-0.3-0.9c-0.1-0.2-0.2-0.5-0.2-0.7
				c-0.1-0.3-0.2-0.5-0.4-0.9v-0.1c-0.1-0.2-0.2-0.4-0.3-0.6c-0.1-0.3-0.3-0.6-0.4-0.9l-0.1-0.2c-0.1-0.2-0.2-0.3-0.3-0.5
				c-0.1-0.3-0.3-0.5-0.5-0.8l-0.2-0.3c-0.1-0.1-0.2-0.3-0.3-0.4c-0.2-0.3-0.4-0.5-0.6-0.8l-0.1-0.1c0-0.1-0.1-0.1-0.1-0.2
				c-0.1-0.1-0.2-0.2-0.2-0.3c-0.3-0.3-0.5-0.6-0.8-1l-0.1-0.1c-0.1-0.1-0.1-0.1-0.2-0.2c-0.3-0.3-0.7-0.7-1-1L58.6,300.1
				L58.6,300.1z"/>
		</g>
		<g>
			<path class="st14" d="M52.4,312.4c-0.7-4.2-2.8-8.1-6-10.9c-0.7-0.6-1.5-1.2-2.3-1.7c-3-1.9-6.3-2.8-9.6-2.8
				c-5.1,0-10.1,2.2-13.7,6.3c-2.1,2.4-3.5,5.4-4.1,8.5c-0.5,2.4-0.4,5,0.1,7.4c0.1,0.3,0.2,0.7,0.3,1c0.4,1.5,1,2.9,1.8,4.2
				c1,1.7,2.2,3.2,3.8,4.5c7,6.1,17.4,5.9,24.2-0.4c0.5-0.4,0.9-0.9,1.4-1.4c0.4-0.5,0.8-1,1.2-1.6C52.1,321.7,53.1,317,52.4,312.4z
				 M49.3,325.4c-0.4,0.6-0.8,1.1-1.2,1.6s-0.9,1-1.4,1.4c-3.3,3.1-7.7,4.8-12.3,4.8c-4.3,0-8.5-1.6-11.8-4.4
				c-1.5-1.3-2.8-2.8-3.7-4.5c-0.8-1.3-1.4-2.7-1.8-4.1c-0.1-0.3-0.2-0.7-0.3-1c-0.5-2.4-0.6-4.9-0.1-7.3c0.6-3.1,2-6,4.1-8.5
				c3.5-4,8.4-6.3,13.6-6.3c3.4,0,6.7,1,9.6,2.8c0.8,0.5,1.5,1,2.2,1.7c3.2,2.8,5.4,6.6,6,10.8C53,317,52,321.6,49.3,325.4z"/>
		</g>
		<g>
			<path class="st14" d="M59.3,333.5c-0.2-0.2-0.5-0.3-0.7-0.3c-0.3,0-0.6,0.1-0.9,0.4c-0.2,0.2-0.3,0.5-0.3,0.8s0.2,0.6,0.4,0.8
				l5.8,5c0.2,0.2,0.5,0.3,0.7,0.3c0.3,0,0.6-0.1,0.9-0.4c0.2-0.2,0.3-0.5,0.3-0.8s-0.2-0.6-0.4-0.8L59.3,333.5z M65.1,340
				c-0.2,0.2-0.5,0.4-0.8,0.4c-0.2,0-0.5-0.1-0.7-0.2l-5.8-5c-0.4-0.4-0.5-1-0.1-1.4s1-0.5,1.4-0.1l5.8,5
				C65.4,338.9,65.4,339.6,65.1,340z"/>
		</g>
		<g>
			<path class="st14" d="M50.4,327.6c-0.2,0.3-0.5,0.6-0.7,0.8c-0.2,0.3-0.5,0.5-0.7,0.8l3.5,3.1l1.1-1.3l0.3-0.3L50.4,327.6z
				 M52.6,332.1l-3.4-2.9c0.2-0.2,0.4-0.5,0.6-0.7c0.2-0.2,0.4-0.5,0.6-0.7l3.4,2.9L52.6,332.1z"/>
		</g>
		<g>
			<path class="st3" d="M49.7,312c-0.1-0.4-0.2-0.8-0.3-1.2c-0.4-1.2-0.9-2.4-1.5-3.5c-0.9-1.4-1.9-2.7-3.2-3.8
				c-0.5-0.5-1.1-0.9-1.7-1.3c-0.6-0.4-1.2-0.7-1.8-1l0,0c-1.3-0.6-2.7-1-4.1-1.3l0,0c-0.8-0.1-1.7-0.2-2.5-0.2
				c-4.5,0-8.8,2-11.7,5.4c-1.6,1.9-2.7,4-3.3,6.3c-0.8,3.1-0.6,6.5,0.6,9.6h0.1c-1.2-3-1.4-6.4-0.6-9.5c0.6-2.3,1.7-4.5,3.3-6.3
				c3.5-4.1,8.8-6,14.2-5.1l0,0c1.4,0.2,2.8,0.6,4.1,1.2l0,0c0.6,0.3,1.2,0.6,1.8,1s1.2,0.8,1.7,1.3c1.3,1.1,2.3,2.4,3.2,3.8
				c0.6,1.1,1.2,2.3,1.5,3.5C49.4,311.2,49.5,311.6,49.7,312c0.8,4.2-0.1,8.5-2.5,12c-0.3,0.5-0.7,0.9-1,1.3
				c-0.4,0.4-0.8,0.8-1.2,1.2c-3,2.7-6.7,4.1-10.5,4.1c-3.6,0-7.2-1.3-10.1-3.8c-0.5-0.4-0.9-0.8-1.3-1.3l0,0l0,0
				c-1.3-1.4-2.3-3-2.9-4.7l0,0l0,0l-0.1,0.1c0.7,1.7,1.7,3.3,2.9,4.7l0,0c0.4,0.4,0.8,0.9,1.3,1.3c2.8,2.5,6.5,3.8,10.2,3.8
				c3.9,0,7.7-1.5,10.6-4.2c0.4-0.4,0.8-0.8,1.2-1.2c0.4-0.4,0.7-0.9,1-1.4C49.7,320.6,50.6,316.2,49.7,312z"/>
		</g>
		<g>
			<path class="st14" d="M69,337.3l-9.1-7.9c-0.7-0.6-1.6-0.9-2.5-0.9c-0.7,0-1.4,0.2-2,0.6l-3.7-3.2c2.3-3.8,3.4-8.1,3-12.5H59
				c0.3,0,0.5-0.1,0.7-0.3l7.7-6.6c0.2-0.2,0.4-0.5,0.4-0.9c0-0.3-0.1-0.6-0.4-0.9l-7.7-6.6c-0.2-0.2-0.5-0.3-0.7-0.3H44.9
				c-3.2-1.9-6.8-2.9-10.5-2.9c-5.8,0-11.4,2.6-15.3,7c-2.1,2.5-3.6,5.4-4.4,8.6H7.5c-0.6,0-1.1,0.5-1.1,1.1v13.3
				c0,0.6,0.5,1.1,1.1,1.1h9.9c2.9,4.7,4.6,5.3,3.8,4.5c3.4,3.5,8.4,5,13.3,5c4.7,0,9.4-1.7,13-4.8l3.7,3.2c-0.7,1.5-0.3,3.3,1,4.4
				l9.1,7.9c0.6,0.5,1.3,0.8,2.1,0.8c0.9,0,1.8-0.4,2.4-1.1l3.6-4.1C70.5,340.5,70.4,338.5,69,337.3z M69.3,341.7l-3.6,4.1
				c-0.6,0.7-1.5,1.1-2.3,1.1c-0.7,0-1.4-0.2-2-0.7l-9.1-7.9c-1.3-1.1-1.6-2.9-0.9-4.4l-3.9-3.3c-3.7,3.2-8.4,4.8-13,4.8
				c-4.7,0-9.6-1.4-13.2-4.9c0.2,0.2,0.2,0.2-0.1,0c-0.6-0.6-2.5-2.4-3.8-4.5H7.5c-0.6,0-1-0.5-1-1v-13.3c0-0.6,0.5-1,1-1h7.4
				c0.7-3.2,2.2-6.1,4.4-8.6c6.5-7.5,17.3-9.2,25.7-4.1h14c0.2,0,0.5,0.1,0.7,0.2l7.7,6.6c0.2,0.2,0.4,0.5,0.4,0.8s-0.1,0.6-0.4,0.8
				l-7.7,6.6c-0.2,0.2-0.4,0.2-0.7,0.2h-4.5c0.4,4.5-0.6,8.9-3,12.6l3.8,3.3c1.4-0.9,3.2-0.8,4.4,0.3l9.1,7.9
				C70.2,338.5,70.4,340.4,69.3,341.7z"/>
			<path d="M63.4,347.2c-0.8,0-1.6-0.3-2.2-0.8l-9.1-7.9c-1.3-1.1-1.7-2.9-1.1-4.5l-3.4-3c-3.7,3-8.3,4.7-13,4.7
				c-5.4,0-10-1.7-13.1-4.7l0,0l0,0c-0.5,0-2.1-1.5-4.2-4.8H7.5c-0.8,0-1.4-0.6-1.4-1.4v-13.3c0-0.8,0.6-1.4,1.4-1.4h7.1
				c0.8-3.1,2.3-6.1,4.4-8.5c3.9-4.5,9.6-7.1,15.5-7.1c3.7,0,7.4,1,10.6,2.9h14c0.3,0,0.6,0.1,0.9,0.3l7.7,6.6
				c0.3,0.3,0.5,0.6,0.5,1s-0.2,0.8-0.5,1l-7.7,6.6c-0.2,0.2-0.6,0.3-0.9,0.3H55c0.3,4.3-0.7,8.5-2.9,12.2l3.4,3
				c1.5-0.8,3.4-0.6,4.6,0.5l9.1,7.9c1.4,1.2,1.6,3.4,0.3,4.8l-3.6,4.1C65.3,346.8,64.4,347.2,63.4,347.2z M47.5,330.3l4.2,3.6
				l-0.1,0.2c-0.6,1.4-0.3,3.1,0.9,4.1l9.1,7.9c0.5,0.4,1.2,0.7,1.8,0.7c0.8,0,1.6-0.4,2.1-1l3.6-4.1c0.5-0.6,0.7-1.3,0.7-2
				c-0.1-0.7-0.4-1.4-1-1.9l-9.1-7.9c-1.1-1-2.9-1.1-4.1-0.3l-0.2,0.1l-4.1-3.6l0.1-0.2c2.4-3.7,3.4-8.1,2.9-12.5v-0.3H59
				c0.2,0,0.4-0.1,0.5-0.2l7.7-6.6c0.2-0.1,0.3-0.4,0.3-0.6s-0.1-0.4-0.3-0.6l-7.7-6.6c-0.1-0.1-0.3-0.2-0.5-0.2H44.9h-0.1
				c-8.3-5-19-3.4-25.4,4c-2.1,2.4-3.6,5.4-4.3,8.5v0.2H7.5c-0.4,0-0.8,0.3-0.8,0.8v13.3c0,0.4,0.3,0.8,0.8,0.8h10.1l0.1,0.1
				c1.2,2,3,3.8,3.7,4.5c0,0,0,0,0.1,0.1l0,0l0,0c3.2,3.1,7.8,4.9,13,4.9c4.7,0,9.3-1.7,12.9-4.8L47.5,330.3z M21.2,330.9
				L21.2,330.9L21.2,330.9z"/>
		</g>
		<g>
			<path class="st14" d="M29.5,321c1.5,0,2.7-1.2,2.7-2.7s-1.2-2.7-2.7-2.7s-2.7,1.2-2.7,2.7S28,321,29.5,321z M29.5,315.7
				c1.4,0,2.6,1.2,2.6,2.6s-1.2,2.6-2.6,2.6s-2.6-1.2-2.6-2.6C26.9,316.8,28.1,315.7,29.5,315.7z"/>
		</g>
		<g>
			<path class="st14" d="M29.5,320.9c1.4,0,2.6-1.2,2.6-2.6s-1.2-2.6-2.6-2.6s-2.6,1.2-2.6,2.6C26.9,319.7,28.1,320.9,29.5,320.9z
				 M29.5,315.8c1.4,0,2.5,1.1,2.5,2.5s-1.1,2.5-2.5,2.5s-2.5-1.1-2.5-2.5S28.1,315.8,29.5,315.8z"/>
		</g>
		<g>
			<path class="st3" d="M58.8,306.2c0.4,0,0.6-0.3,0.6-0.6s-0.3-0.6-0.6-0.6s-0.6,0.3-0.6,0.6C58.2,305.9,58.5,306.2,58.8,306.2z"/>
		</g>
		<g>
			<path class="st14" d="M29.5,318.9c0.4,0,0.6-0.3,0.6-0.6c0-0.4-0.3-0.6-0.6-0.6c-0.4,0-0.6,0.3-0.6,0.6
				C28.8,318.6,29.1,318.9,29.5,318.9z M29.5,317.7c0.3,0,0.5,0.2,0.5,0.5s-0.2,0.5-0.5,0.5s-0.5-0.2-0.5-0.5S29.2,317.7,29.5,317.7
				z"/>
		</g>
		<g>
			<path class="st14" d="M59.2,333.6c-0.4-0.4-1.1-0.3-1.4,0.1c-0.4,0.4-0.3,1.1,0.1,1.4l5.8,5c0.2,0.2,0.4,0.2,0.7,0.2
				c0.3,0,0.6-0.1,0.8-0.4c0.4-0.4,0.3-1.1-0.1-1.4L59.2,333.6z M65,339.9c-0.2,0.2-0.4,0.3-0.7,0.3c-0.2,0-0.4-0.1-0.6-0.2l-5.8-5
				c-0.2-0.2-0.3-0.4-0.3-0.6s0.1-0.5,0.2-0.7c0.2-0.2,0.4-0.3,0.7-0.3c0.2,0,0.4,0.1,0.6,0.2l5.8,5c0.2,0.2,0.3,0.4,0.3,0.6
				C65.2,339.5,65.2,339.7,65,339.9z"/>
		</g>
		<g>
			<path class="st14" d="M50.5,327.5L50.5,327.5L50.5,327.5c-0.3,0.3-0.6,0.6-0.8,0.8c-0.2,0.3-0.5,0.5-0.7,0.8l-0.1,0.1l3.7,3.2
				l1.5-1.8L50.5,327.5z M52.6,332.3l-3.5-3.1c0.2-0.3,0.5-0.5,0.7-0.8s0.5-0.5,0.7-0.8l3.5,3.1l-0.3,0.3L52.6,332.3z"/>
		</g>
		<g>
			<path class="st14" d="M52.5,312.4c-0.7-4.2-2.8-8.1-6.1-11c-0.7-0.6-1.5-1.2-2.3-1.7c-2.9-1.8-6.3-2.8-9.7-2.8
				c-5.3,0-10.3,2.3-13.8,6.3c-2.1,2.5-3.5,5.4-4.1,8.5c-0.5,2.4-0.4,5,0.1,7.4c0.1,0.4,0.2,0.7,0.3,1c0.4,1.5,1,2.9,1.8,4.2
				c1,1.7,2.2,3.2,3.8,4.5c3.3,2.9,7.6,4.5,11.9,4.5c4.6,0,9-1.7,12.4-4.9c0.5-0.4,0.9-0.9,1.4-1.4c0.4-0.5,0.8-1,1.2-1.6
				C52.2,321.7,53.2,317,52.5,312.4z M48.2,327.1c-0.4,0.5-0.9,1-1.4,1.4c-6.8,6.3-17.2,6.5-24.2,0.4c-1.5-1.3-2.8-2.8-3.8-4.5
				c-0.8-1.3-1.4-2.7-1.8-4.2c-0.1-0.3-0.2-0.7-0.3-1c-0.5-2.4-0.6-4.9-0.1-7.4c0.6-3.1,2-6.1,4.1-8.5c3.6-4.1,8.6-6.3,13.7-6.3
				c3.3,0,6.6,0.9,9.6,2.8c0.8,0.5,1.5,1,2.3,1.7c3.2,2.8,5.4,6.7,6,10.9c0.7,4.6-0.3,9.3-3,13.1C49,326.1,48.6,326.6,48.2,327.1z"
				/>
		</g>
		<g>
			<g>
				<path d="M25.4,341.2c0.2,0.2,0.5,0.3,0.7,0.3s0.5-0.1,0.7-0.3c0.4-0.4,0.4-1,0-1.4l-9.7-9.7c-0.4-0.4-1-0.4-1.4,0s-0.4,1,0,1.4
					L25.4,341.2z"/>
			</g>
			<g>
				<path d="M61.6,323.9c-0.4-0.4-1-0.4-1.4,0s-0.4,1,0,1.4l6.5,6.5c0.2,0.2,0.5,0.3,0.7,0.3s0.5-0.1,0.7-0.3c0.4-0.4,0.4-1,0-1.4
					L61.6,323.9z"/>
			</g>
			<g>
				<path d="M12.3,308.1c0.2,0.2,0.5,0.3,0.7,0.3s0.5-0.1,0.7-0.3c0.4-0.4,0.4-1,0-1.4l-6-6c-0.4-0.4-1-0.4-1.4,0s-0.4,1,0,1.4
					L12.3,308.1z"/>
			</g>
			<g>
				<path d="M16.5,339.1c0.2,0.2,0.5,0.3,0.7,0.3s0.5-0.1,0.7-0.3c0.4-0.4,0.4-1,0-1.4l-6-6c-0.4-0.4-1-0.4-1.4,0s-0.4,1,0,1.4
					L16.5,339.1z"/>
			</g>
			<g>
				<path d="M27.4,343.6l1.2,1.2c0.2,0.2,0.5,0.3,0.7,0.3s0.5-0.1,0.7-0.3c0.4-0.4,0.4-1,0-1.4l-1.2-1.2c-0.4-0.4-1-0.4-1.4,0
					C27,342.5,27,343.2,27.4,343.6z"/>
			</g>
		</g>
	</g>
	<g>
		<path class="st14" d="M25.4,426.1c-0.2,0.2-0.5,0.2-0.7,0l-2.8-2.8c-0.2-0.2-0.2-0.5,0-0.7l0.8-0.8c0.2-0.2,0.5-0.2,0.7,0l1.6,1.6
			l3.6-3.6c0.2-0.2,0.5-0.2,0.7,0l0.8,0.8c0.2,0.2,0.2,0.5,0,0.7L25.4,426.1z M32,419.2c0-1.2-1-2.2-2.2-2.2h-7.5
			c-1.2,0-2.2,1-2.2,2.2v7.5c0,1.2,1,2.2,2.2,2.2h7.5c1.2,0,2.2-1,2.2-2.2V419.2z"/>
	</g>
	<g>
		<path d="M42.4,426.1c-0.2,0.2-0.5,0.2-0.7,0l-2.8-2.8c-0.2-0.2-0.2-0.5,0-0.7l0.8-0.8c0.2-0.2,0.5-0.2,0.7,0l1.6,1.6l3.6-3.6
			c0.2-0.2,0.5-0.2,0.7,0l0.8,0.8c0.2,0.2,0.2,0.5,0,0.7L42.4,426.1z M49,419.2c0-1.2-1-2.2-2.2-2.2h-7.5c-1.2,0-2.2,1-2.2,2.2v7.5
			c0,1.2,1,2.2,2.2,2.2h7.5c1.2,0,2.2-1,2.2-2.2V419.2z"/>
	</g>
	<g>
		<g>
			<path d="M12.8,418c0.7,0,1.2,0.6,1.2,1.2v7.5c0,0.7-0.6,1.2-1.2,1.2H5.2c-0.7,0-1.2-0.6-1.2-1.2v-7.5c0-0.7,0.6-1.2,1.2-1.2H12.8
				 M12.8,417H5.2C4,417,3,418,3,419.2v7.5c0,1.2,1,2.2,2.2,2.2h7.5c1.2,0,2.2-1,2.2-2.2v-7.5C15,418,14,417,12.8,417L12.8,417z"/>
		</g>
	</g>
</g>
<g>
	<g>
		<path class="st14" d="M2.5,465.5h24.6v-1H2.5V465.5z M2.5,460.5h24.6v-1H2.5V460.5z M2.5,454.5v1h24.6v-1H2.5z"/>
	</g>
</g>
<g>
	<g>
		<path class="st14" d="M132.5,137.1c0.1-0.3,0.1-0.6,0-0.9c-1.5-3.2-2.2-6.6-2.2-10.1c0-6.3,2.4-12.2,6.7-16.7s10-6.9,16.1-6.9
			s11.9,2.5,16.1,7l-1.2-0.4c-0.3-0.1-0.6-0.1-0.9,0.1c-0.3,0.1-0.5,0.4-0.6,0.7c-0.1,0.3-0.1,0.6,0.1,0.9c0.1,0.3,0.4,0.5,0.7,0.6
			l5.1,1.8c0.4,0.1,0.8,0,1.1-0.2c0.3-0.3,0.5-0.7,0.4-1.1l-0.9-6.2c-0.1-0.7-0.7-1.1-1.3-1s-1.1,0.7-1,1.4l0.3,2
			c-4.7-5-11.1-7.8-17.9-7.8c-6.7,0-13,2.7-17.7,7.6s-7.3,11.4-7.3,18.4c0,3.9,0.8,7.6,2.4,11.1c0.2,0.4,0.6,0.7,1,0.7
			c0.2,0,0.3,0,0.5-0.1C132.2,137.7,132.4,137.4,132.5,137.1z M142.5,137.9c-0.3,0-0.5,0.2-0.7,0.4c-0.4,0.5-0.3,1.2,0.1,1.5
			c3.1,2.7,7,4.2,11.1,4.2c0.3,0,0.5,0,0.7,0c4.3-0.2,8.4-2,11.5-5.2s4.9-7.4,5-12c0.2-4.5-1.3-8.8-4-12.3c-0.2-0.2-0.4-0.4-0.7-0.4
			s-0.6,0.1-0.8,0.3c-0.2,0.2-0.3,0.5-0.4,0.7c0,0.3,0.1,0.6,0.2,0.8c1.5,1.9,2.6,4.1,3.1,6.4c-0.3-0.2-0.7-0.2-1.1-0.2
			c-0.7,0.1-1.2,0.5-1.6,1l0,0c-0.2,0-0.4,0.1-0.6,0.2l-0.6-0.8c-0.2-0.2-0.4-0.4-0.7-0.4s-0.6,0.1-0.8,0.3
			c-0.2,0.2-0.3,0.5-0.4,0.7c0,0.3,0.1,0.6,0.2,0.8l1.3,1.6c0.2,0.2,0.5,0.4,0.8,0.4s0.6-0.1,0.8-0.3l0.1-0.1l-1.6,3.4l-2.6-3.3
			c-0.2-0.2-0.4-0.4-0.7-0.4c-0.1,0-0.2,0-0.3,0c0.1-0.1,0.2-0.2,0.2-0.3c0.4-0.5,0.5-1.2,0.4-1.8l-0.1-0.4
			c-0.2-0.8-0.9-1.4-1.7-1.3l-0.8,0.1l1.3-1.4c0.4-0.4,0.4-1.1,0-1.5s-1.1-0.4-1.5,0l-2.2,2.2l-0.5,0.2l-1.9-1.5
			c-0.3-0.2-0.6-0.3-1-0.2l-1,0.3l-0.3-0.2l0.2,0.2l-1.4,0.4l2.1-1.6l2.3-0.3c0.5-0.1,0.8-0.5,0.9-0.9l0.3-2c0-0.3,0-0.5-0.1-0.7
			c0.1,0,0.2,0,0.3,0c0.4,0,0.8-0.3,0.9-0.7l0.9-2.3c0.1-0.2,0.1-0.5,0.1-0.8c1.9,0.6,3.6,1.6,5.1,2.9c0.4,0.4,1.1,0.3,1.5-0.1
			c0.2-0.2,0.3-0.5,0.2-0.8c0-0.3-0.2-0.6-0.4-0.7c-3.3-2.9-7.5-4.4-11.8-4.2c-4.3,0.2-8.4,2-11.5,5.2s-4.9,7.4-5,11.9
			c-0.2,4.5,1.3,8.8,4,12.3c0.4,0.4,1.1,0.5,1.5,0.1c0.2-0.2,0.3-0.5,0.4-0.7c0-0.3-0.1-0.6-0.2-0.8c-2.4-3-3.7-6.8-3.5-10.8
			s1.7-7.7,4.4-10.5c2.6-2.7,6.1-4.4,9.8-4.6c-0.3,0.1-0.6,0.3-0.7,0.6l-1.5,2.9c-0.3,0.5-0.3,1.1,0,1.7c0.3,0.5,0.8,0.9,1.3,0.9
			l0.7,0.1l-0.5,0.1c-0.2,0-0.3,0.1-0.5,0.2l-1.3,1c0.1-0.1,0.1-0.3,0.1-0.4v-1.6c0-0.6-0.5-1.1-1.1-1.1s-1,0.5-1,1.1v1.1l-0.4,0.4
			c-0.4,0.4-0.4,1.1,0,1.5c0.2,0.2,0.5,0.3,0.8,0.3c0,0,0,0,0.1,0c0,0.1-0.1,0.2-0.1,0.3l-0.2,0.9l-0.5-0.1
			c-0.7-0.1-1.4,0.3-1.7,1.1l-0.5,1.5c-0.2,0.4-0.1,0.9,0.1,1.3c0.1,0.2,0.2,0.4,0.4,0.5c-0.4,0.4-0.7,1-0.7,1.6v0.2l-1.8,2.1
			c-0.3,0.4-0.5,0.9-0.5,1.5v2.5c0,0.8,0.3,1.5,0.8,2l1.8,1.8c0.5,0.5,1,0.7,1.7,0.8l4.8,0.4c0,0.7,0.3,1.4,0.9,1.8l0.7,0.5
			c-0.2,0.7-0.1,1.3,0.3,1.9c-3.7,0.1-7.3-1.2-10.1-3.7C143.1,137.9,142.8,137.9,142.5,137.9z M153.2,116.3L153.2,116.3L153.2,116.3
			L153.2,116.3z M153,112.5h0.9l0.4,0.7c-0.2-0.2-0.5-0.3-0.7-0.3c-0.3,0-0.6,0.2-0.8,0.5l-0.4,0.6L153,112.5z M166.7,130.5
			c0.1-0.3,0.1-0.8-0.1-1.1c-0.1-0.2-0.3-0.4-0.6-0.4l1.4-2.8c0.2-0.4,0.2-0.8,0.1-1.2l0.7,0.7c0,0.3,0,0.7,0,1.1
			c-0.1,3.8-1.6,7.4-4.2,10.2L166.7,130.5z M158.9,123.7L158.9,123.7L158.9,123.7L158.9,123.7L158.9,123.7z M154.3,124.3l0.2-0.5
			c0.1-0.2,0.1-0.3,0.1-0.5c0.3,0.2,0.6,0.2,1,0.1l0.6-0.2l0.3,0.4c0.2,0.2,0.5,0.4,0.9,0.4l-1.6,0.1c-0.5,0-0.9,0.3-1.2,0.7
			c-0.1,0.1-0.2,0.3-0.2,0.4l-0.6-0.2C154,124.9,154.2,124.6,154.3,124.3z M149.8,122.4l0.4,0.1l1.2-0.4l1,1.3l-0.1,0.2l0,0
			c-0.3-0.2-0.7-0.4-1.1-0.4l0,0h-1.4l0.3-0.8L149.8,122.4L149.8,122.4z M147.4,122.4l0.5,0.1l-0.3,0.7l-0.4-0.1L147.4,122.4z
			 M152.8,135.5l-5.9-0.5c-0.1,0-0.3-0.1-0.4-0.2l-1.8-1.8c-0.1-0.1-0.2-0.3-0.2-0.5v-2.6l2-2.4c0.2-0.2,0.3-0.4,0.3-0.7l0.1-0.6
			l1.5-0.7l2.7-0.1c0.2,0.6,0.6,1.1,1.2,1.3l2.1,0.7c0.6,0.2,1.2,0,1.6-0.4c0.3-0.3,0.4-0.6,0.5-0.9l2.3-0.2c0.2,0,0.5-0.1,0.7-0.2
			c-0.3,0.4-0.3,0.9,0.1,1.3l2.6,3.3c0.4,0.6,1.1,0.9,1.8,0.8h0.2l-2.3,5.6c-0.2,0.4-0.4,0.8-0.7,1.2l-2,2.5
			c-0.9,0.4-1.9,0.7-2.9,0.9l-1-1l0.2-0.7c0.1-0.4,0-0.9-0.4-1.2l-1.3-1.1l0.1-0.9c0-0.3,0-0.6-0.2-0.8
			C153.3,135.6,153.1,135.5,152.8,135.5z M175.7,114.9L175.7,114.9c-0.3-0.6-1-0.9-1.5-0.6c-0.6,0.3-0.8,1-0.5,1.6
			c1.5,3.2,2.2,6.6,2.2,10.1c0,6.3-2.4,12.2-6.7,16.7s-10,6.9-16.1,6.9c-3.6,0-7-0.8-10.2-2.5c-2.1-1.1-4.2-2.6-5.9-4.4l1.2,0.4
			c0.6,0.2,1.3-0.1,1.5-0.8c0.2-0.6-0.1-1.3-0.7-1.5l-5.1-1.8c-0.4-0.1-0.8-0.1-1.1,0.2s-0.5,0.7-0.4,1.1l0.9,6.2
			c0.1,0.6,0.6,1,1.1,1c0.1,0,0.1,0,0.2,0c0.6-0.1,1.1-0.7,1-1.4l-0.3-2c1.9,2,4.2,3.8,6.6,5.1c3.5,1.8,7.3,2.8,11.3,2.8
			c6.7,0,13-2.7,17.7-7.6c4.7-4.9,7.3-11.4,7.3-18.4C178.1,122.2,177.3,118.4,175.7,114.9z"/>
	</g>
</g>
<g>
	<g>
		<path class="st14" d="M361.6,100.6h-49.1c-1.6,0-2.9,1.3-2.9,3v34.6c0,1.7,1.3,3,2.9,3h17.4v4.4h-3c-1.2,0-2.1,1-2.1,2.1v1.7
			c0,1.2,0.9,2.1,2.1,2.1h20.3c1.2,0,2.1-1,2.1-2.1v-1.7c0-1.2-0.9-2.1-2.1-2.1h-3v-4.4h17.4c1.6,0,2.9-1.3,2.9-3v-34.6
			C364.6,101.9,363.2,100.6,361.6,100.6z M346.8,148.1v0.9h-19.5v-0.9h10.6c0.7,0,1.2-0.6,1.2-1.3s-0.6-1.3-1.2-1.3h-5.5v-4.4h9.4
			v4.4h-0.5c-0.7,0-1.2,0.6-1.2,1.3s0.6,1.3,1.2,1.3H346.8z M362.1,138.2c0,0.3-0.2,0.5-0.5,0.5h-49.1c-0.2,0-0.5-0.2-0.5-0.5v-34.6
			c0-0.3,0.2-0.5,0.5-0.5h49.1c0.2,0,0.5,0.2,0.5,0.5V138.2z M357.7,106.3h-28.3v0.4h28.3V106.3z M358.9,106.7h-1.2v0.4h-2h-0.1h-3
			h-0.1h-23v-0.4H327v0.4h-10.5v-0.4h-1.2c-0.7,0-1.2,0.6-1.2,1.2v0.4c0,0.7,0.5,1.2,1.2,1.2h43.6c0.7,0,1.2-0.6,1.2-1.2v-0.4
			C360.1,107.3,359.5,106.7,358.9,106.7z M327,106.3h-10.5v0.4H327V106.3z M324.1,122.7c-0.4,0-0.7,0.2-0.8,0.4
			c-0.1,0.2-0.2,0.4-0.3,0.6c-0.1,0.3-0.3,0.6-0.5,0.7c-0.4,0.3-1.2,0.3-1.6,0c-0.2-0.1-0.4-0.4-0.5-0.7c-0.1-0.3-0.2-0.7-0.2-1.3
			c0-0.8,0.2-1.3,0.4-1.7c0.3-0.4,0.6-0.5,1.1-0.5c0.3,0,0.5,0.1,0.7,0.2s0.4,0.4,0.5,0.7c0.1,0.3,0.3,0.5,0.4,0.6
			c0.3,0.3,1,0.4,1.5-0.1c0.2-0.2,0.3-0.5,0.3-0.7c0-0.4-0.1-0.8-0.4-1.2c-0.3-0.4-0.7-0.7-1.2-1c-0.9-0.5-2.2-0.5-3.3-0.1
			c-0.5,0.2-0.9,0.5-1.3,0.9s-0.6,0.8-0.8,1.3c-0.2,0.5-0.3,1.1-0.3,1.7c0,0.4,0,0.8,0.1,1.1c0.1,0.4,0.2,0.7,0.3,1
			c0.1,0.3,0.3,0.6,0.6,0.9c0.2,0.3,0.5,0.5,0.8,0.7s0.6,0.3,1,0.4c0.3,0.1,0.7,0.1,1.1,0.1c0.6,0,1.1-0.1,1.5-0.3
			c0.4-0.2,0.8-0.4,1.1-0.7c0.3-0.3,0.5-0.6,0.6-0.9s0.2-0.6,0.2-0.9s-0.1-0.6-0.3-0.8C324.7,122.8,324.4,122.7,324.1,122.7z
			 M330.9,121.3c-0.2-0.4-0.5-0.6-0.8-0.8c-0.5-0.3-1.3-0.3-1.9-0.2c-0.2,0.1-0.3,0.1-0.5,0.2v-1.1c0-0.4-0.1-0.7-0.3-0.9
			c-0.1-0.2-0.4-0.4-0.8-0.4s-0.7,0.2-0.8,0.4c-0.2,0.2-0.3,0.5-0.3,0.9v5.9c0,0.8,0.4,1.3,1.1,1.3c0.4,0,0.7-0.2,0.8-0.4
			c0.2-0.2,0.3-0.5,0.3-0.9v-1.8c0-0.6,0.1-0.9,0.1-0.9c0.1-0.2,0.2-0.3,0.3-0.4c0.1-0.1,0.3-0.1,0.4-0.1c0.3,0,0.3,0.1,0.4,0.1
			c0.1,0.1,0.1,0.4,0.1,0.8v2.3c0,0.8,0.4,1.3,1.1,1.3c0.3,0,0.6-0.1,0.8-0.4c0.2-0.2,0.3-0.5,0.3-0.9v-2.6c0-0.3,0-0.5-0.1-0.8
			C331.1,121.8,331,121.5,330.9,121.3z M336.3,121.5c0-0.3-0.1-0.7-0.6-0.9c-0.7-0.4-1.5-0.4-2,0c0,0,0,0-0.1,0.1
			c-0.1-0.2-0.4-0.4-0.8-0.4c-0.3,0-1.1,0.1-1.1,1.3v3.8c0,0.4,0.1,0.7,0.3,0.9c0.2,0.2,0.5,0.4,0.8,0.4s0.6-0.1,0.8-0.3
			c0.2-0.2,0.3-0.5,0.3-0.9v-1.1c0-0.4,0-0.7,0-1s0.1-0.5,0.1-0.6s0.1-0.2,0.2-0.3c0,0,0.2-0.1,0.6,0c0.3,0.1,0.4,0.1,0.5,0.1
			c0.2,0,0.5-0.1,0.7-0.3C336.2,122,336.3,121.8,336.3,121.5z M341.2,121.2c-0.3-0.3-0.6-0.5-1-0.7c-0.8-0.3-1.8-0.3-2.5,0
			c-0.4,0.2-0.7,0.4-1,0.7c-0.3,0.3-0.5,0.6-0.6,1s-0.2,0.8-0.2,1.3s0.1,0.9,0.2,1.3s0.4,0.7,0.6,1c0.3,0.3,0.6,0.5,1,0.7
			s0.8,0.2,1.3,0.2s0.9-0.1,1.3-0.2c0.4-0.2,0.7-0.4,1-0.7c0.3-0.3,0.5-0.6,0.6-1s0.2-0.8,0.2-1.3s-0.1-0.9-0.2-1.3
			C341.7,121.8,341.5,121.4,341.2,121.2z M339.6,124.5c-0.2,0.2-0.4,0.3-0.6,0.3s-0.3,0-0.5-0.1c-0.1-0.1-0.2-0.2-0.3-0.4
			c-0.1-0.2-0.1-0.5-0.1-0.8s0-0.6,0.1-0.8c0.1-0.2,0.2-0.3,0.3-0.4c0.1-0.1,0.3-0.1,0.5-0.1c0.3,0,0.5,0.1,0.6,0.3
			c0.2,0.2,0.3,0.6,0.3,1S339.8,124.3,339.6,124.5z M349.8,120.5c-0.6-0.3-1.5-0.4-2.2,0c-0.2,0.1-0.3,0.2-0.5,0.3
			c-0.1-0.1-0.3-0.2-0.4-0.3c-0.6-0.3-1.5-0.3-2.2,0c-0.1,0.1-0.2,0.1-0.3,0.2c0-0.1-0.1-0.1-0.1-0.1c-0.4-0.4-1.2-0.4-1.5,0
			c-0.2,0.2-0.3,0.5-0.3,0.9v3.9c0,0.4,0.1,0.7,0.3,0.9c0.4,0.5,1.2,0.5,1.6,0c0.2-0.2,0.3-0.5,0.3-0.9v-1.8c0-0.5,0.1-0.9,0.2-1.1
			c0-0.1,0.1-0.2,0.5-0.2c0.1,0,0.2,0,0.2,0c0,0.1,0.1,0.1,0.1,0.2c0,0.2,0,0.4,0,0.7v2.2c0,0.4,0.1,0.7,0.3,0.9
			c0.4,0.5,1.2,0.5,1.6,0c0.2-0.2,0.3-0.5,0.3-0.9v-1.8c0-0.7,0.1-1,0.1-1c0.1-0.1,0.1-0.2,0.2-0.3c0.2-0.1,0.4-0.1,0.5,0
			s0.1,0.1,0.1,0.2c0,0.2,0,0.4,0,0.6v2.3c0,0.4,0.1,0.7,0.3,0.9c0.2,0.2,0.5,0.4,0.8,0.4s0.6-0.1,0.8-0.4c0.2-0.2,0.3-0.5,0.3-0.9
			v-2.7c0-0.6-0.1-1-0.2-1.4C350.4,121,350.2,120.7,349.8,120.5z M357,123c0-0.4-0.1-0.9-0.3-1.3c-0.2-0.4-0.6-0.8-1-1
			c-0.8-0.5-2-0.5-2.8-0.2c-0.4,0.2-0.7,0.4-1,0.7c-0.3,0.3-0.5,0.6-0.6,1s-0.2,0.8-0.2,1.3c0,1,0.3,1.8,0.8,2.3
			c0.6,0.6,1.3,0.9,2.3,0.9c0.4,0,0.8-0.1,1.1-0.2c0.3-0.1,0.6-0.3,0.9-0.4c0.2-0.2,0.4-0.4,0.5-0.6s0.2-0.4,0.2-0.6
			c0-0.3-0.1-0.5-0.3-0.6c-0.1-0.1-0.1-0.1-0.2-0.1l0,0C356.7,123.9,357,123.6,357,123z M353.5,122.3c0.3-0.3,0.8-0.3,1.1,0
			c0.1,0.1,0.1,0.2,0.2,0.3h-1.4C353.4,122.5,353.5,122.3,353.5,122.3z M355.1,124.5c-0.1,0.1-0.2,0.2-0.3,0.2
			c-0.1,0.1-0.2,0.1-0.3,0.1c-0.2,0.1-0.5,0.1-0.8-0.1c-0.1-0.1-0.2-0.2-0.3-0.4c0-0.1-0.1-0.1-0.1-0.2h2.1
			C355.2,124.3,355.1,124.4,355.1,124.5z"/>
	</g>
</g>
<g>
	<g>
		<path d="M332.3,306.1c0-0.6-0.5-1-1-1h-1c-0.3,0-0.5,0.1-0.7,0.3c-0.2,0.2-0.3,0.5-0.3,0.7c0,0.6,0.5,1,1,1h1
			C331.9,307.2,332.3,306.7,332.3,306.1z M326.9,315.1c0,0.6,0.5,1,1,1c0.6,0,1-0.5,1-1v-1c0-0.6-0.5-1-1-1c-0.6,0-1,0.5-1,1V315.1z
			 M326.9,318.6c0,0.6,0.5,1,1,1c0.6,0,1-0.5,1-1v-1c0-0.6-0.5-1-1-1c-0.6,0-1,0.5-1,1V318.6z M326.9,311.7c0,0.6,0.5,1,1,1
			c0.6,0,1-0.5,1-1v-1c0-0.6-0.5-1-1-1c-0.6,0-1,0.5-1,1V311.7z M326.9,322c0,0.6,0.5,1,1,1c0.6,0,1-0.5,1-1v-1c0-0.6-0.5-1-1-1
			c-0.6,0-1,0.5-1,1V322z M329,324.2c-0.2-0.5-0.8-0.8-1.3-0.6c-0.3,0.1-0.5,0.3-0.6,0.5s-0.1,0.5-0.1,0.8c0.1,0.4,0.4,0.8,0.7,1.2
			c0.2,0.2,0.5,0.4,0.8,0.4c0.2,0,0.5-0.1,0.7-0.2c0.2-0.2,0.3-0.4,0.4-0.7c0-0.3-0.1-0.5-0.2-0.7C329.1,324.5,329,324.4,329,324.2z
			 M348.2,327.4L348.2,327.4h1.4h0.1l0,0l-0.1,5.6c0,0.5,0.2,1.1,0.6,1.4c0.4,0.4,0.9,0.6,1.4,0.6c0.1,0,0.2,0.1,0.8,0.1
			c0.4,0,1,0,1.9-0.1c0.5,0,1.1-0.2,1.4-0.6c0.4-0.4,0.6-0.9,0.6-1.4l-0.1-5.6l0,0h0.1l0,0h1.4c0.4,0,0.7-0.2,0.9-0.5
			c0-0.1,0.1-0.2,0.1-0.3c0-0.3,0-0.6-0.2-0.8l-2.4-2.6l-2.2-2.4c-0.2-0.2-0.4-0.3-0.7-0.3l0,0c0,0,0,0-0.1,0
			c-0.3,0-0.5,0.1-0.7,0.3l-2.2,2.4l-2.4,2.6c-0.2,0.2-0.3,0.5-0.2,0.8c0,0.1,0,0.2,0.1,0.3C347.5,327.2,347.8,327.4,348.2,327.4z
			 M350.5,325.4l0.8-0.9l1.5-1.6h0.1h0.1l1.5,1.6l0.8,0.9l0,0v0.1c0,0,0,0-0.1,0c-0.4,0-0.8,0.3-0.9,0.7c0,0.1,0,0.1,0,0.2l-0.1,6.5
			c0,0.1-0.1,0.1-0.1,0.1l0,0c-0.2,0-0.4,0-0.6,0s-0.4,0-0.5,0c-0.3,0-0.8,0-1.2,0l0,0c-0.1,0-0.1-0.1-0.1-0.1l-0.1-6.5
			c0-0.1,0-0.1,0-0.2c-0.1-0.4-0.5-0.8-0.9-0.8L350.5,325.4C350.5,325.5,350.5,325.4,350.5,325.4L350.5,325.4z M328.8,306.5
			c-0.5-0.3-1.1-0.1-1.4,0.3c-0.2,0.4-0.4,0.8-0.5,1.3c0,0.3,0,0.5,0.2,0.8c0.2,0.2,0.4,0.4,0.7,0.4c0.1,0,0.1,0,0.2,0
			c0.5,0,0.9-0.4,1-0.9c0-0.2,0.1-0.4,0.2-0.5c0.1-0.2,0.2-0.5,0.1-0.8C329.2,306.8,329,306.6,328.8,306.5z M368.3,305.4
			c0.4-0.4,0.7-1,0.7-1.6s-0.2-1.2-0.7-1.6l-11.2-11.1c-0.2-0.2-0.5-0.3-0.7-0.3h-6.6c-1.7,0-3.3,1-4,2.6c-1.4,3.1-4.5,5.1-7.9,5.1
			s-6.5-2-7.9-5.1c-0.7-1.6-2.3-2.6-4-2.6h-6.6c-0.3,0-0.5,0.1-0.7,0.3l-11.2,11.1c-0.4,0.4-0.7,1-0.7,1.6s0.2,1.2,0.7,1.6l7.1,7
			c0.4,0.4,1.1,0.4,1.5,0c0.2-0.2,0.3-0.4,0.3-0.7c0-0.3-0.1-0.5-0.3-0.7l-7.1-7c-0.1-0.1-0.1-0.2,0-0.3l10.9-10.8h6.1
			c0.9,0,1.8,0.5,2.1,1.4c1.7,3.9,5.5,6.4,9.8,6.4s8.1-2.5,9.8-6.4c0.4-0.8,1.2-1.4,2.1-1.4h6.1l10.9,10.8l0.1,0.1
			c0,0.1,0,0.1-0.1,0.1l-9.4,9.3v-7.1c0-0.6-0.5-1-1-1c-0.6,0-1,0.5-1,1v10.6H349c-0.2-0.4-0.5-0.6-0.9-0.6s-0.8,0.2-0.9,0.6h-2
			c-1.4,0-2.8,0.9-3.3,2.2v0.3l-0.3-2l2.3-2.2c0.3-0.3,0.4-0.7,0.3-1c-0.1-0.4-0.4-0.6-0.8-0.7l-3.2-0.5l-1.4-2.9
			c-0.2-0.3-0.5-0.6-0.9-0.6s-0.7,0.2-0.9,0.6l-1.4,2.9l-3.2,0.5c-0.4,0.1-0.7,0.3-0.8,0.7c-0.1,0.4,0,0.8,0.3,1l2.3,2.2l-0.5,3.1
			c-0.1,0.4,0.1,0.8,0.4,1s0.7,0.3,1.1,0.1l2.8-1.5l2.8,1.5c0.3,0.2,0.8,0.2,1.1-0.1l0,0v3.7c0,0,0,0-0.1,0h-0.5c-0.6,0-1,0.5-1,1
			c0,0.6,0.5,1,1,1h0.5c0,0,0,0,0.1,0v8.2c0,1.9,1.6,3.5,3.5,3.5h10.2l0,0c0,1-0.8,1.9-1.9,1.9h-31.1c-1,0-1.9-0.8-1.9-1.9v-7.8h18
			c0.6,0,1-0.5,1-1c0-0.6-0.5-1-1-1h-18v-23c0-0.6-0.5-1-1-1s-1,0.5-1,1v23h-5.1c-0.6,0-1,0.5-1,1c0,0.6,0.5,1,1,1h5.1v7.8
			c0,2.1,1.8,3.9,3.9,3.9h31.1c2.2,0,3.9-1.7,3.9-3.9l0,0h3c1.9,0,3.5-1.6,3.5-3.5V320c0-1.9-1.6-3.5-3.5-3.5h-3.1v-0.6L368.3,305.4
			z M339.7,316.3c-0.2,0.2-0.4,0.6-0.3,0.9l0.3,1.6l-1.5-0.8c-0.1-0.1-0.3-0.1-0.5-0.1s-0.3,0-0.5,0.1l-1.5,0.8l0.3-1.6
			c0.1-0.3-0.1-0.7-0.3-0.9l-1.2-1.2l1.6-0.2c0.3,0,0.6-0.3,0.8-0.6l0.7-1.5l0.7,1.5c0.2,0.3,0.4,0.5,0.8,0.6l1.6,0.2L339.7,316.3z
			 M360.5,318.8c0.8,0,1.4,0.6,1.4,1.4v15.2c0,0.8-0.6,1.4-1.4,1.4h-15.3c-0.8,0-1.4-0.6-1.4-1.4v-15.2c0-0.8,0.6-1.4,1.4-1.4H360.5
			z M349.2,310.3c0-0.6-0.5-1-1-1c-0.6,0-1,0.5-1,1v1c0,0.6,0.5,1,1,1c0.6,0,1-0.5,1-1V310.3z M344.3,307.2h1c0.6,0,1-0.5,1-1
			c0-0.6-0.5-1-1-1h-1c-0.6,0-1,0.5-1,1C343.2,306.7,343.7,307.2,344.3,307.2z M348.3,306.3c-0.4-0.4-1-0.5-1.4-0.1
			c-0.2,0.2-0.3,0.4-0.3,0.7c0,0.3,0.1,0.5,0.3,0.7c0.1,0.1,0.2,0.3,0.3,0.5c0.1,0.4,0.5,0.7,1,0.7c0.1,0,0.2,0,0.3-0.1
			c0.3-0.1,0.5-0.3,0.6-0.5s0.1-0.5,0-0.8C348.8,307,348.6,306.6,348.3,306.3z M348.1,312.7c-0.6,0-1,0.5-1,1v1c0,0.6,0.5,1,1,1
			c0.6,0,1-0.5,1-1v-1C349.2,313.2,348.7,312.7,348.1,312.7z M341.7,307.2c0.6,0,1-0.5,1-1c0-0.6-0.5-1-1-1h-1c-0.6,0-1,0.5-1,1
			c0,0.6,0.5,1,1,1H341.7z M338.7,327.2c0.6,0,1-0.5,1-1c0-0.6-0.5-1-1-1h-1c-0.6,0-1,0.5-1,1c0,0.6,0.5,1,1,1H338.7z M329.7,326.2
			c0,0.6,0.5,1,1,1h1c0.6,0,1-0.5,1-1c0-0.6-0.5-1-1-1h-1C330.2,325.2,329.7,325.7,329.7,326.2z M338.3,307.2c0.6,0,1-0.5,1-1
			c0-0.6-0.5-1-1-1h-1c-0.6,0-1,0.5-1,1c0,0.6,0.5,1,1,1H338.3z M335.2,327.2c0.6,0,1-0.5,1-1c0-0.6-0.5-1-1-1h-1c-0.6,0-1,0.5-1,1
			c0,0.6,0.5,1,1,1H335.2z M334.8,307.2c0.6,0,1-0.5,1-1c0-0.6-0.5-1-1-1h-1c-0.6,0-1,0.5-1,1c0,0.6,0.5,1,1,1H334.8z M338.6,333.1
			h-10.7c-0.6,0-1,0.5-1,1c0,0.6,0.5,1,1,1h10.7c0.6,0,1-0.5,1-1C339.6,333.5,339.1,333.1,338.6,333.1z"/>
	</g>
</g>
<g>
	<g>
		<path d="M293.8,319.8h-4c-0.6,0-1.2,0.5-1.2,1.2c0,0.6,0.5,1.2,1.2,1.2h1.2l-18.1,18.1l-2.6-2.6v-13.8c2.9-0.8,5.6-2.2,8-4.4l0,0
			c0.1-0.1,0.3-0.3,0.4-0.4c2.9-2.9,4.7-6.5,5.3-10.5c0.6-3.9-0.1-7.9-1.9-11.3c-0.3-0.6-1-0.8-1.6-0.5s-0.8,1-0.5,1.6
			c3.1,6,2.3,13.1-2.1,18.2c-1.5-3.2-4.3-5.6-7.8-6.4c1.2-1.2,1.9-2.8,1.9-4.6V302c0-3.6-3-6.6-6.6-6.6s-6.6,3-6.6,6.6v3.6
			c0,1.8,0.7,3.4,1.9,4.6c-3.4,0.8-6.3,3.2-7.8,6.4c-5.5-6.4-5.2-16.1,0.9-22.2c5.3-5.3,13.4-6.3,19.8-2.6c0.5,0.3,1.3,0.1,1.6-0.4
			c0.3-0.5,0.1-1.3-0.4-1.6c-7.3-4.3-16.6-3.1-22.6,2.9c-7.3,7.3-7.3,19.1,0,26.4c2.4,2.4,5.3,4,8.4,4.8v4.1l-3.2-3.2
			c-0.5-0.5-1.2-0.5-1.6,0l-5.7,5.7c-0.5,0.5-0.5,1.2,0,1.6c0.2,0.2,0.5,0.3,0.8,0.3s0.6-0.1,0.8-0.3l4.9-4.9l4.1,4.1v10.1
			c0,2.7,2.2,4.8,4.8,4.8s4.8-2.2,4.8-4.8V341l1.8,1.8c0.2,0.2,0.5,0.3,0.8,0.3s0.6-0.1,0.8-0.3l18.9-18.9v1.3
			c0,0.6,0.5,1.2,1.2,1.2c0.6,0,1.2-0.5,1.2-1.2v-4C294.9,320.4,294.4,319.8,293.8,319.8z M265.4,297.5c2.1,0,3.9,1.5,4.2,3.5
			l-1.8-1.1c-0.5-0.3-1.1-0.2-1.5,0.3c-0.9,1.1-2.3,1.7-3.7,1.7h-1.5v-0.2l0,0C261.1,299.4,263,297.5,265.4,297.5z M261.1,304.2h1.5
			c1.8,0,3.5-0.7,4.8-1.8l2.3,1.3v1.6c0,2.4-1.9,4.3-4.3,4.3s-4.3-1.9-4.3-4.3V304.2z M267.9,341.3c0,1.4-1.1,2.5-2.5,2.5
			s-2.5-1.1-2.5-2.5v-17c0.8,0.1,1.7,0.2,2.5,0.2s1.7-0.1,2.5-0.2V341.3z M265.4,322.1c-3.8,0-7.6-1.3-10.7-4
			c1.3-3.7,4.7-6.2,8.7-6.2h0.8v4.3c0,0.6,0.5,1.2,1.2,1.2c0.6,0,1.2-0.5,1.2-1.2v-4.3h0.8c4,0,7.4,2.5,8.7,6.2
			C273,320.8,269.2,322.1,265.4,322.1z M243.8,336.5l-7.6,7.6c-0.5,0.5-0.5,1.2,0,1.6c0.2,0.2,0.5,0.3,0.8,0.3s0.6-0.1,0.8-0.3
			l7.6-7.6c0.5-0.4,0.5-1.2,0-1.6C245,336.1,244.3,336.1,243.8,336.5z M247.9,333c-0.3,0-0.6,0.1-0.8,0.3c-0.2,0.2-0.3,0.5-0.3,0.8
			s0.1,0.6,0.3,0.8c0.2,0.2,0.5,0.3,0.8,0.3s0.6-0.1,0.8-0.3c0.2-0.2,0.3-0.5,0.3-0.8s-0.1-0.6-0.3-0.8S248.2,333,247.9,333z
			 M277.8,294.5c0.6,0,1.2-0.5,1.2-1.2c0-0.6-0.5-1.2-1.2-1.2c-0.6,0-1.2,0.5-1.2,1.2C276.6,294,277.2,294.5,277.8,294.5z"/>
	</g>
</g>
<linearGradient id="SVGID_12_" gradientUnits="userSpaceOnUse" x1="254.677" y1="1075" x2="276.077" y2="1075" gradientTransform="matrix(1 0 0 1 0 -758)">
	<stop  offset="0" style="stop-color:#05E6AA"/>
	<stop  offset="1" style="stop-color:#1CC1E4"/>
</linearGradient>
<path class="st20" d="M265.4,322.1c-3.8,0-7.6-1.3-10.7-4c1.3-3.7,4.7-6.2,8.7-6.2h0.8v4.3c0,0.6,0.5,1.2,1.2,1.2
	c0.6,0,1.2-0.5,1.2-1.2v-4.3h0.8c4,0,7.4,2.5,8.7,6.2C273,320.8,269.2,322.1,265.4,322.1z"/>
<path class="st21" d="M2.1,469h74v141l-37-11l-37,11C2.1,610,2.1,469,2.1,469z"/>
<path class="st22" d="M78.1,469h74v141l-37-11l-37,11C78.1,610,78.1,469,78.1,469z"/>
<g>
	<g>
		<path class="st14" d="M39.1,541.6c-3.9,0-7.1,3.2-7.1,7.1c0,3.9,3.2,7.1,7.1,7.1s7.1-3.2,7.1-7.1C46.2,544.8,43,541.6,39.1,541.6z
			 M39.1,553.3c-2.6,0-4.7-2.1-4.7-4.6c0-2.6,2.1-4.6,4.7-4.6c2.6,0,4.7,2.1,4.7,4.6C43.8,551.3,41.7,553.3,39.1,553.3z M59.6,555.8
			c3.9,0,7.1-3.2,7.1-7.1c0-3.9-3.2-7.1-7.1-7.1s-7.1,3.2-7.1,7.1S55.7,555.8,59.6,555.8z M59.6,544.1c2.6,0,4.7,2.1,4.7,4.6
			c0,2.6-2.1,4.6-4.7,4.6c-2.6,0-4.7-2.1-4.7-4.6C55,546.1,57,544.1,59.6,544.1z M65.5,569.2c-0.7,0-1.2,0.5-1.2,1.2v1.7
			c0,0.7,0.5,1.2,1.2,1.2s1.2-0.5,1.2-1.2v-1.7C66.7,569.8,66.2,569.2,65.5,569.2z M62.5,556.8h-3.9c-1.7,0-3.4,0.8-4.6,2.1
			l-3.2,3.7c-0.4,0.5-1,0.8-1.7,0.9v-1.9c0-2.6-2.1-4.7-4.7-4.7h-0.8c-0.4,0-0.5,0-4.3,3.3l-4-3.1c-0.2-0.2-0.5-0.3-0.8-0.3
			c-0.2,0-0.7,0-0.7,0c-2.6,0-4.7,2.1-4.7,4.7v1.9c-0.7-0.1-1.3-0.4-1.7-0.9l-3.2-3.7c-1.1-1.3-2.8-2.1-4.6-2.1h-3.9
			c-2.3,0-4.2,1.9-4.2,4.2v1.1c0,0.7,0.5,1.2,1.2,1.2s1.2-0.5,1.2-1.2v-1.1c0-1,0.8-1.7,1.7-1.7h3.9c1,0,2,0.4,2.7,1.2l3.2,3.7
			c1,1.1,2.3,1.7,3.8,1.7h1l0,0l0,0h2c0.5,0,0.9,0.4,0.9,0.9s-0.4,0.9-0.9,0.9H27c-0.3,0-0.7-0.1-0.9-0.4l-3.6-3.2
			c-0.5-0.5-1.3-0.4-1.7,0.1c-0.5,0.5-0.4,1.3,0.1,1.7l1.1,1v5.2c0,0.7,0.5,1.2,1.2,1.2s1.2-0.5,1.2-1.2v-3l0.1,0.1
			c0.4,0.4,0.9,0.6,1.4,0.8v2.2c0,0.7,0.6,1.2,1.2,1.2c0.7,0,1.2-0.5,1.2-1.2v-2h4c0.1,0,0.1,0,0.2,0s0.1,0,0.2,0h5.6
			c0.7,0,1.2-0.5,1.2-1.2s-0.5-1.2-1.2-1.2h-2.7c0.1-0.3,0.1-0.6,0.1-0.9c0-1.9-1.5-3.4-3.4-3.4h-0.8v-1.9c0-1.3,1-2.3,2.3-2.3
			c0.1,0,0.2,0,0.4,0l4.5,3.4c0.5,0.4,1.1,0.3,1.5,0c0,0,2.9-2.5,3.9-3.4h0.3c1.3,0,2.3,1,2.3,2.3v1.9h-0.8c-1.9,0-3.4,1.5-3.4,3.4
			c0,0.3,0,0.6,0.1,0.9h-1c-0.7,0-1.2,0.5-1.2,1.2s0.6,1.2,1.2,1.2h3.9c0.1,0,0.1,0,0.2,0h0.1h4v2c0,0.7,0.5,1.2,1.2,1.2
			s1.2-0.5,1.2-1.2v-2.2c0.5-0.2,1-0.4,1.4-0.8l0.1-0.1v3c0,0.7,0.5,1.2,1.2,1.2s1.2-0.5,1.2-1.2v-5.2l1.1-1
			c0.5-0.5,0.5-1.2,0.1-1.7c-0.5-0.5-1.2-0.5-1.7-0.1l-3.6,3.2c-0.3,0.2-0.6,0.4-0.9,0.4h-5.2c-0.5,0-0.9-0.4-0.9-0.9
			s0.4-0.9,0.9-0.9H48l0,0l0,0h0.9c1.5,0,2.8-0.6,3.8-1.7l3.2-3.7c0.7-0.8,1.7-1.2,2.7-1.2h3.9c1,0,1.7,0.8,1.7,1.7v6.1
			c0,0.7,0.5,1.2,1.2,1.2c0.7,0,1.2-0.5,1.2-1.2v-6.1C66.7,558.6,64.8,556.8,62.5,556.8z M18.6,555.8c3.9,0,7.1-3.2,7.1-7.1
			c0-3.9-3.2-7.1-7.1-7.1s-7.1,3.2-7.1,7.1S14.7,555.8,18.6,555.8z M18.6,544.1c2.6,0,4.7,2.1,4.7,4.6c0,2.6-2.1,4.6-4.7,4.6
			s-4.7-2.1-4.7-4.6C13.9,546.1,16,544.1,18.6,544.1z M12.7,563.9c-0.7,0-1.2,0.5-1.2,1.2v7c0,0.7,0.5,1.2,1.2,1.2s1.2-0.5,1.2-1.2
			v-7C13.9,564.5,13.4,563.9,12.7,563.9z M24.9,537.7l-0.8,2.7c-0.1,0.5,0,1,0.4,1.3c0.2,0.2,0.5,0.3,0.8,0.3c0.2,0,0.4,0,0.6-0.1
			l6.5-3.3h2.2c5.3,0,9.6-4.3,9.6-9.6s-4.3-9.6-9.6-9.6h-5.7c-5.3,0-9.6,4.3-9.6,9.6C19.2,532.8,21.5,536.2,24.9,537.7z M28.8,521.8
			h5.7c4,0,7.2,3.2,7.2,7.2c0,3.9-3.2,7.1-7.2,7.1H32l0,0h-0.1h-0.1h-0.1h-0.1l0,0l-4.3,2.1l0.3-1.1V537v-0.1v-0.1v-0.1v-0.1v-0.1
			v-0.1v-0.1c0,0,0-0.1-0.1-0.1c0,0,0-0.1-0.1-0.1l-0.1-0.1l-0.1-0.1c0,0-0.1,0-0.1-0.1c0,0-0.1,0-0.1-0.1h-0.1h-0.1
			c-3-0.9-5.1-3.7-5.1-6.9C21.7,525,24.9,521.8,28.8,521.8z M29.9,527.9h0.5V526h-0.5c-0.3,0-0.5-0.2-0.5-0.5s0.2-0.5,0.5-0.5h2.9
			c0.3,0,0.5,0.2,0.5,0.5c0,1.2-0.6,2.2-1.6,2.9c-0.8,0.5-1.3,1.4-1.3,2.4v0.8h1.9v-0.8c0-0.3,0.2-0.6,0.5-0.8
			c1.5-1,2.4-2.7,2.4-4.4c0-1.3-1.1-2.4-2.4-2.4h-2.9c-1.3,0-2.4,1.1-2.4,2.4C27.5,526.9,28.6,527.9,29.9,527.9z M30.4,534.5h1.9
			v-1.9h-1.9V534.5z"/>
	</g>
</g>
<g>
	<g>
		<path class="st14" d="M115.1,555.7c3.9,0,7.1-3.2,7.1-7.1c0-3.9-3.2-7.1-7.1-7.1s-7.1,3.2-7.1,7.1
			C108.1,552.6,111.2,555.7,115.1,555.7z M115.1,544c2.6,0,4.6,2.1,4.6,4.6c0,2.6-2.1,4.6-4.6,4.6c-2.6,0-4.6-2.1-4.6-4.6
			S112.6,544,115.1,544z M128.4,548.6c0,3.9,3.2,7.1,7.1,7.1s7.1-3.2,7.1-7.1c0-3.9-3.2-7.1-7.1-7.1
			C131.6,541.5,128.4,544.7,128.4,548.6z M140.1,548.6c0,2.6-2.1,4.6-4.6,4.6c-2.6,0-4.6-2.1-4.6-4.6c0-2.6,2.1-4.6,4.6-4.6
			C138.1,544,140.1,546.1,140.1,548.6z M138.4,556.7h-3.9l0,0c-1.7,0-3.4,0.8-4.5,2.1l-3.2,3.7c-0.4,0.5-1,0.8-1.7,0.9v-1.9
			c0-2.6-2.1-4.7-4.7-4.7h-0.8c-0.4,0-0.5,0-4.3,3.3l-4-3.1c-0.2-0.2-0.5-0.3-0.8-0.2c-0.2,0-0.7,0-0.7,0c-2.6,0-4.7,2.1-4.7,4.7
			v1.9c-0.7-0.1-1.3-0.4-1.7-0.9l-3.2-3.7c-1.1-1.3-2.8-2.1-4.5-2.1l0,0h-3.9c-2.3,0-4.2,1.9-4.2,4.2v11.2c0,0.7,0.5,1.2,1.2,1.2
			s1.2-0.5,1.2-1.2v-11.2c0-1,0.8-1.7,1.7-1.7h3.9l0,0c1,0,2,0.4,2.7,1.2l3.2,3.7c1,1.1,2.3,1.7,3.8,1.7h1l0,0l0,0h2
			c0.5,0,0.9,0.4,0.9,0.9s-0.4,0.9-0.9,0.9h-5.2c-0.3,0-0.7-0.1-0.9-0.4l-3.6-3.3c-0.5-0.5-1.3-0.4-1.7,0.1
			c-0.5,0.5-0.4,1.3,0.1,1.7l1.1,1v5.2c0,0.7,0.5,1.2,1.2,1.2s1.2-0.5,1.2-1.2v-3l0.1,0.1c0.4,0.4,0.9,0.6,1.3,0.8v2.2
			c0,0.7,0.5,1.2,1.2,1.2s1.2-0.5,1.2-1.2v-2h3.9c0.1,0,0.1,0,0.2,0s0.1,0,0.2,0h12.9c0.1,0,0.1,0,0.2,0h0.1h3.9v2
			c0,0.7,0.5,1.2,1.2,1.2s1.2-0.5,1.2-1.2v-2.2c0.5-0.2,1-0.4,1.3-0.8l0.1-0.1v3c0,0.7,0.5,1.2,1.2,1.2s1.2-0.5,1.2-1.2v-5.2l1.1-1
			c0.5-0.5,0.5-1.2,0.1-1.7c-0.5-0.5-1.2-0.5-1.7-0.1l-3.6,3.3c-0.3,0.2-0.6,0.4-0.9,0.4h-5.2c-0.5,0-0.9-0.4-0.9-0.9
			s0.4-0.9,0.9-0.9h2l0,0l0,0h0.9c1.4,0,2.8-0.6,3.8-1.7l3.2-3.7c0.7-0.8,1.7-1.2,2.7-1.2l0,0h3.9c1,0,1.7,0.8,1.7,1.7v11.2
			c0,0.7,0.5,1.2,1.2,1.2s1.2-0.5,1.2-1.2v-11.2C142.6,558.6,140.7,556.7,138.4,556.7z M122.7,563.3h-0.8c-1.9,0-3.4,1.5-3.4,3.4
			c0,0.3,0,0.6,0.1,0.9h-7c0.1-0.3,0.1-0.6,0.1-0.9c0-1.9-1.5-3.4-3.4-3.4h-0.8v-1.9c0-1.3,1-2.3,2.3-2.3c0.1,0,0.2,0,0.4,0l4.4,3.4
			c0.5,0.4,1.1,0.3,1.5,0c0,0,2.9-2.5,3.9-3.4h0.3c1.3,0,2.3,1,2.3,2.3L122.7,563.3L122.7,563.3z M94.7,555.7c3.9,0,7.1-3.2,7.1-7.1
			c0-3.9-3.2-7.1-7.1-7.1s-7.1,3.2-7.1,7.1C87.6,552.6,90.8,555.7,94.7,555.7z M94.7,544c2.6,0,4.6,2.1,4.6,4.6
			c0,2.6-2.1,4.6-4.6,4.6s-4.6-2.1-4.6-4.6S92.1,544,94.7,544z M121.8,537.5v3.4c0,0.5,0.3,0.9,0.7,1.1c0.2,0.1,0.3,0.1,0.5,0.1
			c0.3,0,0.5-0.1,0.8-0.3l5.4-4.3h6.7c2.4,0,4.3-1.9,4.3-4.3v-9.5c0-2.4-1.9-4.3-4.3-4.3h-13.8c-2.4,0-4.3,1.9-4.3,4.3v9.5
			C117.7,535.5,119.5,537.4,121.8,537.5z M120.2,523.7c0-1,0.8-1.9,1.9-1.9h13.8c1,0,1.9,0.8,1.9,1.9v9.5c0,1-0.8,1.9-1.9,1.9h-7.1
			c-0.3,0-0.5,0.1-0.8,0.3l-3.7,3v-2c0-0.7-0.5-1.2-1.2-1.2h-1c-1,0-1.9-0.8-1.9-1.9V523.7z M127.4,532.2c0.2,0.3,0.6,0.4,0.9,0.4
			h0.1c0.4,0,0.7-0.2,0.9-0.5l4.5-6.3c0.4-0.6,0.3-1.3-0.3-1.7c-0.5-0.4-1.3-0.3-1.7,0.3l-3.6,5l-1.9-2c-0.5-0.5-1.2-0.5-1.7-0.1
			c-0.5,0.5-0.5,1.2-0.1,1.7L127.4,532.2z"/>
	</g>
</g>
<g>
	<g>
		<rect x="2" y="614.2" class="st23" width="60" height="60"/>
	</g>
</g>
<path class="st14" d="M32.5,654.9c2.3,0,4.1-0.5,5.4-1.6c1.3-1,2-2.6,2-4.6c0-1.3-0.4-2.4-1.1-3.4c-0.7-1-1.8-1.5-3.2-1.8
	c0.9-0.4,1.7-1,2.2-1.7c0.5-0.8,0.8-1.6,0.8-2.5c0-1.9-0.7-3.4-2-4.4c-1.3-1-3.2-1.5-5.5-1.5h-7v21.3H32.5z M32.4,645.2h0.2
	c1.2,0,2.1,0.4,2.8,1c0.7,0.6,1,1.5,1,2.6c0,1.1-0.3,1.9-1,2.4c-0.7,0.6-1.6,0.8-2.8,0.8h-4.8v-6.9H32.4z M27.7,636.4h3.4
	c1.3,0,2.3,0.3,2.9,0.8c0.7,0.5,1,1.3,1,2.4c0,1-0.3,1.7-1,2.2c-0.6,0.5-1.5,0.8-2.6,0.8h-3.8V636.4z"/>
<g>
	<g>
		<rect x="64" y="614.1" class="st23" width="60" height="60"/>
	</g>
</g>
<path class="st14" d="M102.7,642.2c0-2.6-0.8-4.8-2.5-6.5c-1.6-1.7-3.8-2.6-6.4-2.6c-2.6,0-4.6,0.9-6.2,2.6
	c-1.6,1.7-2.4,3.9-2.4,6.5v3.8c0,2.6,0.8,4.8,2.4,6.5c1.6,1.7,3.7,2.6,6.2,2.6c2.6,0,4.7-0.9,6.4-2.6c1.6-1.7,2.5-3.9,2.5-6.5V642.2
	z M99.2,646.1c0,1.8-0.5,3.3-1.4,4.4c-0.9,1.1-2.2,1.7-3.9,1.7c-1.6,0-2.8-0.6-3.7-1.7c-0.9-1.1-1.4-2.6-1.4-4.4v-3.9
	c0-1.8,0.5-3.2,1.4-4.4c0.9-1.1,2.1-1.7,3.7-1.7c1.6,0,2.9,0.6,3.9,1.7c0.9,1.1,1.4,2.6,1.4,4.4V646.1z"/>
</svg>
