<?xml version="1.0" encoding="utf-8"?>
<!-- Generator: Adobe Illustrator 22.1.0, SVG Export Plug-In . SVG Version: 6.00 Build 0)  -->
<svg version="1.1" id="Layer_1" xmlns="http://www.w3.org/2000/svg" xmlns:xlink="http://www.w3.org/1999/xlink" x="0px" y="0px"
	 viewBox="0 0 18 6" style="enable-background:new 0 0 18 6;" xml:space="preserve">
<style type="text/css">
	.st0{fill:#FFFFFF;}
	.st1{fill:#05E6AA;}
</style>
<path class="st0" d="M4.5,5.5c0.1,0,0.2,0,0.2-0.1l3.7-3.6c0.1-0.1,0.1-0.1,0.1-0.2c0-0.1,0-0.2-0.1-0.2L7.6,0.6
	C7.5,0.5,7.4,0.5,7.4,0.5c-0.1,0-0.2,0-0.2,0.1L4.5,3.2L1.9,0.6C1.8,0.5,1.7,0.5,1.6,0.5c-0.1,0-0.2,0-0.2,0.1L0.6,1.4
	C0.5,1.5,0.5,1.5,0.5,1.6c0,0.1,0,0.2,0.1,0.2l3.7,3.6C4.3,5.5,4.4,5.5,4.5,5.5z"/>
<path class="st1" d="M13.5,5.5c0.1,0,0.2,0,0.2-0.1l3.7-3.6c0.1-0.1,0.1-0.1,0.1-0.2c0-0.1,0-0.2-0.1-0.2l-0.8-0.8
	c-0.1-0.1-0.1-0.1-0.2-0.1c-0.1,0-0.2,0-0.2,0.1l-2.6,2.6l-2.6-2.6c-0.1-0.1-0.1-0.1-0.2-0.1c-0.1,0-0.2,0-0.2,0.1L9.6,1.4
	C9.5,1.5,9.5,1.5,9.5,1.6c0,0.1,0,0.2,0.1,0.2l3.7,3.6C13.3,5.5,13.4,5.5,13.5,5.5z"/>
</svg>
