<?xml version="1.0" encoding="utf-8"?>
<!-- Generator: Adobe Illustrator 15.1.0, SVG Export Plug-In . SVG Version: 6.00 Build 0)  -->
<!DOCTYPE svg PUBLIC "-//W3C//DTD SVG 1.1//EN" "http://www.w3.org/Graphics/SVG/1.1/DTD/svg11.dtd">
<svg version="1.1" id="Layer_1" xmlns="http://www.w3.org/2000/svg" xmlns:xlink="http://www.w3.org/1999/xlink" x="0px" y="0px"
	 width="383px" height="659px" viewBox="0 0 383 659" enable-background="new 0 0 383 659" xml:space="preserve">
<rect x="6" y="1" fill="none" width="224" height="44"/>
<g>
	<g>
		<path fill="#FFFFFF" d="M85.244,17.061c-2.589,0-4.048,1.273-4.345,1.584c-0.506-1.117-1.519-1.584-3.125-1.584
			c-2.56,0-3.989,1.429-4.197,1.636l-0.268-1.376h-1.786v12.987h2.143V19.814c0.179-0.233,1.31-1.401,3.245-1.401
			c1.428,0,2.172,0.492,2.172,2.57v9.325h2.173v-9.559c0-0.337-0.03-0.623-0.06-0.909c0.238-0.286,1.339-1.428,3.245-1.428
			c1.458,0,2.232,0.467,2.232,2.57v9.325h2.173v-9.533C88.846,18.048,87.685,17.061,85.244,17.061z M92.565,18.49h6.965
			l-7.62,10.779v1.039h10.121l-0.06-1.168h-7.5l7.56-10.78v-1.039h-9.555L92.565,18.49z M104.233,23.711h6.816V22.49h-6.816V23.711z
			 M119.77,29.425c-2.561,0-4.317-1.35-4.317-5.507c0-4.156,1.43-5.714,4.436-5.714c1.964,0,3.661,1.039,3.661,1.039l0.268-1.064
			c0,0-1.846-1.117-4.167-1.117c-4.287,0-6.489,2.493-6.489,6.884c0,4.493,2.381,6.623,6.429,6.623c3.632,0,4.823-2.207,4.823-2.207
			l-0.954-0.545C123.46,27.815,122.359,29.425,119.77,29.425z M132.092,17.061c-4.167,0-6.34,2.52-6.34,6.753
			c0,4.234,2.173,6.753,6.34,6.753c4.048,0,6.34-2.519,6.34-6.753C138.432,19.58,136.259,17.061,132.092,17.061z M132.092,29.425
			c-2.829,0-4.048-1.896-4.048-5.611s1.22-5.609,4.048-5.609c2.797,0,4.048,1.896,4.048,5.609
			C136.14,27.556,134.889,29.425,132.092,29.425z M143.7,19.996l-0.328-2.676h-1.607v12.987h2.173v-9.351
			c0.06-0.234,0.833-2.441,2.768-2.441c0.923,0,2.232,0.389,2.232,0.389l0.209-1.428c0,0-1.28-0.416-2.203-0.416
			C144.414,17.061,143.7,19.996,143.7,19.996z M157.865,17.061c-2.797,0-4.016,1.533-4.225,1.818l-0.268-1.559h-1.786v19.534
			l2.145-0.052v-7.481h0.029c0,0,1.073,1.246,3.809,1.246c3.93,0,6.043-2.856,6.043-7.116
			C163.611,19.373,161.318,17.061,157.865,17.061z M156.855,29.322c-1.994,0-2.977-0.986-3.125-1.143V20.1
			c0,0,0.982-1.766,3.422-1.766c2.59,0,4.166,1.401,4.166,5.169C161.318,27.348,159.98,29.322,156.855,29.322z M168.283,28.152
			c-0.326,0-0.654,0.104-0.922,0.313c-0.297,0.232-0.416,0.571-0.416,0.883c0,0.338,0.119,0.65,0.416,0.884
			c0.268,0.208,0.596,0.313,0.922,0.313c0.326,0,0.686-0.104,0.953-0.313c0.268-0.232,0.387-0.546,0.387-0.884
			c0-0.312-0.119-0.649-0.387-0.883C168.969,28.257,168.609,28.152,168.283,28.152z M179.654,29.425
			c-2.561,0-4.316-1.35-4.316-5.507c0-4.156,1.43-5.714,4.436-5.714c1.965,0,3.66,1.039,3.66,1.039l0.27-1.064
			c0,0-1.848-1.117-4.168-1.117c-4.287,0-6.49,2.493-6.49,6.884c0,4.493,2.383,6.623,6.43,6.623c3.633,0,4.822-2.207,4.822-2.207
			l-0.953-0.545C183.344,27.815,182.244,29.425,179.654,29.425z M191.977,17.061c-4.168,0-6.34,2.52-6.34,6.753
			c0,4.234,2.172,6.753,6.34,6.753c4.046,0,6.339-2.519,6.339-6.753C198.316,19.58,196.143,17.061,191.977,17.061z M191.977,29.425
			c-2.83,0-4.049-1.896-4.049-5.611s1.219-5.609,4.049-5.609c2.796,0,4.046,1.896,4.046,5.609
			C196.023,27.556,194.773,29.425,191.977,29.425z M215.4,17.061c-2.59,0-4.049,1.273-4.346,1.584
			c-0.507-1.117-1.519-1.584-3.125-1.584c-2.562,0-3.99,1.429-4.197,1.636l-0.271-1.376h-1.785v12.987h2.144V19.814
			c0.18-0.233,1.311-1.401,3.246-1.401c1.428,0,2.172,0.492,2.172,2.57v9.325h2.174v-9.559c0-0.337-0.031-0.623-0.061-0.909
			c0.237-0.286,1.34-1.428,3.244-1.428c1.459,0,2.231,0.467,2.231,2.57v9.325H219v-9.533C219,18.048,217.842,17.061,215.4,17.061z
			 M67.416,29.425c-0.357,0-0.774-0.208-0.774-1.766v-6.364c0-3.247-1.667-4.234-4.941-4.234c-2.173,0-4.197,1.195-4.197,1.195
			l0.238,1.063c0,0,1.905-1.115,3.631-1.115c2.232,0,3.096,0.7,3.096,3.193v1.377c-3.096,0.286-8.424,1.093-8.424,4.599
			c0,2.052,1.786,3.194,4.346,3.194c3.156,0,4.227-1.946,4.227-1.946h0.03c0.119,1.531,0.714,1.946,1.697,1.946
			c0.863,0,2.322-0.492,2.322-0.492l-0.09-0.885C68.577,29.191,67.862,29.425,67.416,29.425z M64.469,27.529
			c0,0-0.982,1.896-3.423,1.896c-1.638,0-2.769-0.754-2.769-2.286c0-2.415,3.274-3.117,6.191-3.403L64.469,27.529L64.469,27.529z"/>
	</g>
</g>
<rect x="6" y="91" fill="none" width="376" height="283"/>
<rect x="7" y="380" fill="none" width="265" height="265"/>
<path fill="#FFFFFF" d="M271,382v263H8C145.814,629.16,255.162,519.814,271,382z"/>
<g>
	<g>
		
			<linearGradient id="SVGID_1_" gradientUnits="userSpaceOnUse" x1="408.7686" y1="341.7698" x2="408.7684" y2="67.0246" gradientTransform="matrix(1 0 0 -1 -270.9902 434.4009)">
			<stop  offset="0" style="stop-color:#05E6AA"/>
			<stop  offset="1" style="stop-color:#1CC1E4"/>
		</linearGradient>
		<path fill="url(#SVGID_1_)" d="M172.521,102.476l-8.007,41.156c40.212,12.745,67.697,51.928,63.873,95.637
			c-4.428,50.608-49.109,88.039-99.801,83.604c-42.247-3.695-75.237-35.336-82.523-75.063l-40.869,7.795
			c10.662,57.646,58.504,103.521,119.748,108.879c73.59,6.438,138.465-47.998,144.904-121.588
			C275.551,177.676,233.4,119.394,172.521,102.476z"/>
	</g>
</g>
<g>
	<g>
		
			<linearGradient id="SVGID_2_" gradientUnits="userSpaceOnUse" x1="338.5781" y1="341.4387" x2="338.5781" y2="219.5836" gradientTransform="matrix(1 0 0 -1 -270.9902 434.4009)">
			<stop  offset="0" style="stop-color:#05E6AA"/>
			<stop  offset="1" style="stop-color:#05E6AA"/>
		</linearGradient>
		<path fill="url(#SVGID_2_)" d="M121.335,97.327C63.618,103.817,15.842,147.47,5,205.557l40.772,8.206
			c7.524-41.575,42.642-72.414,84.405-75.197L121.335,97.327z"/>
	</g>
</g>
<g>
	<g>
		
			<linearGradient id="SVGID_3_" gradientUnits="userSpaceOnUse" x1="306.5723" y1="430.886" x2="306.5723" y2="398.0178" gradientTransform="matrix(1 0 0 -1 -270.9902 434.4009)">
			<stop  offset="0" style="stop-color:#05E6AA"/>
			<stop  offset="1" style="stop-color:#1CC1E4"/>
		</linearGradient>
		<path fill="url(#SVGID_3_)" d="M39.36,7.451l-0.871,4.476c4.373,1.386,7.362,5.647,6.946,10.4
			c-0.481,5.503-5.34,9.573-10.853,9.092c-4.594-0.402-8.182-3.843-8.974-8.163l-4.444,0.848c1.16,6.27,6.362,11.258,13.022,11.84
			c8.002,0.7,15.058-5.22,15.758-13.222C50.564,15.629,45.98,9.291,39.36,7.451z"/>
	</g>
</g>
<linearGradient id="SVGID_4_" gradientUnits="userSpaceOnUse" x1="292.1523" y1="421.0696" x2="305.7637" y2="421.0696" gradientTransform="matrix(1 0 0 -1 -270.9902 434.4009)">
	<stop  offset="0" style="stop-color:#05E6AA"/>
	<stop  offset="1" style="stop-color:#05E6AA"/>
</linearGradient>
<path fill="url(#SVGID_4_)" d="M25.596,19.662l-4.434-0.893C22.341,12.453,27.537,7.706,33.813,7l0.961,4.484
	C30.233,11.788,26.414,15.141,25.596,19.662z"/>
<rect x="6" y="48" fill="none" width="224" height="44"/>
<g>
	<g>
		<path fill="#7C7F8B" d="M85.244,64.061c-2.589,0-4.048,1.273-4.345,1.584c-0.506-1.117-1.519-1.584-3.125-1.584
			c-2.56,0-3.989,1.429-4.197,1.636l-0.268-1.376h-1.786v12.988h2.143V66.814c0.179-0.233,1.31-1.401,3.245-1.401
			c1.428,0,2.172,0.492,2.172,2.57v9.326h2.173v-9.56c0-0.337-0.03-0.623-0.06-0.909c0.238-0.286,1.339-1.428,3.245-1.428
			c1.458,0,2.232,0.467,2.232,2.57v9.326h2.173v-9.533C88.846,65.048,87.685,64.061,85.244,64.061z M92.565,65.49h6.965l-7.62,10.78
			v1.039h10.121l-0.06-1.168h-7.5l7.56-10.781v-1.039h-9.555L92.565,65.49z M104.233,70.711h6.816V69.49h-6.816V70.711z
			 M119.77,76.426c-2.561,0-4.317-1.351-4.317-5.508c0-4.156,1.43-5.714,4.436-5.714c1.964,0,3.661,1.039,3.661,1.039l0.268-1.064
			c0,0-1.846-1.117-4.167-1.117c-4.287,0-6.489,2.493-6.489,6.884c0,4.492,2.381,6.623,6.429,6.623c3.632,0,4.823-2.207,4.823-2.207
			l-0.954-0.546C123.46,74.815,122.359,76.426,119.77,76.426z M132.092,64.061c-4.167,0-6.34,2.52-6.34,6.753
			c0,4.234,2.173,6.754,6.34,6.754c4.048,0,6.34-2.52,6.34-6.754C138.432,66.58,136.259,64.061,132.092,64.061z M132.092,76.426
			c-2.829,0-4.048-1.896-4.048-5.611s1.22-5.609,4.048-5.609c2.797,0,4.048,1.896,4.048,5.609
			C136.14,74.556,134.889,76.426,132.092,76.426z M143.7,66.996l-0.328-2.676h-1.607v12.988h2.173v-9.352
			c0.06-0.234,0.833-2.441,2.768-2.441c0.923,0,2.232,0.389,2.232,0.389l0.209-1.428c0,0-1.28-0.416-2.203-0.416
			C144.414,64.061,143.7,66.996,143.7,66.996z M157.865,64.061c-2.797,0-4.016,1.533-4.225,1.818l-0.268-1.559h-1.786v19.535
			l2.145-0.053v-7.48h0.029c0,0,1.073,1.246,3.809,1.246c3.93,0,6.043-2.856,6.043-7.116
			C163.611,66.373,161.318,64.061,157.865,64.061z M156.855,76.322c-1.994,0-2.977-0.987-3.125-1.144V67.1
			c0,0,0.982-1.766,3.422-1.766c2.59,0,4.166,1.401,4.166,5.169C161.318,74.348,159.98,76.322,156.855,76.322z M168.283,75.152
			c-0.326,0-0.654,0.104-0.922,0.313c-0.297,0.231-0.416,0.57-0.416,0.883c0,0.338,0.119,0.65,0.416,0.883
			c0.268,0.209,0.596,0.313,0.922,0.313c0.326,0,0.686-0.104,0.953-0.313c0.268-0.231,0.387-0.545,0.387-0.883
			c0-0.313-0.119-0.65-0.387-0.883C168.969,75.257,168.609,75.152,168.283,75.152z M179.654,76.426
			c-2.561,0-4.316-1.351-4.316-5.508c0-4.156,1.43-5.714,4.436-5.714c1.965,0,3.66,1.039,3.66,1.039l0.27-1.064
			c0,0-1.848-1.117-4.168-1.117c-4.287,0-6.49,2.493-6.49,6.884c0,4.492,2.383,6.623,6.43,6.623c3.633,0,4.822-2.207,4.822-2.207
			l-0.953-0.546C183.344,74.815,182.244,76.426,179.654,76.426z M191.977,64.061c-4.168,0-6.34,2.52-6.34,6.753
			c0,4.234,2.172,6.754,6.34,6.754c4.046,0,6.339-2.52,6.339-6.754C198.316,66.58,196.143,64.061,191.977,64.061z M191.977,76.426
			c-2.83,0-4.049-1.896-4.049-5.611s1.219-5.609,4.049-5.609c2.796,0,4.046,1.896,4.046,5.609
			C196.023,74.556,194.773,76.426,191.977,76.426z M215.4,64.061c-2.59,0-4.049,1.273-4.346,1.584
			c-0.507-1.117-1.519-1.584-3.125-1.584c-2.562,0-3.99,1.429-4.197,1.636l-0.271-1.376h-1.785v12.988h2.144V66.814
			c0.18-0.233,1.311-1.401,3.246-1.401c1.428,0,2.172,0.492,2.172,2.57v9.326h2.174v-9.56c0-0.337-0.031-0.623-0.061-0.909
			c0.237-0.286,1.34-1.428,3.244-1.428c1.459,0,2.231,0.467,2.231,2.57v9.326H219v-9.533C219,65.048,217.842,64.061,215.4,64.061z
			 M67.416,76.426c-0.357,0-0.774-0.209-0.774-1.767v-6.364c0-3.247-1.667-4.234-4.941-4.234c-2.173,0-4.197,1.195-4.197,1.195
			l0.238,1.063c0,0,1.905-1.115,3.631-1.115c2.232,0,3.096,0.7,3.096,3.193v1.377c-3.096,0.285-8.424,1.093-8.424,4.599
			c0,2.053,1.786,3.194,4.346,3.194c3.156,0,4.227-1.946,4.227-1.946h0.03c0.119,1.53,0.714,1.946,1.697,1.946
			c0.863,0,2.322-0.493,2.322-0.493l-0.09-0.884C68.577,76.191,67.862,76.426,67.416,76.426z M64.469,74.529
			c0,0-0.982,1.896-3.423,1.896c-1.638,0-2.769-0.754-2.769-2.286c0-2.415,3.274-3.117,6.191-3.403L64.469,74.529L64.469,74.529z"/>
	</g>
</g>
<g>
	<g>
		<linearGradient id="SVGID_5_" gradientUnits="userSpaceOnUse" x1="21.1641" y1="68.7258" x2="50" y2="68.7258">
			<stop  offset="0" style="stop-color:#05E6AA"/>
			<stop  offset="1" style="stop-color:#1CC1E4"/>
		</linearGradient>
		<path fill="url(#SVGID_5_)" d="M39.36,54.451l-0.871,4.476c4.373,1.386,7.362,5.647,6.946,10.4
			c-0.481,5.503-5.34,9.573-10.853,9.092c-4.594-0.401-8.182-3.843-8.974-8.163l-4.444,0.848c1.16,6.271,6.362,11.258,13.022,11.84
			c8.002,0.701,15.058-5.219,15.758-13.222C50.564,62.629,45.98,56.291,39.36,54.451z"/>
	</g>
</g>
<linearGradient id="SVGID_6_" gradientUnits="userSpaceOnUse" x1="21.1621" y1="60.3313" x2="34.7739" y2="60.3313">
	<stop  offset="0" style="stop-color:#05E6AA"/>
	<stop  offset="1" style="stop-color:#05E6AA"/>
</linearGradient>
<path fill="url(#SVGID_6_)" d="M25.596,66.662l-4.434-0.893c1.179-6.316,6.375-11.063,12.651-11.77l0.961,4.484
	C30.233,58.788,26.414,62.141,25.596,66.662z"/>
</svg>
