<svg xmlns="http://www.w3.org/2000/svg" width="147" height="22" viewBox="0 0 147 22">
    <g fill="none" fill-rule="evenodd">
        <path fill="#F05C2D" d="M5.535 21.911h26.017V10.134H5.535v11.777zm.578-.584h24.86v-10.61H6.114v10.61z"/>
        <path fill="#3E3935" d="M16.05 1.005c-1.98 0-3.849 1.962-4.226 3.863-.165.816-.033 1.523.395 2.165 1.01 1.51 3.471 2.323 5.679 2.83.158-.239.314-.483.468-.735.523-1.35 1.594-4.641.47-6.624-.452-.8-1.237-1.291-2.33-1.464a2.939 2.939 0 0 0-.457-.035M6.1 17.335c-3.462 0-5.988-1.206-6.1-1.26l.255-.534c.026.014 2.795 1.331 6.4 1.193 4.37-.171 8.027-2.304 10.885-6.346-2.25-.537-4.72-1.404-5.806-3.023-.513-.768-.677-1.647-.484-2.614C11.715 2.4 14.101.065 16.597.455c1.277.2 2.203.792 2.747 1.754 1.258 2.218.11 5.748-.442 7.162l-.024.047c-.122.197-.242.39-.364.579.589.125 1.147.228 1.639.32l.801.151c2.004.4 3.985.621 5.828.8l-.057.59c-1.857-.18-3.855-.404-5.884-.808-.236-.047-.504-.096-.794-.15-.562-.104-1.208-.224-1.89-.373-3.719 5.37-8.261 6.678-11.506 6.8-.187.005-.371.008-.551.008"/>
        <path fill="#3E3935" d="M23 4.001a1.83 1.83 0 0 0-.52.078c-1.303.388-1.922 2.12-2.056 3.484-.068.689.025 1.34.268 1.938.044-.012.087-.027.13-.042 2.27-.75 4.523-1.8 4.037-3.905a2.04 2.04 0 0 0-.937-1.299A1.829 1.829 0 0 0 23 4.001zm-.162 8.51c-1.13-.601-1.96-1.382-2.461-2.293-1.232.362-2.494.612-3.721.855-.464.091-.929.185-1.392.28l-.12-.58c.466-.097.932-.19 1.4-.282 1.183-.234 2.399-.474 3.579-.815-.26-.67-.358-1.4-.282-2.172.16-1.621.892-3.523 2.474-3.996a2.379 2.379 0 0 1 1.901.235 2.62 2.62 0 0 1 1.212 1.675c.676 2.919-2.897 4.1-4.423 4.606a.856.856 0 0 0-.047.014c.453.766 1.18 1.43 2.154 1.95l-.274.523z"/>
        <path fill="#3E3935" d="M17.947 10.026v11.887h.684v-11.22h.493v11.22h.686V10.026zM39.37 11.522v3.971h4.8v.82h-4.8v5.004h-.854V10.703h6.87v.819zM47.213 21.318h.855V10.703h-.855zM51.398 12.052h-.03c0 .016.045 1.212.045 2.516v6.748h-.856V10.703h.87l6.614 9.189h.016c0-.016-.031-1.214-.031-2.472v-6.717h.854v10.613h-.87l-6.612-9.264zM64.85 20.498c2.564 0 4.633-1.5 4.633-4.442 0-2.927-2.04-4.534-4.753-4.534h-2.505v8.976h2.625zm-.089-9.794c3.283 0 5.592 2.06 5.592 5.352 0 3.304-2.31 5.261-5.473 5.261H61.37V10.704h3.39zM84.586 15.934c0-1.381.044-3.836.044-3.852h-.03c-.014.016-.39.833-1.454 2.745l-2.16 3.882h-.556l-2.144-3.837c-1.11-1.957-1.469-2.774-1.484-2.79h-.031c0 .016.046 2.47.046 3.852v5.383h-.854V10.703h.899l3.84 6.929h.029l3.825-6.929h.898v10.614h-.868v-5.383zM87.929 10.703h6.897v.819h-6.042v3.79h4.769v.833h-4.77v4.353h6.06v.82H87.93zM105.97 14.447c-.42-.985-1.139-2.729-1.155-2.743h-.031c-.014.014-.733 1.742-1.155 2.728l-1.273 2.973h4.888l-1.275-2.958zm-3.959 3.761l-1.335 3.109h-.914l4.59-10.614h.912l4.574 10.614h-.93l-1.334-3.109h-5.563zM124.116 21.317c0-1.38.016-1.608.016-1.759h-.016c-.494.637-1.83 1.941-4.155 1.941-2.984 0-5.367-2.168-5.367-5.506 0-3.38 2.353-5.503 5.413-5.503 2.414 0 4.08 1.32 4.739 2.852l-.84.242c-.315-.651-1.38-2.26-3.899-2.26-2.64 0-4.543 1.775-4.543 4.655 0 2.911 1.992 4.701 4.543 4.701 2.13 0 3.644-1.259 4.094-2.138v-1.79h-3.27v-.818h4.08v5.383h-.795zM127.115 21.318h.855V10.703h-.855zM131.314 11.522v3.971h4.8v.82h-4.8v5.004h-.854V10.703h6.868v.819zM143.072 11.522v9.795h-.87v-9.795h-3.72v-.819h8.308v.819z"/>
    </g>
</svg>
