<svg xmlns="http://www.w3.org/2000/svg" width="130" height="16" viewBox="0 0 130 16">
    <g fill="#E54314" fill-rule="nonzero">
        <path d="M33.319 3.59a7.373 7.373 0 0 0-6.719 0c-1.997 1.053-3.24 3.173-3.206 5.472-.03 2.302 1.21 4.425 3.206 5.485a7.288 7.288 0 0 0 6.719 0c1.997-1.059 3.238-3.182 3.206-5.485.034-2.3-1.208-4.42-3.206-5.472zm.043 7.54a3.665 3.665 0 0 1-1.393 1.44 3.926 3.926 0 0 1-2.019.524c-.7.01-1.39-.171-2-.524a3.733 3.733 0 0 1-1.406-1.44 4.174 4.174 0 0 1-.513-2.068 4.114 4.114 0 0 1 .519-2.022c.334-.597.82-1.09 1.406-1.427a3.89 3.89 0 0 1 2-.525c.705-.011 1.4.165 2.019.512.587.331 1.07.826 1.394 1.427.338.633.51 1.346.5 2.067a4.246 4.246 0 0 1-.507 2.036zM52.862 2.797H49.95l-5.538 6.08v-6.08h-2.73v12.576h2.73v-3.22l1.67-1.702 4 4.922h3.093L47.85 8.46zM61.487 5.568a4.09 4.09 0 0 1 2.05-.512 3.991 3.991 0 0 1 3.125 1.446l1.707-1.664c-1.109-1.378-2.744-2.067-4.907-2.067a6.8 6.8 0 0 0-3.337.82 6.111 6.111 0 0 0-2.337 2.246 6.146 6.146 0 0 0-.85 3.2 6.204 6.204 0 0 0 .85 3.2 6.08 6.08 0 0 0 2.337 2.259 6.797 6.797 0 0 0 3.331.864c2.138 0 3.773-.69 4.906-2.067l-1.706-1.683a3.925 3.925 0 0 1-3.125 1.472 4.09 4.09 0 0 1-2.05-.512 3.636 3.636 0 0 1-1.412-1.428 4.22 4.22 0 0 1-.513-2.086 4.174 4.174 0 0 1 .513-2.067c.333-.6.825-1.093 1.418-1.421zM72.306 5.19h3.9v10.183h2.531V5.19h4.094V2.797H72.306zM96.912 4.09a5.81 5.81 0 0 0-3.806-1.28h-5.175v12.55h2.532v-3.584h2.662a5.728 5.728 0 0 0 3.75-1.133 4.082 4.082 0 0 0 1.406-3.283 4.071 4.071 0 0 0-1.369-3.27zM94.97 9.062a3.16 3.16 0 0 1-2.05.525h-2.456V5.19h2.456a3.194 3.194 0 0 1 2.05.59 1.94 1.94 0 0 1 .7 1.638 1.999 1.999 0 0 1-.706 1.638l.006.006zM112.737 3.59a7.373 7.373 0 0 0-6.718 0c-1.997 1.053-3.24 3.173-3.207 5.472-.03 2.302 1.211 4.425 3.207 5.485a7.288 7.288 0 0 0 6.718 0c1.996-1.06 3.237-3.183 3.207-5.485.033-2.3-1.21-4.42-3.207-5.472zm.044 7.54a3.665 3.665 0 0 1-1.394 1.44 3.926 3.926 0 0 1-2.018.524c-.7.01-1.39-.171-2-.524a3.733 3.733 0 0 1-1.406-1.44 4.174 4.174 0 0 1-.513-2.068c-.01-.719.166-1.428.513-2.054.333-.597.82-1.09 1.406-1.427a3.89 3.89 0 0 1 2-.525c.705-.011 1.4.165 2.019.512.586.331 1.07.826 1.393 1.427.339.633.511 1.346.5 2.067a4.246 4.246 0 0 1-.506 2.068h.006zM119.862 2.797V5.19h3.707v10.183h2.925V5.19H130V2.797zM15.3 2.285a6.812 6.812 0 0 0-3.331-.813 5.801 5.801 0 0 0-1.063.077V0H8.375v1.555a8.304 8.304 0 0 0-1.156-.083 7.014 7.014 0 0 0-3.382.813C1.838 3.335.593 5.455.625 7.757c-.033 2.3 1.206 4.424 3.2 5.485a6.984 6.984 0 0 0 3.394.838c.387 0 .773-.028 1.156-.083v1.363h2.531v-1.376c.351.059.707.084 1.063.077a6.818 6.818 0 0 0 3.35-.82c1.99-1.064 3.223-3.186 3.187-5.484.033-2.3-1.21-4.42-3.206-5.472zm-8.081 9.497a3.969 3.969 0 0 1-2.032-.518 3.677 3.677 0 0 1-1.4-1.44 4.246 4.246 0 0 1-.5-2.067 4.246 4.246 0 0 1 .5-2.067 3.587 3.587 0 0 1 1.394-1.428A4.072 4.072 0 0 1 7.22 3.75c.39 0 .779.052 1.156.154v7.725a4.413 4.413 0 0 1-1.156.153zm8.125-1.958a3.658 3.658 0 0 1-1.394 1.44 3.78 3.78 0 0 1-1.975.525 3.112 3.112 0 0 1-1.063-.147V3.898c.344-.11.703-.16 1.063-.148a3.92 3.92 0 0 1 2 .512 3.57 3.57 0 0 1 1.381 1.428 4.24 4.24 0 0 1 .494 2.067 4.246 4.246 0 0 1-.506 2.067z"/>
    </g>
</svg>
