<svg xmlns="http://www.w3.org/2000/svg" width="175" height="30" viewBox="0 0 175 30">
    <g fill="#0056A8" fill-rule="nonzero">
        <path d="M132.237 10.86c.916-.85 1.79-1.45 2.895-1.992 1.8-.882 3.6-1.025 5.503-.435 2.042.634 3.513 2.158 4.157 4.311a10.08 10.08 0 0 1 .443 3.038V28.54h-7.399V17.066c0-.383-.043-.708-.152-1.076-.189-.658-.6-1.143-1.199-1.412-1.311-.59-2.802-.068-3.522 1.236-.3.544-.438 1.08-.438 1.711V28.54h-7.166V8.77h6.723l.155 2.09M146.795 1.154h6.966v5.222h-6.966zM146.795 9.23h6.966V29h-6.966zM49.878 10.86c.916-.85 1.79-1.45 2.893-1.992 1.8-.882 3.601-1.025 5.504-.435 2.043.634 3.514 2.158 4.158 4.311a10.08 10.08 0 0 1 .443 3.038V28.54h-7.399V17.066c0-.383-.045-.708-.15-1.076-.192-.658-.602-1.143-1.203-1.412-1.31-.59-2.802-.068-3.52 1.236a3.368 3.368 0 0 0-.439 1.711V28.54H43V8.77h6.722l.156 2.09M94.321 21.17c.534.096.98.215 1.493.396.428.149.722.5.816.967.102.508-.033.991-.377 1.358-.35.375-.749.592-1.24.673a3.373 3.373 0 0 1-1.865-.187 2.483 2.483 0 0 1-.792-.478 2.142 2.142 0 0 1-.65-1.04 3.394 3.394 0 0 1-.14-1.054h-6.822v.422c0 .681.1 1.259.325 1.896.342.959.81 1.7 1.519 2.399.923.917 1.887 1.489 3.102 1.857 2.523.763 4.794.914 7.386.492a9.797 9.797 0 0 0 3.313-1.146c.482-.265.868-.539 1.283-.909 1.843-1.642 2.527-4.148 1.79-6.578-.278-.916-.718-1.622-1.404-2.254-.94-.864-1.89-1.414-3.085-1.784-.262-.08-.485-.148-.749-.225a31.526 31.526 0 0 0-4.217-.951 12.69 12.69 0 0 1-1.136-.23 2.518 2.518 0 0 1-.505-.183c-.42-.201-.606-.725-.417-1.17a1.645 1.645 0 0 1 1.031-.91 3.403 3.403 0 0 1 2.26.058c.734.265 1.194.978 1.163 1.8h6.574a7.264 7.264 0 0 0-.402-2.386c-.279-.816-.702-1.438-1.345-1.976a6.309 6.309 0 0 0-1.756-1.066A9.123 9.123 0 0 0 97.57 8.4a18.31 18.31 0 0 0-4.681-.281c-.943.057-1.738.181-2.66.41-1.242.31-2.243.82-3.246 1.654-.852.71-1.41 1.538-1.768 2.623-.162.492-.24.928-.261 1.446-.037.867.08 1.606.384 2.413.542 1.443 1.505 2.466 2.867 3.042.69.293 1.295.484 2.023.642 1.435.315 2.65.56 4.094.821M12.741 19.464h-4.78v-6.487h3.106c.59 0 1.09-.014 1.68-.05.817-.047 1.496-.435 1.983-1.133.258-.37.404-.745.466-1.203.05-.386.058-.715.022-1.1-.133-1.445-1.26-2.527-2.625-2.527H7.96v21.024H.046V.313h12.937c.514 0 .949.01 1.462.04 3.432.196 6.26 2.218 7.714 5.522.757 1.72 1.014 3.374.82 5.262-.411 3.974-3.031 7.066-6.712 7.922a14.75 14.75 0 0 1-3.526.405M116.425 8.252a12.05 12.05 0 0 0-2.111-.175c-.746 0-1.375.05-2.112.175-2.139.355-3.871 1.267-5.433 2.858-1.67 1.704-2.586 3.72-2.795 6.169a11.97 11.97 0 0 0 .363 4.253c.585 2.231 1.683 3.954 3.415 5.362 1.141.93 2.275 1.487 3.68 1.812.998.233 1.86.329 2.882.329 1.02 0 1.883-.096 2.882-.329 1.404-.325 2.539-.882 3.679-1.812l-4.003-4.629c-.637 1.5-2.295 2.169-3.71 1.493-.65-.31-1.113-.8-1.408-1.493a7.216 7.216 0 0 1-.527-1.907 11.683 11.683 0 0 1 .08-3.973c.132-.717.357-1.3.733-1.91.823-1.333 2.507-1.705 3.764-.833.328.229.569.484.782.832.378.61.603 1.194.734 1.91.253 1.38.278 2.586.08 3.974a7.259 7.259 0 0 1-.528 1.907l4.003 4.629c1.734-1.408 2.832-3.131 3.415-5.362.382-1.454.49-2.75.364-4.253-.21-2.449-1.123-4.465-2.795-6.17-1.562-1.592-3.294-2.502-5.434-2.857M84.11 26.827a97.901 97.901 0 0 1-.193-4.642c-.04-2.147-.065-3.959-.079-6.105a13.485 13.485 0 0 0-.402-3.257c-.358-1.47-1.169-2.586-2.418-3.328a7.6 7.6 0 0 0-2.29-.917c-2.687-.61-5.059-.661-7.766-.163-.76.14-1.39.334-2.104.648-1.65.724-2.786 2.043-3.315 3.851a5.004 5.004 0 0 0-.18 2.04c.015.131.046.243.102.364l6.269.162a3.129 3.129 0 0 1 .171-1.18c.205-.608.61-1.038 1.181-1.26.84-.328 1.65-.34 2.503-.045.56.196.958.624 1.132 1.22.11.374.055.742-.157 1.061a1.498 1.498 0 0 1-.717.594c-.187.076-.346.131-.537.185-.872.25-1.616.421-2.506.578-.704.123-1.298.239-1.996.39-.949.2-1.742.42-2.661.736-.842.29-1.505.7-2.156 1.335-.846.82-1.33 1.794-1.491 3.002a6.482 6.482 0 0 0 .086 2.3c.439 2.061 1.788 3.586 3.702 4.177 2.122.653 4.112.546 6.16-.331.998-.426 1.757-1.015 2.442-1.893l-.442-3.398a2.762 2.762 0 0 1-1.238 1.121 4.451 4.451 0 0 1-1.488.415c-.451.047-.842.012-1.28-.117a1.805 1.805 0 0 1-.883-.564 1.719 1.719 0 0 1-.404-.83 1.366 1.366 0 0 1 .422-1.309c.245-.222.485-.37.786-.488.728-.284 1.35-.497 2.095-.722a15.59 15.59 0 0 0 2.498-.976c.084.723.08 1.342-.015 2.061-.069.528-.22.962-.493 1.409l.442 3.398c.137.483.264.887.419 1.36.088.264.203.47.377.676h6.906a3.3 3.3 0 0 1-.482-1.558M42.367 26.827a97.901 97.901 0 0 1-.193-4.642 449.913 449.913 0 0 1-.079-6.105 13.38 13.38 0 0 0-.402-3.257c-.358-1.47-1.168-2.586-2.418-3.328a7.6 7.6 0 0 0-2.29-.917c-2.687-.61-5.059-.661-7.767-.163-.759.14-1.39.334-2.103.648-1.65.724-2.786 2.043-3.316 3.851a5.004 5.004 0 0 0-.178 2.04c.014.131.044.243.1.364l6.27.162a3.15 3.15 0 0 1 .17-1.18c.206-.608.61-1.038 1.182-1.26a3.463 3.463 0 0 1 2.502-.045c.561.196.96.624 1.135 1.22.107.374.053.742-.16 1.061a1.508 1.508 0 0 1-.716.594c-.187.076-.346.131-.539.185-.87.25-1.615.421-2.504.578-.704.123-1.298.239-1.997.39-.948.2-1.74.42-2.662.736-.84.29-1.503.7-2.154 1.335-.846.82-1.329 1.794-1.491 3.002a6.434 6.434 0 0 0 .087 2.3c.437 2.061 1.788 3.586 3.7 4.177 2.123.653 4.112.546 6.161-.331.996-.426 1.757-1.015 2.443-1.893l-.442-3.398a2.762 2.762 0 0 1-1.24 1.121 4.446 4.446 0 0 1-1.487.415 3.131 3.131 0 0 1-1.28-.117 1.798 1.798 0 0 1-.883-.564 1.71 1.71 0 0 1-.405-.83 1.368 1.368 0 0 1 .422-1.309c.245-.222.485-.37.787-.488a26.41 26.41 0 0 1 2.096-.722 15.63 15.63 0 0 0 2.498-.976 8.015 8.015 0 0 1-.016 2.061c-.07.528-.221.962-.492 1.409l.442 3.398c.136.483.262.887.419 1.36.087.264.202.47.376.676h6.906a3.311 3.311 0 0 1-.482-1.558M172.452 11.29c-1.407-1.57-3.003-2.506-5.004-2.933-1.351-.29-2.534-.351-3.907-.2-1.82.198-3.322.819-4.787 1.982-1.197.947-2.055 1.972-2.805 3.346a9.576 9.576 0 0 0-1.102 3.27c-.262 1.68-.193 3.159.223 4.802.953 3.738 3.603 6.387 7.174 7.175 2.04.45 3.853.404 5.87-.149 1.435-.393 2.576-1.056 3.662-2.129a7.804 7.804 0 0 0 1.604-2.23 6.25 6.25 0 0 0 .659-3.214h-6.37c-.138.906-.547 1.627-1.235 2.182-.89.72-2.04.778-2.992.154-.65-.43-1.078-1.014-1.309-1.79-.548-1.845-.573-3.563-.084-5.427a4.15 4.15 0 0 1 1.118-1.958c.636-.646 1.43-.91 2.302-.774.54.083.979.334 1.342.768.382.448.6.928.7 1.523.07.418.11.772.13 1.196h6.716c.134-2.148-.508-4.035-1.905-5.594"/>
    </g>
</svg>
