<svg xmlns="http://www.w3.org/2000/svg" xmlns:xlink="http://www.w3.org/1999/xlink" width="120" height="22" viewBox="0 0 120 22">
    <defs>
        <path id="a" d="M0 .527h22.171v21.195H0z"/>
    </defs>
    <g fill="none" fill-rule="evenodd">
        <path fill="#1B1918" d="M20.633 12.256c-.452.208-.92.525-1.363.673-.067.023 1.197.362 1.393.873.583 1.518 2.777 1.808 3.827 2.378 1.484.805 1.245.718.295-.634-.414-.59-.355-1.297-.355-2.14 0-.967 1.842-.226 1.778-1.031-.003-.051-.614-.317-.68-.317-.127 0 2.795-1.619 1.334-1.586-1.746.041-.725.548.03-1.465.51-1.366-2.305.688-2.744 1.13-.659.66-.48 1.03-.756 1.704-.686 1.674-.222-.02-2.759.415"/>
        <g transform="translate(0 -.249)">
            <mask id="b" fill="#fff">
                <use xlink:href="#a"/>
            </mask>
            <path fill="#1B1918" d="M2.58 10.125c.09 0 1.552.175 1.631.208.077.033.502.165.502.23 0 .067 0 .32-.19.231-.188-.088-.703-.286-.96-.286-.256 0-.736-.065-.792-.131-.055-.066-.19-.252-.19-.252zm18.437.098s.469.395.604.395c.133 0 .112-.395 0-.44-.112-.043-.604.045-.604.045zm-3.191 6.107s-.425.44-.536.33c-.112-.11.178-.507.178-.507l.358.177zm-9.4 1.538s1.205.154 1.518.242c.312.087.894.46.894.46l.356.176s.089.33-.624.153c-.715-.176-1.318-.614-1.497-.636-.178-.022-.648-.395-.648-.395zm7.59-5.645s-.089.373-.089.811c0 .44-.112 1.011-.357 1.362-.245.352-.223.595-.937.595-.714 0-1.162-.155-1.318-.441-.156-.285-.357-1.406-.2-1.779.156-.373.736-1.317 1.182-1.362.448-.043 1.028-.087 1.16.045.135.131.559.769.559.769zm-1.581-8.455s1.206 2.236 1.384 2.718c.18.483 1.027 1.536 1.027 1.536l.938.876s.4.964.312 1.315c-.09.35-.49 1.446-.402 1.753.09.308-.58 3.859-.669 4.079-.09.218-.915.878-1.036.976-.124.1-.66.33-.738.451-.077.121-.268.341-.39.373-.123.033-1.105.626-1.296.626-.189 0-1.071-.143-1.216-.471-.145-.33-.748-1.197-.85-1.505-.1-.308-.334-1.22-.367-1.44-.033-.219-.045-.46-.257-.384-.212.077-.324.198-.324.32 0 .12.357 1.35.38 1.559.022.208.2.769.212.856.01.088.022.417-.067.472-.089.055-.513.067-.793.067-.278 0-2.444-.671-2.556-.748-.11-.076-.614-.208-.703-.296-.088-.088-.234-.165-.368-.308-.135-.142-.256-1.427-.268-1.625-.012-.198-.19-.988-.312-1.088-.124-.098-.27-.131-.246.012.022.143.144 1.154.168 1.372.022.22.167.88.056.934-.112.055-.469-.33-.469-.516 0-.187-.263-1.615-.129-2.01.134-.396.045-1.89-.022-2.065-.066-.176-.09-.593-.09-.593s.404.66.448.858c.044.196-.18.768.02.746.202-.022.336-.418.36-.746.02-.331-.112-.748-.068-.858.044-.11.379-.043.514.044.133.088 1.585.044 1.807.22.224.176 1.027.439 1.162.439.133 0 .401-.286.447-.615.044-.33 1.518-2.636 1.764-3.054.244-.417.959-2.086 1.272-2.46.312-.372.804-1.273.937-1.405.134-.133.428-.415.428-.415zM7.638 1.163S9.324.855 9.501.866c.18.01 1.675.109 1.675.109s1.15-.065 1.24-.065L13.7.9c.077 0 1.395.021 1.64.196.245.176.425.253.537.571.112.318 1.055 2.78 1.569 3.196.512.418.914 1.34 1.116 1.582.202.243.602 1.384.69 1.56.09.176.47.768.47.944 0 .175.201.638.401.901.203.263-.177.417-.333.417-.157 0-.782.154-.782.154s-.2-.483-.18-.637c.024-.154.247-.945.045-1.143-.2-.196-.557-.328-.803-.702-.244-.374-1.048-2.395-1.339-2.878-.291-.483-.647-1.076-.782-1.34-.134-.264-.468-1.01-.624-1.251-.156-.242-.403-.571-.56-.594-.154-.022-.334.023-.334.198 0 .176-.268.286-.557.417-.291.132-.715.945-.804 1.141-.09.2-1.094 2.725-1.25 3.1-.158.372-.738 1.471-1.05 1.888-.312.416-.58 1.383-.915 1.603-.335.22-1.474.395-1.786.33-.312-.067-1.384-.33-1.54-.44-.157-.11-.849-.308-.849-.308s-.85-.328-1.34-.328c-.49 0-1.429-.133-1.697-.308-.268-.176-.602-.286-.514-.528.09-.241 1.452-1.822 1.765-2.063.312-.243.982-1.407 1.228-1.582.246-.176 1.138-1.582 1.295-1.67.771-.435-.197-.446.69-1.757.091-.132.531-.406.531-.406zM7.37 1.04s-.066-.11-.29-.077c-.224.034-.692.034-.816.034-.122 0-.402-.067-.166-.143C6.332.778 6.868.723 7 .7 7.136.678 8.855.481 9.1.536c.244.055.38.175.38.175S10.943.69 11.12.69c.18 0 .526-.033.693-.067.168-.032.445-.076.68-.076.236 0 2.21.033 2.792.198.58.165 1.016.702 1.148.912.136.208.538.702.548.956.01.252.055.306.279.691.223.385 1.413 2.9 1.613 3.317.202.417.917 1.889 1.185 1.999.268.11.825.637.825.637s-.468-.769-.29-.857c.178-.087.448.483.67.834.223.353.848 1.011.893 1.23.044.22 0 .44-.223.44-.224 0-1.162.22-1.495.22-.335 0-1.565-.175-1.565-.175s-.445 1.163-.445 1.954c0 .79-.224 1.56-.291 1.867-.067.308-.089 1.12-.089 1.12s.224-.175.446-.066c.223.11.358.308.046.396-.314.088-.648.834-.85 1.142-.2.308-.445.373-.468.265-.023-.111.134-.485-.044-.463-.18.022-1.92 1.142-1.988 1.296-.065.154-.29.374-.513.726-.224.351-.602.79-.738.724-.132-.066-.11-.526-.11-.526l-.738.285s-.467.285-.714.285c-.245 0-1.793-.71-2.217-.666-.46.047.575 2.314-.815 2.314-.424 0-.829.22-1.008.066-.18-.154-.714-.945-.626-1.473.09-.526-.088-1.384-.133-1.58-.045-.199.089-.265-.268-.484-.359-.22-.961-.417-1.318-.615-.356-.197-.938-.285-1.206-.483-.268-.199-.959-.132-.825-.307.133-.176.625-.242.825-.242.202 0 .514-.286.336-.374-.18-.088-.448-.725-.448-.725s.248-2.196.112-2.767c-.132-.571-.132-1.164-.4-1.45-.268-.285-1.363-.307-1.654-.55-.289-.241-1.718-.263-2.12-.44-.402-.175-.715-.306-.581-.394.135-.087.626-.197.848-.154.224.044.09-.44.29-.68.202-.242 1.184-1.231 1.318-1.363.134-.131 1.16-.658.87-.68-.29-.023-.691.02-.49-.132.2-.154.825-.197.96-.572.134-.373 1.071-1.383 1.361-1.691.292-.307.648-.923.514-.988-.134-.067-.47-.11-.29-.22.178-.11.625-.11.76-.44.133-.328.4-.702.356-.812-.045-.11.335-.483.379-.636.044-.155.463-.375.463-.375z" mask="url(#b)"/>
        </g>
        <path fill="#FDD301" d="M7.638.913s-.44.275-.53.407c-.888 1.312.08 1.323-.69 1.757-.158.088-1.05 1.493-1.296 1.67-.246.175-.916 1.339-1.229 1.58-.312.243-1.674 1.825-1.762 2.066-.09.24.244.35.512.527.268.175 1.206.308 1.697.308.492 0 1.34.33 1.34.33s.692.196.848.306c.158.11 1.228.373 1.54.44.313.065 1.451-.11 1.787-.33.334-.22.602-1.186.915-1.604.312-.416.893-1.515 1.05-1.888.156-.374 1.16-2.9 1.25-3.097.088-.198.513-1.011.804-1.143.29-.131.558-.241.558-.418 0-.175.177-.218.335-.196.156.021.402.351.558.593.156.241.49.987.626 1.252.132.263.49.856.78 1.339.29.483 1.094 2.504 1.34 2.877.245.375.601.506.803.704.2.197-.022.988-.044 1.143-.022.153.178.636.178.636s.626-.154.782-.154c.156 0 .536-.154.334-.417-.201-.263-.402-.726-.402-.9 0-.176-.38-.769-.468-.945-.09-.176-.49-1.318-.692-1.56-.202-.242-.603-1.164-1.117-1.582-.512-.417-1.457-2.876-1.569-3.195-.112-.32-.291-.396-.536-.572C15.094.672 13.778.65 13.7.65l-1.284.01c-.089 0-1.24.067-1.24.067s-1.495-.1-1.674-.11C9.324.605 7.638.913 7.638.913"/>
        <path fill="#FEFEFE" d="M13.114 12.522c.156-.373.736-1.318 1.183-1.361.447-.045 1.028-.088 1.162.043.132.132.556.77.556.77s-.088.373-.088.812c0 .439-.112 1.011-.357 1.361-.245.352-.223.594-.938.594-.714 0-1.161-.154-1.318-.44-.156-.285-.356-1.406-.2-1.78M11.797 7.8c-.246.418-1.72 2.724-1.764 3.054-.044.33-.312.615-.446.615s-.938-.264-1.162-.44c-.221-.175-1.675-.13-1.807-.218-.136-.089-.47-.155-.514-.045-.044.11.09.528.066.857-.022.329-.156.725-.356.746-.202.022.022-.549-.022-.746-.045-.198-.448-.857-.448-.857s.023.418.091.593c.065.176.156 1.67.02 2.065-.132.396.13 1.823.13 2.01 0 .186.356.57.468.516.112-.055-.034-.713-.056-.933-.022-.22-.146-1.23-.168-1.374-.022-.143.123-.11.246-.01.124.099.3.888.312 1.086.012.198.135 1.484.269 1.627.135.143.28.22.368.307.09.088.592.22.702.296.112.077 2.278.748 2.557.748.28 0 .704-.012.794-.067.088-.054.078-.385.066-.473-.01-.087-.19-.646-.212-.856-.022-.208-.38-1.439-.38-1.559 0-.121.112-.242.324-.32.212-.076.224.166.258.385.032.22.268 1.131.368 1.44.1.307.702 1.175.848 1.504.144.33 1.027.472 1.217.472.19 0 1.172-.593 1.294-.626.124-.032.312-.252.392-.373.076-.122.613-.352.736-.45.122-.098.949-.759 1.037-.978.089-.22.759-3.77.67-4.077-.09-.308.312-1.404.4-1.754.09-.35-.311-1.315-.311-1.315l-.938-.877s-.847-1.053-1.027-1.534c-.178-.483-1.383-2.72-1.383-2.72s-.295.283-.428.416c-.134.131-.626 1.032-.938 1.405-.312.374-1.027 2.044-1.273 2.46"/>
        <path fill="#1B1918" d="M55.313 14.166v1.55h.922c.402 0 .677-.059.826-.175v-.001a.48.48 0 0 0 .147-.204c.038-.098.058-.22.058-.365 0-.155-.021-.285-.059-.391h-.001a.507.507 0 0 0-.151-.225l-.002-.001a.732.732 0 0 0-.29-.134 2.12 2.12 0 0 0-.518-.054h-.932zm-1.727-1.754h2.98c.378 0 .709.033.991.097.295.067.541.173.732.314.328.233.574.525.74.88.162.348.245.752.245 1.208 0 .455-.078.859-.233 1.21-.158.359-.394.66-.709.902l-.005.004-.012.008a2.553 2.553 0 0 1-.772.327v-.002a2.994 2.994 0 0 1-.469.082c-.174.02-.365.028-.567.028h-1.194v2.521h-1.969V12.412h.242zm-6.458 3.705c0 .325.035.624.106.895.072.27.178.514.318.736h.001c.129.201.295.354.496.453.207.104.458.155.752.155.26 0 .492-.049.693-.145.202-.095.376-.24.528-.434.153-.2.267-.434.343-.702.079-.274.12-.586.12-.935 0-.345-.04-.652-.118-.917a1.837 1.837 0 0 0-.329-.66h-.001a1.395 1.395 0 0 0-.518-.393 1.721 1.721 0 0 0-.699-.133c-.166 0-.32.02-.463.06v.001c-.143.041-.277.101-.4.18v.002a1.43 1.43 0 0 0-.33.287v.001a1.735 1.735 0 0 0-.25.398 2.6 2.6 0 0 0-.173.528 3.684 3.684 0 0 0-.078.623h.002zm-2.02.114c0-.785.154-1.475.462-2.074a3.362 3.362 0 0 1 1.314-1.395l.003-.002c.287-.163.594-.286.92-.366.325-.08.671-.12 1.035-.12.266 0 .525.023.773.069.249.044.486.113.714.205h.002c.227.092.44.205.632.334.194.129.37.28.532.45.159.168.303.353.427.554.124.2.232.418.323.653l.001.003c.085.236.15.484.193.743.041.264.063.533.063.814 0 .767-.15 1.45-.449 2.052-.15.306-.334.58-.55.82a3.457 3.457 0 0 1-1.648 1.017c-.32.088-.659.132-1.013.132-.364 0-.709-.043-1.034-.126h-.001a3.523 3.523 0 0 1-.915-.378 3.415 3.415 0 0 1-.757-.587 3.48 3.48 0 0 1-.565-.786 3.842 3.842 0 0 1-.346-.945 4.777 4.777 0 0 1-.116-1.067zm-5.011.654v1.352h1.212c.506 0 .845-.054 1.015-.16a.347.347 0 0 0 .133-.166.95.95 0 0 0 .056-.354c0-.15-.019-.276-.054-.37a.347.347 0 0 0-.113-.159.991.991 0 0 0-.342-.102h-.001c-.176-.027-.401-.04-.674-.04h-1.232zm0-2.72v1.065h1.252a3 3 0 0 0 .53-.038.721.721 0 0 0 .265-.09l.006-.003a.23.23 0 0 0 .087-.117.768.768 0 0 0 .043-.287.703.703 0 0 0-.043-.274.27.27 0 0 0-.1-.123v-.003a.716.716 0 0 0-.262-.09h-.001a2.668 2.668 0 0 0-.495-.04h-1.282zm3.535 5.278h-.002.002zm-5.262-7.031h3.16c.251 0 .475.007.674.02.2.014.37.034.509.063h.001c.142.029.277.074.408.134.128.059.25.133.365.218.263.194.462.432.595.712.131.276.197.59.197.938 0 .589-.204 1.068-.612 1.437.229.142.412.317.55.527.203.306.304.68.304 1.118 0 .392-.075.745-.223 1.058-.149.313-.371.583-.668.806-.13.105-.27.192-.41.262l-.002-.001c-.147.074-.302.13-.46.168-.158.04-.347.07-.565.09-.216.02-.453.03-.71.03h-3.355v-7.58h.242zm-5.67 5.825h2.043v-4.05h-1.13c-.194 0-.359.01-.492.036a.774.774 0 0 0-.269.094.286.286 0 0 0-.107.129v.001a.676.676 0 0 0-.045.268v3.522zm-1.978 0v-3.743c0-.346.067-.656.2-.932.133-.279.335-.517.602-.715l.004-.004a2.096 2.096 0 0 1 .792-.349c.138-.027.304-.048.5-.062.192-.013.412-.02.66-.02H36.71v5.825h.731v1.754h-7.387v-1.754h.667zm88.943-8.04h-1.646V5.863l-2.572 4.218-.072.116h-1.77v-7.58h1.875v4.319l2.51-4.201.07-.118h1.845v7.58h-.24zm-3.03-7.594c-.573 0-1.04-.162-1.401-.487l-.002.002a1.621 1.621 0 0 1-.423-.552 1.6 1.6 0 0 1-.143-.676V.652h1.633V.89c0 .028.007.053.018.075a.249.249 0 0 0 .072.08h.001c.04.031.082.054.125.07a.435.435 0 0 0 .14.021.45.45 0 0 0 .143-.02.47.47 0 0 0 .126-.068.23.23 0 0 0 .066-.074V.973a.17.17 0 0 0 .02-.083V.652H118.64V.89c0 .241-.05.466-.146.673-.096.205-.24.39-.432.555a1.867 1.867 0 0 1-.645.365c-.237.08-.498.12-.783.12zM110.3 9.96V2.617h1.968v7.58H110.3V9.96zm-5.135-2.87v1.353h1.214c.506 0 .843-.054 1.013-.16v-.001a.36.36 0 0 0 .134-.165.954.954 0 0 0 .056-.354c0-.152-.018-.276-.055-.37a.349.349 0 0 0-.113-.16 1.033 1.033 0 0 0-.343-.101 4.55 4.55 0 0 0-.672-.041h-1.234zm3.536 2.558l-.001.001v-.001zm-5.263-7.03h1.726v2.816h1.255c.345 0 .665.028.96.081.297.054.565.135.807.243.24.106.449.23.627.37.183.146.333.309.449.489l.005.006c.105.178.186.366.24.561a2.441 2.441 0 0 1-.14 1.659 2.176 2.176 0 0 1-.667.806c-.13.104-.27.192-.413.262V9.91c-.147.072-.303.129-.462.168a3.76 3.76 0 0 1-.563.09c-.216.019-.454.03-.71.03h-3.354V2.616h.24zm-7.376 0h1.726v2.758h2.387V2.617h1.968v7.58h-1.968V7.13h-2.386v3.067h-1.967v-7.58h.24zM90.29 7.09v1.352h1.214c.505 0 .843-.054 1.014-.16v-.001a.343.343 0 0 0 .133-.165.901.901 0 0 0 .057-.354c0-.152-.018-.276-.055-.37a.359.359 0 0 0-.113-.16 1.023 1.023 0 0 0-.344-.101 4.57 4.57 0 0 0-.672-.041h-1.234zm3.537 2.557v.001-.001zm-5.263-7.03h1.726v2.816h1.255c.343 0 .663.028.959.081.296.054.567.135.806.243.24.106.452.23.629.37.182.146.331.309.447.489l.005.006c.107.178.188.366.242.561h.002c.054.196.08.396.08.6 0 .393-.072.746-.223 1.059-.149.313-.371.582-.665.806-.132.104-.27.192-.414.262V9.91c-.148.072-.303.129-.462.168a3.76 3.76 0 0 1-.563.09c-.218.019-.454.03-.71.03H88.32V2.616h.242zM80.713 4.7c0-.295.066-.568.196-.821.127-.25.317-.475.568-.675l.003-.003c.25-.195.536-.342.86-.44a3.637 3.637 0 0 1 1.051-.144h3.646v7.58h-1.969V4.351H83.52c-.308 0-.53.051-.665.152v.002c-.116.085-.174.225-.174.414V10.197H80.712V4.7zm-6.789-2.083h5.445v1.755h-3.718v1.044h3.405V7.09H75.65v1.352h3.872v1.754h-5.841v-7.58h.242zm-7.226 0h6.039v1.755h-2.141v5.825h-1.968V4.372H66.456V2.617h.242zm-1.054 7.58H64V5.863l-2.574 4.218-.07.116h-1.772v-7.58h1.877v4.319l2.509-4.201.07-.118h1.847v7.58h-.242zM53.275 6.323c0 .324.035.622.107.893.07.27.177.516.317.736h.002c.127.203.294.355.495.455.207.102.457.155.752.155.26 0 .492-.049.694-.145.2-.096.376-.24.527-.434.152-.2.266-.435.343-.703.078-.273.12-.585.12-.934 0-.346-.04-.652-.117-.918a1.88 1.88 0 0 0-.33-.659 1.38 1.38 0 0 0-.52-.395 1.743 1.743 0 0 0-.698-.131c-.167 0-.32.02-.462.06v.001c-.143.04-.277.101-.401.18h-.001c-.123.08-.233.177-.33.289-.097.115-.18.248-.25.397a2.559 2.559 0 0 0-.172.53 3.671 3.671 0 0 0-.077.623h.001zm-2.02.114c0-.785.154-1.475.461-2.075a3.333 3.333 0 0 1 1.315-1.395l.003-.002c.288-.162.595-.285.92-.365a4.377 4.377 0 0 1 1.808-.052c.248.045.486.114.715.205h.001c.227.093.439.204.633.335.192.129.37.28.532.45.159.168.302.353.425.553.125.2.233.419.323.653l.001.003c.086.236.15.483.194.744.042.262.063.533.063.814 0 .767-.15 1.45-.448 2.052v-.001a3.59 3.59 0 0 1-.55.82A3.425 3.425 0 0 1 56 10.193c-.32.088-.658.133-1.011.133-.364 0-.71-.043-1.034-.126h-.002a3.523 3.523 0 0 1-.914-.378 3.39 3.39 0 0 1-.758-.588v.001a3.485 3.485 0 0 1-.566-.786 3.787 3.787 0 0 1-.344-.945 4.71 4.71 0 0 1-.116-1.067zm-4.578-2.065v1.55h.923c.4 0 .676-.06.825-.175v-.002a.455.455 0 0 0 .147-.204.984.984 0 0 0 .057-.364 1.1 1.1 0 0 0-.059-.391.52.52 0 0 0-.152-.225l-.001-.001a.735.735 0 0 0-.289-.136 2.192 2.192 0 0 0-.518-.052h-.933zm-1.726-1.755h2.98c.377 0 .707.032.99.098.295.067.54.172.732.314.328.232.576.525.742.879.162.349.243.753.243 1.209 0 .453-.077.858-.232 1.21-.158.358-.394.66-.709.9l-.005.006-.013.007a2.608 2.608 0 0 1-.372.197h-.001c-.13.055-.263.099-.4.13a3.073 3.073 0 0 1-.467.081c-.176.02-.364.028-.569.028h-1.193v2.521h-1.966v-7.58h.24zm-7.225 0h6.038v1.755H41.624v5.825h-1.968V4.372h-2.17V2.617h.24zm-.864 2.835h-1.674l-.045-.18a2.061 2.061 0 0 0-.187-.486 1.13 1.13 0 0 0-.245-.31 1.01 1.01 0 0 0-.34-.172 1.622 1.622 0 0 0-.468-.061c-.26 0-.49.046-.688.135-.196.09-.365.225-.506.404v.001a1.926 1.926 0 0 0-.328.686c-.078.283-.116.611-.116.984 0 .472.068.863.202 1.175l.004.005c.062.156.14.292.228.409.088.113.188.21.301.286v.001c.114.077.237.134.37.174.135.038.284.059.445.059.333 0 .608-.092.82-.274.225-.189.395-.483.51-.879l.05-.172h1.945l-.039.27c-.026.167-.054.321-.088.46a2.834 2.834 0 0 1-.284.72c-.065.114-.14.229-.226.345v.002c-.321.43-.71.753-1.166.969-.451.215-.968.323-1.543.323-.54 0-1.024-.09-1.456-.267a3.08 3.08 0 0 1-1.133-.806l.001-.001a3.469 3.469 0 0 1-.722-1.235 4.856 4.856 0 0 1-.238-1.562c0-.794.147-1.488.44-2.086.148-.303.326-.57.533-.8.211-.235.452-.434.724-.6l.001-.002c.27-.162.565-.284.882-.366a3.99 3.99 0 0 1 1.006-.123c.446 0 .856.06 1.232.182.379.12.718.302 1.023.545l.004.003c.3.25.537.543.706.875.167.33.27.702.306 1.112l.022.256h-.263z"/>
    </g>
</svg>
